<svg id="logo-smart" xmlns="http://www.w3.org/2000/svg" width="960" height="192" viewBox="0 0 960 192">
  <rect id="사각형_13172" data-name="사각형 13172" width="960" height="192" fill="#fff" opacity="0"/>
  <path id="logo_smart" d="M.772,72.568,0,71.4,22.863,59.363l.585.639C29,66.072,37.865,69.145,49.8,69.145c16.916,0,20.342-4.09,21.428-7.657,1.232-4.01-.544-6.3-21.982-9.908C30.266,48.305,13.7,43.854,19.3,25.566,23.9,10.51,44.926,0,70.431,0c17.449,0,30.02,4.216,39.551,13.277l1.161,1.1L87.823,27.56l-.625-.576c-6.094-5.62-13.514-8.242-23.339-8.242-11.356,0-16.36,3.157-17.267,6.113-1.215,3.979,2.5,5.592,19.878,8.611,19.41,3.375,37.887,8.23,32.192,26.842C95.5,70.653,84.027,88,42.69,88,22.8,88,7.133,82.228.772,72.568ZM209.6,64.29c4.331-14.18,24.839-21.261,46.837-21.261,8.875,0,14.224,1.219,17.883,2.564l.978-3.18c1.379-4.529-4.191-7.711-13.436-7.711a119.421,119.421,0,0,0-34.486,5.242L225.942,26.77a118.4,118.4,0,0,1,40.321-6.48c23.476,0,40.39,6.136,35.981,20.574L288.5,85.809H262.03l1.308-4.277c-5.594,3.18-14.476,5.615-23.534,5.615C221.687,87.147,204.844,79.819,209.6,64.29Zm26.467,0c-1.374,4.527,1.416,8.078,12.326,8.078,8.321,0,15.831-2.807,19.54-5.869l2.013-6.623c-3.865-1.831-7.713-3.174-16.772-3.174C243.553,56.7,237.633,59.162,236.065,64.29ZM134.017,51.528,124.1,85.809H98.862L118.477,21.65H142.2l12.9,36.476L190.439,21.65h23.442L194.26,85.809H169.025l11.041-34.281L146.257,87.044ZM411.768,85.811l14.883-48.678H403.089l-6.1-15.483h88.466l-4.732,15.483H453.551L438.663,85.811Zm-51.844,0-16.411-21.63H332.688l-6.6,21.63H299.6l19.628-64.162h43.388c22.731,0,36.1,5.682,31.448,20.893-2.932,9.628-11.557,15.587-23.2,18.79L390,85.809ZM336.982,50.157h15.811c8.728,0,12.983-2.571,14.384-7.152,1.227-4.033-1.223-6.879-9.683-6.879H341.271Z" transform="translate(237 90)" fill="#fff" stroke="rgba(0,0,0,0)" stroke-miterlimit="10" stroke-width="1"/>
</svg>
