<svg id="logo-vantra" xmlns="http://www.w3.org/2000/svg" width="960" height="192" viewBox="0 0 960 192">
  <rect id="사각형_13172" data-name="사각형 13172" width="960" height="192" fill="#fff" opacity="0"/>
  <path id="logo_vantra" d="M489.752,66c-19.108-.025-29.783-7.579-25.9-21.7,3.689-13.514,20.183-20.434,40.942-20.4,8.923.008,14.649,1.093,19.6,2.662l.876-3.113c1.451-5.5-2.62-7.429-11.836-7.437a86.238,86.238,0,0,0-28.531,4.5L479.96,6.26c13-3.69,26.87-5.709,43.847-5.676,27.461.042,37.063,8.79,33.088,23.388l-11.06,40.8-31.828-.05,1.17-4.19A66.539,66.539,0,0,1,489.848,66ZM494.8,43.989c-1.068,3.956,1.36,6.828,8.64,6.836a39.786,39.786,0,0,0,15.224-3.089l2.328-8.615a44.489,44.489,0,0,0-13.872-1.812h-.074C500.106,37.311,495.958,39.7,494.8,43.989ZM109.245,65.424c-19.115-.025-29.782-7.587-25.9-21.7,3.68-13.513,20.084-20.442,40.841-20.408,9.025.017,14.751,1.1,19.691,2.671l.878-3.113c1.453-5.509-2.713-7.428-11.837-7.446a84.845,84.845,0,0,0-19.79,2.1l-4.85-14.048A162.277,162.277,0,0,1,143.3,0c27.451.041,37.06,8.8,33.086,23.4L165.32,64.2l-31.818-.05,1.161-4.19a66.513,66.513,0,0,1-25.322,5.467Zm5.042-22.011c-1.06,3.948,1.268,6.828,8.64,6.836A40.262,40.262,0,0,0,138.16,47.16l2.328-8.613a45.117,45.117,0,0,0-13.872-1.82h-.038C119.615,36.727,115.454,39.114,114.287,43.413ZM420.68,64.582l-9.707-21.2-6.112-.008-5.817,21.176-33.763-.05L382.451,1.678l42.887.066c29.007.042,46.761,5.643,42.688,20.542-2.521,9.425-12.8,15.242-27.263,18.365L456,64.64ZM408.552,29.649l7.764.008c11.15.017,16.292-2.495,17.461-6.978,1.069-3.948-2.428-6.736-13.2-6.752l-8.248-.009Zm-97.7-11.207-22.9-.024L286.7,1.542l84.117.115-4.56,16.869-22.7-.032-13.39,45.443-32.405.422ZM234.593,64.3l9.707-35.65c2.229-8.139-1.461-10.3-8.445-10.317-7.079-.009-11.93,2.137-14.166,10.04l-9.7,35.893-33.664-.058L195.4,1.4l33.664.051L227.9,5.642A61.661,61.661,0,0,1,254.092.175C275.637.2,283.4,9.432,278.931,25.95L268.457,64.356ZM22.9,63.978,0,1.1l31.046.057,13.1,41.9L65.1,1.205l31.434.058-35.9,62.763Z" transform="translate(201 111)" fill="#fff"/>
</svg>
