<svg id="logo-winter" xmlns="http://www.w3.org/2000/svg" width="960" height="192" viewBox="0 0 960 192">
  <rect id="사각형_13172" data-name="사각형 13172" width="960" height="192" fill="#fff" opacity="0"/>
  <g id="logo_winter" transform="translate(156 4)">
    <g id="winter_ipike" data-name="winter ipike" transform="translate(0 110.102)">
      <path id="Path_45715" data-name="Path 45715" d="M705.237,445.6H676.851l14.535-47.446L697.22,379.7h26.253l-32.054,18.452H719.7L705.262,445.6Z" transform="translate(-402.898 -379.7)" fill="#fff"/>
      <path id="Path_45716" data-name="Path 45716" d="M724.833,445.6H696.447l14.526-47.446,5.835-18.452H743.06L711,398.152h28.287L724.85,445.6Z" transform="translate(-259.177 -379.7)" fill="#fff"/>
      <path id="Path_45717" data-name="Path 45717" d="M780.335,445.6h-30.51l-6.4-19.794-9.1,5.417L729.865,445.6H701.586l14.535-47.413,34-18.485-5.909,19.352c-.975,3.159-3.492,10.476-4.651,13.46,2.809-2.267,11.327-7.684,15.594-10.3l6.784-4.058H794.3l-25.77,14.268L780.345,445.6Z" transform="translate(-221.487 -379.7)" fill="#fff"/>
      <path id="Path_45718" data-name="Path 45718" d="M715.306,400.345h-9.685l2.225,8.376-7.851,3.85-2.226-8.334-7.5,8.334-5.426-3.85,7.359-8.376h-9.685l2.326-7.7h9.684L692.3,384.31l7.842-3.859,2.225,8.334,7.458-8.334,5.426,3.859-7.367,8.334h9.734l-2.326,7.7Z" transform="translate(-361.334 -374.192)" fill="#fff"/>
      <path id="패스_45774" data-name="패스 45774" d="M746.953,383.208H721.384l6.1-3.508H701.233L695.4,398.152l6.668-3.851-15.6,51.3H711.85l5.708-17.618h19.277c18.11,0,31-6.693,36.228-23.694h.051C778.54,386.667,762.555,383.208,746.953,383.208Zm.159,21.619a18.124,18.124,0,0,1-18.118,11.343c-4.367,0-8.334-.242-8.334-.242l6.775-21.836h9.409C742.845,394.093,750.012,395.343,747.112,404.827Z" transform="translate(-332.395 -379.7)" fill="#fff"/>
      <path id="Path_45720" data-name="Path 45720" d="M772.789,381.928H747.4c-26.67,0-31,15.835-31,15.835l-3.875,12.31c-5.517,17.994,19.669,19.269,19.669,19.269h51.722l3.1-10.226H746.535c-10.367,0-7.076-7.5-7.076-7.5l.684-2.167h50l2.425-8.034c6.292-20.253-19.76-19.494-19.76-19.494Zm-7.5,17.627H743.2a10.962,10.962,0,0,1,10-7.959h6.584c11.043,0,5.526,7.959,5.526,7.959Z" transform="translate(-146.999 -363.443)" fill="#fff"/>
      <path id="Path_45721" data-name="Path 45721" d="M668.062,409.807l8.618-28.028H660.595l-8.525,28.028Z" transform="translate(-584.654 -364.453)" fill="#fff"/>
      <path id="Path_45722" data-name="Path 45722" d="M712.323,382.9a17.954,17.954,0,0,0-7.167-1.175,23.8,23.8,0,0,0-10.834,2.617l.583-2.033h-16l-8.526,28.036h15.985l4.65-15.269c1.059-3.434,3.876-4.55,7.742-4.55a9.655,9.655,0,0,1,6.667,2.35l6.876-10Z" transform="translate(-450.379 -364.986)" fill="#fff"/>
      <path id="Path_45723" data-name="Path 45723" d="M688.856,411.774h-6.393c-2.717,0-3.776-.625-3.2-2.767l3.1-10.143H692.54l2.325-7.5H684.689l3.391-10.893-15.21,3.8-2.125,7.093H663.67l-2.418,7.5h7.167l-3.683,12.168c-1.942,6.359,1.158,8.917,9.593,8.917h10l4.551-8.176Z" transform="translate(-517.297 -374.045)" fill="#fff"/>
      <path id="Path_45724" data-name="Path 45724" d="M719.637,380.658h-17.5l-12.393,22.5.1-22.5H674.049l-13.66,22.5,1.45-22.5H643.98l3.492,37.37h15.694l14.335-23.6-.1,23.6h15.985Z" transform="translate(-643.98 -372.674)" fill="#fff"/>
      <path id="Path_45725" data-name="Path 45725" d="M697.667,381.8h-12.11c-15.309,0-17.827,9.326-17.827,9.326l-2.226,7.234C662.3,408.941,676.84,409.7,676.84,409.7h27.119l1.842-6.009H683.815c-6.008,0-4.942-4.408-4.942-4.408l.384-1.276h28.286L709,393.272c3.584-11.9-11.334-11.459-11.334-11.459Zm-2.234,10.368H681a7.158,7.158,0,0,1,6.592-4.684h3.884c6.293,0,3.967,4.684,3.967,4.684Z" transform="translate(-489.487 -364.327)" fill="#fff"/>
      <path id="Path_45726" data-name="Path 45726" d="M693.082,381.778l-5.426,17.676-10.167-17.676H663.246l-8.526,28.027h14.252L674.4,392.12l10.177,17.685h14.243l8.526-28.027Z" transform="translate(-565.211 -364.46)" fill="#fff"/>
      <path id="Path_45727" data-name="Path 45727" d="M670.866,384.831c-.775,2.417-5.325,4.375-10.167,4.375s-8.143-1.958-7.368-4.375,5.334-4.376,10.176-4.376,8.135,1.959,7.359,4.376Z" transform="translate(-576.223 -374.163)" fill="#fff"/>
    </g>
    <g id="winter_icept" data-name="winter icept" transform="translate(0.002)">
      <path id="빼기_1" data-name="빼기 1" d="M0,63.446V63.44L19.366,0H66.485c9.262,0,15.551,2.159,18.689,6.416,2.82,3.833,3.115,9.433.879,16.649-2.475,8.115-6.837,14.3-12.975,18.382-5.908,3.929-13.463,5.922-22.462,5.922H32.506l-3.023,9.719L0,63.445Zm43.3-51.36L36.491,34.257H46.613c7.311,0,9.929-3.918,11.986-10.685,1.468-5,1.56-7.983.294-9.672-.939-1.254-2.65-1.814-5.553-1.814Z" transform="translate(496.208 19.333)" fill="#fff" stroke="rgba(0,0,0,0)" stroke-miterlimit="10" stroke-width="1"/>
      <path id="패스_45367" data-name="패스 45367" d="M932.746,170.6a6.059,6.059,0,0,1-5.452,4.137h-7.2l1.65,6.29c.586,1.977-.871,4.506-3.208,5.645s-4.573.461-5.159-1.516l-1.659-6.3-5.645,6.3c-1.751,1.977-4.472,2.655-6.03,1.516-1.659-1.139-1.558-3.668.193-5.645l5.544-6.29h-7.295c-2.245,0-3.509-1.851-2.823-4.137a6.036,6.036,0,0,1,5.353-4.129h7.295l-1.75-6.29c-.486-1.985.98-4.506,3.307-5.645s4.582-.469,5.168,1.507l1.651,6.3,5.554-6.3c1.75-1.977,4.471-2.647,6.13-1.507s1.558,3.66-.193,5.645l-5.553,6.29h7.2c2.337,0,3.6,1.851,2.923,4.129Z" transform="translate(-573.618 -147.179)" fill="#fff"/>
      <path id="패스_45368" data-name="패스 45368" d="M963.946,155.368H943.016c-26.475,0-30.855,16.148-30.855,16.148l-3.8,12.538c-5.544,18.334,19.473,19.649,19.473,19.649l5.938-.025h41.183l3.208-10.411H940c-10.418,0-8.567-7.639-8.567-7.639l.678-2.211h49.072l2.43-8.183c6.23-20.637-19.667-19.867-19.667-19.867Zm-3.793,17.957H935.236c2.428-8.032,11.382-8.108,11.382-8.108h6.624c11,0,6.91,8.108,6.91,8.108Z" transform="translate(-484.495 -137.01)" fill="#fff"/>
      <path id="패스_45369" data-name="패스 45369" d="M971.381,155.365H935.073c-26.575,0-30.955,16.148-30.955,16.148l-3.8,12.538c-5.443,18.334,19.574,19.649,19.574,19.649l5.938-.025h30.762l3.117-10.411H932.058c-10.419,0-8.668-7.639-8.668-7.639l.679-2.211,3.115-10.093c2.437-8.032,11.391-8.107,11.391-8.107h29.791l3.015-9.849Z" transform="translate(-543.625 -137.006)" fill="#fff"/>
      <path id="패스_45370" data-name="패스 45370" d="M979.379,205.2H968.666c-4.38,0-6.231-1.047-5.159-4.582l5.159-16.793h16.751l3.794-12.463H972.469l5.544-18.041L949.2,159.6l-3.6,11.759H927.1l5.16,12.463H941.8l-6.131,20.143c-3.208,10.528,1.952,14.749,15.872,14.749h20.244l7.6-13.518Z" transform="translate(-340.366 -152.067)" fill="#fff"/>
      <path id="패스_45372" data-name="패스 45372" d="M917.965,218.87H889.636l14.6-47.3,5.742-18.393h26.187L904.24,171.565h28.133l-14.409,47.3Z" transform="translate(-616.663 -153.173)" fill="#fff"/>
      <path id="패스_45373" data-name="패스 45373" d="M881.032,183.184l8.469-27.949H873.535l-8.47,27.949Z" transform="translate(-797.892 -137.966)" fill="#fff"/>
      <path id="패스_45374" data-name="패스 45374" d="M924.989,156.338a17.881,17.881,0,0,0-7.111-1.173,23.822,23.822,0,0,0-10.8,2.6l.588-2.018H891.7L883.22,183.7h15.972l4.573-15.227c1.165-3.417,3.9-4.531,7.791-4.531a10.187,10.187,0,0,1,6.716,2.337l6.717-9.942Z" transform="translate(-663.989 -138.481)" fill="#fff"/>
      <path id="패스_45375" data-name="패스 45375" d="M901.633,185.187s-4.281-.008-6.425-.008c-2.63,0-3.7-.628-3.115-2.756l3.115-10.118h10.026l2.437-7.5H897.544l3.309-10.863-15.083,3.786-2.245,7.077h-7.01l-2.337,7.5h7.111l-3.7,12.136c-1.944,6.34,1.173,8.887,9.541,8.887h9.933l4.573-8.141Z" transform="translate(-730.687 -147.531)" fill="#fff"/>
      <path id="패스_45376" data-name="패스 45376" d="M932.4,154.124H914.871l-12.266,22.4.1-22.4H886.933l-13.631,22.4,1.46-22.4H857.045l3.406,37.256h15.675l14.312-23.536-.2,23.536h15.968L932.4,154.124Z" transform="translate(-857.045 -146.162)" fill="#fff"/>
      <path id="패스_45377" data-name="패스 45377" d="M910.431,155.254h-12.07c-15.286,0-17.815,9.3-17.815,9.3l-2.143,7.22c-3.216,10.553,11.2,11.3,11.2,11.3l3.5-.008h23.653l1.85-6h-22c-5.938,0-4.958-4.389-4.958-4.389l.385-1.273h28.335l1.357-4.715c3.6-11.868-11.29-11.433-11.29-11.433ZM908.286,165.6H893.879c1.365-4.623,6.525-4.665,6.525-4.665h3.8c6.331,0,4.086,4.665,4.086,4.665Z" transform="translate(-702.974 -137.841)" fill="#fff"/>
      <path id="패스_45378" data-name="패스 45378" d="M905.95,155.235,900.6,172.863l-10.221-17.628H876.16l-8.469,27.949h14.114l5.453-17.628,10.125,17.628H911.6l8.566-27.949Z" transform="translate(-778.519 -137.966)" fill="#fff"/>
      <path id="패스_45412" data-name="패스 45412" d="M883.743,158.286c-.78,2.412-5.26,4.364-10.127,4.364-4.765,0-8.074-1.951-7.3-4.364s5.36-4.364,10.126-4.364c4.875,0,8.082,1.96,7.3,4.364Z" transform="translate(-789.508 -147.649)" fill="#fff"/>
    </g>
  </g>
</svg>
