<svg xmlns="http://www.w3.org/2000/svg" xmlns:xlink="http://www.w3.org/1999/xlink" width="960" height="192" viewBox="0 0 960 192">
  <defs>
    <style>
      .cls-1, .cls-3 {
        fill: none;
      }

      .cls-2 {
        clip-path: url(#clip-自定义大小_1);
      }

      .cls-3 {
        opacity: 0;
      }

      .cls-4 {
        clip-path: url(#clip-path);
      }

      .cls-5 {
        fill: #fff;
      }
    </style>
    <clipPath id="clip-path">
      <rect id="사각형_13614" data-name="사각형 13614" class="cls-1" width="280.28" height="106.487"/>
    </clipPath>
    <clipPath id="clip-自定义大小_1">
      <rect width="960" height="192"/>
    </clipPath>
  </defs>
  <g id="自定义大小_1" data-name="自定义大小 – 1" class="cls-2">
    <g id="logo-ion">
      <rect id="사각형_13172" data-name="사각형 13172" class="cls-3" width="960" height="192"/>
      <g id="그룹_12934" data-name="그룹 12934" transform="translate(339.86 69.514)">
        <g id="그룹_12933" data-name="그룹 12933" class="cls-4">
          <path id="패스_56369" data-name="패스 56369" class="cls-1" d="M30,0C22.613-.034,19.212,2.374,17.45,8.883l-2.233,8.745c-1.762,6.509.329,8.943,7.715,8.977,7.106.034,10.553-2.458,12.291-8.883l2.233-8.745C39.194,2.55,37.1.034,30,0" transform="translate(20.729 0.001)"/>
          <path id="패스_56370" data-name="패스 56370" class="cls-1" d="M27.6,12.753c-7.384-.034-10.785,2.374-12.547,8.883L.587,79.393C-1.173,85.9.918,88.336,8.3,88.37c7.106.034,10.553-2.458,12.293-8.885L35.059,21.73c1.738-6.427-.353-8.943-7.459-8.977" transform="translate(0 18.072)"/>
          <path id="패스_56371" data-name="패스 56371" class="cls-1" d="M82.245,10.943c-19.377,0-32.922,3.529-42.629,11.1-10.381,8.1-14.323,19.614-16.6,28.738C17.856,71.473,19.05,90.623,62.37,90.623s54.069-19.15,59.229-39.842c2.274-9.124,4.073-20.634-2.265-28.738-5.927-7.575-17.714-11.1-37.092-11.1M78.441,26.2c27.51,0,27.189,9.243,23.394,24.463C98,66.037,93.687,75.371,66.179,75.371c-27.4,0-27.044-9.335-23.211-24.709C46.763,35.442,51.046,26.2,78.441,26.2" transform="translate(29.609 15.507)"/>
          <path id="패스_56372" data-name="패스 56372" class="cls-1" d="M135.215,82.908c2.8,4.31,4.573,7.969,12,7.969h7.718c7.573,0,12.131-3.6,13.934-10.993l14.964-61.341c.836-3.432.254-7.527-7.285-7.527s-10.118,4.094-10.956,7.527L151.682,75.55,117.145,18.982c-3.016-5.052-4.6-7.966-12.124-7.966h-7.34c-7.657,0-12.257,3.6-14.06,10.993L68.164,83.162c-1.218,5,1.274,7.527,7.411,7.527,7.432,0,9.992-4.092,10.831-7.527L100.8,26.35l.065.007Z" transform="translate(96.164 15.611)"/>
        </g>
      </g>
    </g>
    <g id="组_1" data-name="组 1" transform="translate(135.794 -433.876)">
      <path id="路径_98" data-name="路径 98" class="cls-5" d="M353.655,510.513h-5.918c-5.658,0-9.209,2.33-10.546,6.926L323.246,565.83a2.008,2.008,0,0,1-1.615,1.425,1.806,1.806,0,0,1-1.875-.882L292.266,517.8c-2.683-4.855-4.029-7.288-10.983-7.288H267.929c-7.376,0-11.772,3.319-13.833,10.449l-18.377,61.885c-.58,2.01-.492,3.551.269,4.581.942,1.272,2.98,1.917,6.067,1.917H248c5.566,0,9.066-2.33,10.4-6.926l14.394-48.355a2.01,2.01,0,0,1,1.62-1.411,2.032,2.032,0,0,1,.288-.023,1.8,1.8,0,0,1,1.578.914L304.047,582.8c2.326,3.913,4.006,6.745,10.5,6.745h13.745c7.292,0,11.651-3.324,13.712-10.454l17.89-62.076c.566-1.991.455-3.533-.325-4.586C358.613,511.158,356.626,510.513,353.655,510.513Z" transform="translate(127.961 20.675)"/>
      <path id="路径_99" data-name="路径 99" class="cls-5" d="M216.844,589.549H206.631a6.423,6.423,0,0,1-6.174-8.193L219.5,515.163a6.424,6.424,0,0,1,6.174-4.651h10.212a6.424,6.424,0,0,1,6.174,8.193L223.017,584.9A6.428,6.428,0,0,1,216.844,589.549Z" transform="translate(0 20.671)"/>
      <path id="路径_100" data-name="路径 100" class="cls-5" d="M225.211,531.179h-8.9a7.4,7.4,0,0,1-7.116-9.437l3.514-12.259a6.414,6.414,0,0,1,6.169-4.647h10.2a6.415,6.415,0,0,1,6.169,8.183l-3.871,13.513A6.42,6.42,0,0,1,225.211,531.179Z" transform="translate(31.688 0)"/>
      <path id="路径_101" data-name="路径 101" class="cls-5" d="M314.653,557.425c-6.526,22.764-28.431,34.563-61.036,34.563s-47.746-11.8-41.215-34.563l3.625-12.645c6.494-22.657,29.35-34.563,61.036-34.563s47.714,11.906,41.215,34.563Zm-20.373-11.7c4.442-15.49-2.929-21.812-21.144-21.812s-29.211,6.322-33.654,21.812l-3.082,10.75c-4.475,15.6,2.929,21.812,21.144,21.812s29.184-6.215,33.654-21.812Z" transform="translate(38.987 19.597)"/>
    </g>
  </g>
</svg>
