<svg id="logo-ventus" xmlns="http://www.w3.org/2000/svg" width="960" height="192" viewBox="0 0 960 192">
  <rect id="사각형_13172" data-name="사각형 13172" width="960" height="192" fill="#fff" opacity="0"/>
  <g id="logo_ventus" transform="translate(176 98)">
    <path id="패스_1" data-name="패스 1" d="M153.235,156.614l-33.313,44.2-16.849-44.2h-32.3l17.569,46.127h.01c2.851,8.129,10.733,17.431,26.3,17.431h22.985l47.913-63.558Z" transform="translate(-70.776 -142.172)" fill="#fff"/>
    <path id="패스_2" data-name="패스 2" d="M157.838,169.592H125.6c-34.694,0-39.32,21.13-39.32,21.13l-4.094,16.415c-5.948,23.991,26.95,25.717,26.95,25.717l7.793-.049H178.08l3.433-13.613H124.279c-13.623,0-11.788-9.993-11.788-9.993l.74-2.9H184.8l2.663-10.713c6.708-27.009-29.623-25.993-29.623-25.993m-3.62,23.5h-37.6c2.624-10.506,14.353-10.614,14.353-10.614h13.554c14.383,0,9.7,10.614,9.7,10.614m378.051-10.8h47.6l3.216-12.706H542.755v.01H525.887c-30.215,0-34.25,18.4-34.25,18.4l-.878,3.541h.02c-.848,9.016,5.929,13.9,15.8,13.9H544.1c4,0,5.909,2.407,4.35,5.426-2.121,4.074-8.8,5.435-13.593,5.435h-48.7L481.979,232.8h61.989c30.186,0,34.22-18.4,34.22-18.4l.878-3.5c1.45-9.963-4.843-18.3-15.024-18.3H525.759c-3.088,0-6.224-1.638-3.916-5.4,3.768-4.863,10.427-4.922,10.427-4.922m-78.749-12.7-10.17,40.632h-.01l-2.229,8.967H422c-8.267,0-13.712-4.449-12.143-9.855l10.072-39.745h-68.2l3.7-14.442h-34.25L306.7,212.513c-3.245,11.147,8.592,20.292,26.319,20.292h20.943l3.433-13.613H353.6c-8.257,0-13.732-4.439-12.143-9.845l6.955-26.822h34.26l-7.586,29.988C371.851,223.66,383.7,232.8,401.425,232.8h68.52L485.9,169.592Zm-190.357,40.09-25.244-40.09h-32.3l-16.06,63.558h32.306l10.121-40.09,25.253,40.09h32.3l16.04-63.558h-32.3l-10.121,40.09Z" transform="translate(23.997 -155.15)" fill="#fff"/>
  </g>
</svg>
