<svg id="logo-kinergy" xmlns="http://www.w3.org/2000/svg" width="960" height="192" viewBox="0 0 960 192">
  <rect id="사각형_13172" data-name="사각형 13172" width="960" height="192" fill="#fff" opacity="0"/>
  <g id="logo_kinergy" transform="translate(215 66)">
    <path id="패스_45331" data-name="패스 45331" d="M680.807,154.928c-1.464,0-23.823-.051-23.823-.051l-29.917,23.728s5.552-23.014,5.715-23.677H612.454c-.095.4-16.765,69.593-16.929,70.264h20.32c.086-.4,5.981-24.855,5.981-24.855l.31.37s19.718,24.357,19.718,24.485h26.44c-.724-.886-29.943-36.887-29.943-36.887s41.217-32.421,42.457-33.376Z" transform="translate(-595.525 -115.279)" fill="#fff"/>
    <path id="패스_45332" data-name="패스 45332" d="M624.949,225.147c.1-.4,16.773-69.592,16.937-70.264H621.566c-.086.4-16.775,69.592-16.938,70.264Z" transform="translate(-526.284 -115.233)" fill="#fff"/>
    <path id="패스_45333" data-name="패스 45333" d="M688.839,161.321c-2.952-4.277-8.52-6.438-16.541-6.438H625.486c-.1.4-16.791,69.592-16.946,70.264h20.329c.1-.4,13.357-55.452,13.357-55.452h17.325c4.373,0,7.273,1.119,8.866,3.417a9.474,9.474,0,0,1,1.4,5.431,30.854,30.854,0,0,1-1.006,6.98s-9.4,38.953-9.554,39.625H679.57c.094-.4,10.474-43.42,10.474-43.42a45.042,45.042,0,0,0,1.429-10.448c0-4.114-.878-7.41-2.634-9.958Z" transform="translate(-496.528 -115.233)" fill="#fff"/>
    <path id="패스_45334" data-name="패스 45334" d="M648.517,183.491l1.3-5.4c1.808-7.531,6.4-11.343,13.624-11.343h35.33c.095-.379,2.7-11.223,2.857-11.86h-44.84c-13.779,0-23.539,7.643-26.748,20.957,0,0-11.723,48.636-11.886,49.307H684.69c.1-.379,2.711-11.223,2.857-11.86H641.339l4.037-16.757H685.7c.095-.387,3-12.4,3.142-13.039Z" transform="translate(-423.404 -115.233)" fill="#fff"/>
    <path id="패스_45335" data-name="패스 45335" d="M637.942,190.024a33.921,33.921,0,0,0-.973,7.961,26.476,26.476,0,0,0,4.51,15.173c5.345,7.729,14.666,11.989,26.259,11.989H701.7c.1-.4,9.9-41.036,10.044-41.656H679.322c-.086.379-2.985,12.394-3.15,13.039H688.29l-4.045,16.757h-7.918c-8.108,0-13.392-1.936-16.138-5.93a14.591,14.591,0,0,1-2.264-8.512,38.836,38.836,0,0,1,1.2-8.839c3.9-16.094,12.617-23.264,28.281-23.264h25.433c.1-.379,2.711-11.223,2.875-11.86H684.8c-21.886,0-42.034,15.113-46.862,35.14Z" transform="translate(-280.282 -115.233)" fill="#fff"/>
    <path id="패스_45336" data-name="패스 45336" d="M669.875,154.883h-19.4L666.682,200.9s-19.546,23.375-20.277,24.245c1.05.009,20.113.086,20.113.086s58.008-69.446,58.766-70.35H705.17c-.145.172-24.8,29.65-24.8,29.65S670,155.227,669.875,154.883Z" transform="translate(-208.504 -115.233)" fill="#fff"/>
    <path id="패스_45337" data-name="패스 45337" d="M681.989,154.883H643.94c-.1.4-16.784,69.592-16.939,70.264H647.33c.086-.4,14.356-59.574,14.356-59.574h9.14l2.574-.009c7.392-.051,13.77-.095,16.343,3.6,1.257,1.816,1.471,4.364.637,7.815-2.659,11.016-12.79,10.93-22.593,10.836l-2.677-.017h-6.653c.4.783,18.478,37.077,18.608,37.352h22.471c-.414-.783-14.9-28.617-14.9-28.617h.43c13.177,0,22.473-7.221,25.5-19.812a27.522,27.522,0,0,0,.844-6.369,13.165,13.165,0,0,0-2.169-7.694c-3.709-5.379-12.108-7.772-27.257-7.772Z" transform="translate(-356.102 -115.233)" fill="#fff"/>
    <path id="패스_45338" data-name="패스 45338" d="M622.767,152.344l-2.3,9.539H721.022l2.3-9.539Z" transform="translate(-405.817 -134.547)" fill="#fff"/>
    <path id="패스_45339" data-name="패스 45339" d="M753.753,157.6l-4.939-7.324c-14.821,11.1-32.06,17.747-49.3,17.747l-52.7.017-2.315,9.57,53.748-.008c19.6,0,38.961-7.41,55.5-20Z" transform="translate(-222.983 -150.276)" fill="#fff"/>
    <path id="패스_45340" data-name="패스 45340" d="M634.8,152.344l-2.3,9.539H733.052l2.3-9.539Z" transform="translate(-314.313 -134.547)" fill="#fff"/>
  </g>
</svg>
