<svg id="logo-dynapro" xmlns="http://www.w3.org/2000/svg" width="960" height="192" viewBox="0 0 960 192">
  <rect id="사각형_13172" data-name="사각형 13172" width="960" height="192" fill="#fff" opacity="0"/>
  <path id="logo_dynapro" d="M103.543,80l2.55-10.039h42.38c6.245,0,7.363-2.384,8.512-6.924l.651-2.6H130.744c-17.532,0-20.944-6.734-17.452-20.513l7.73-30.57h31.56L144.1,42.826c-1.383,5.511-1.13,7.977,6.116,7.977h4.366c5.618,0,6.4-4.039,7.423-7.574l8.568-33.871h31.445L189.079,60.441l-.665,3.089C184.346,79.608,172.8,79.685,156.574,80Zm297.515-.28L419.017,9.647H481.8c12.147,0,21.594,2.168,18.5,14.391l-5.377,21.247c-3.017,11.9-13.252,14.29-25.755,14.29H439.357L434.124,79.72Zm41.193-31.539h12.6c8.015,0,8.713-2.283,10.184-8.076l3.25-12.845c1.09-4.246.7-6.227-4.926-6.227H449.123ZM255.74,70.221l11.3-44.908c1.047-4.158.844-6.322-4.773-6.322h-5.736c-4.259,0-5.8,1.655-6.645,4.969l-11.54,46.261H206.809L222.035,9.358h61.086c13.009,0,17.894,6.419,15.241,16.884L287.494,70.221Zm99.9,0h-31.56c-12.138,0-18.21-3.219-15.455-14.094l2.672-12.648c2.025-8,9.729-11.714,18.614-11.714H364.13l2.372-9.248c.847-3.321-2.481-3.526-5.737-3.526H326.523l2.45-9.627,54.445-.1c10.482.1,16.253,5.9,14.046,14.6L385.857,70.216Zm-14.208-22.4-2.016,6.227c-1.091,4.365-.14,6.534,5.48,6.534h11.938l4.915-19.279H351.9C346.145,41.295,342.55,43.362,341.427,47.813ZM0,70.216,17.792,0H83.519c15.507,0,19.635,8.314,16.649,20.1L92.577,50.109c-2.97,11.679-10.945,20.107-26.836,20.107ZM36.509,58.623H48.44c7.756,0,8.933-2.624,10.342-8.215L66.55,19.8c1.416-5.593,1.563-8.228-6.185-8.228H48.425ZM630.215,70.1c-13.379,0-20.533-10.919-19.057-18.17l7.056-28.485c2.127-8.407,16.6-14.211,26.5-14.211l31.714.02c14.128,0,25.513,8.261,24.012,16.15L693.659,52.8C691.3,62.125,678.037,70.1,666.4,70.1Zm18.655-41.687-5.136,21.67c-.558,2.58,2.192,5.837,7.575,5.837h1.627c5.506,0,9.633-3.208,10.433-6.463l4.364-18.437c.92-3.733-.678-6.979-6.685-6.979h-2.114C654.3,24.043,651.336,24.043,648.869,28.415ZM561.989,70.1,554.5,49.957H542.091L536.858,70.1H503.8L519.6,9.235h64.52c12.147,0,21.593,2.171,18.5,14.4l-3.23,12.038c-1.836,7.236-6.345,10.947-12.405,12.745L595.051,70.1Zm-17-31.535h12.605c8.012,0,8.71-2.285,10.184-8.078l1.1-3.638c1.087-4.251.7-6.225-4.929-6.225H549.71Z" transform="translate(130 106)" fill="#fff"/>
</svg>
