<svg xmlns="http://www.w3.org/2000/svg" xmlns:xlink="http://www.w3.org/1999/xlink" width="372" height="28" viewBox="0 0 372 28">
  <defs>
    <clipPath id="clip-path">
      <rect id="사각형_12435" data-name="사각형 12435" width="372" height="28" transform="translate(0 4569)" fill="#fff" opacity="0"/>
    </clipPath>
    <clipPath id="clip-path-2">
      <rect id="사각형_13579" data-name="사각형 13579" width="299.386" height="23.394" fill="none"/>
    </clipPath>
  </defs>
  <g id="logo_ventus_s1_evo3" transform="translate(0 -4569)" clip-path="url(#clip-path)">
    <g id="그룹_12885" data-name="그룹 12885" transform="translate(0 4571.697)">
      <g id="그룹_12885-2" data-name="그룹 12885" transform="translate(0 -0.394)" clip-path="url(#clip-path-2)">
        <path id="패스_56055" data-name="패스 56055" d="M296.039,4.583H263.694l-.576,1.88h-7.429l-.8,2.623h5.641l-.64,2.1h-5.641l-1.46,4.787h-2.76L253.1,5.936a2.212,2.212,0,0,1,1.3-1.353h-.669a5.261,5.261,0,0,0-4.679,3.58l-2.188,7.165a2.558,2.558,0,0,0,2.491,3.58h42.308a5.261,5.261,0,0,0,4.679-3.58l2.188-7.165a2.557,2.557,0,0,0-2.486-3.58M268.056,15.968h-4.933a1.058,1.058,0,0,1-1.026-1.48l2.213-7.234,2.75-1.182-2.525,8.264h5.046Zm11.786,0H271.6a1.058,1.058,0,0,1-1.031-1.48l1.983-6.477a2.172,2.172,0,0,1,1.929-1.48h7.3a1.058,1.058,0,0,1,1.031,1.48l-.884,2.887A2.173,2.173,0,0,1,280,12.378h-5.573l1.524-1.626h3.146a.964.964,0,0,0,.86-.659l.376-1.231a.471.471,0,0,0-.454-.659h-4.5a.729.729,0,0,0-.645.493L273.6,12.378l-.405,1.333a.352.352,0,0,0,.342.493h6.838Zm10.238-5.109,3.907,5.109h-3.243L288.1,12.442l-4.5,3.526h-2.8l6.281-4.84-3.487-4.6h3.17l2.325,3.058L293.1,6.532h2.735Z" transform="translate(-126.2 -2.345)" fill="#fff"/>
        <path id="패스_56056" data-name="패스 56056" d="M376.556,22.387l-.7-3.933H365.319l-3.109,3.933H351.778L371.363,0h9.831l5.9,22.387ZM374.8,12.057a41.1,41.1,0,0,1-.546-5.6c-.911,1.5-1.844,2.75-3.969,5.6l-1.1,1.472H375Z" transform="translate(-179.958 0)" fill="#fff"/>
        <path id="패스_56057" data-name="패스 56057" d="M450.081,22.387l2.7-8.826H441.845l-2.7,8.826h-9.931L436.059,0h9.932L443.5,8.155h10.934L456.925,0h9.931l-6.844,22.387Z" transform="translate(-219.572 0)" fill="#fff"/>
        <path id="패스_56058" data-name="패스 56058" d="M578.162,22.387l4.712-15.414h-5.919l1.2-3.933c4.563-.16,6.613-.96,8.252-3.039h8.125l-6.844,22.387Z" transform="translate(-295.151 0)" fill="#fff"/>
        <path id="패스_56059" data-name="패스 56059" d="M16.234,11.1C11.99,10.363,11.082,9.969,11.38,9,11.6,8.275,12.823,7.5,15.6,7.5a7.905,7.905,0,0,1,5.7,2.014l.151.14,5.7-3.22-.284-.269c-2.328-2.212-5.4-3.242-9.66-3.242-6.23,0-11.365,2.567-12.489,6.244-1.366,4.468,2.679,5.555,7.312,6.354,5.237.882,5.67,1.441,5.37,2.422-.266.87-1.1,1.869-5.234,1.869-2.914,0-5.079-.751-6.436-2.233l-.143-.156L0,20.365l.187.284c1.555,2.361,5.383,3.769,10.239,3.769,10.1,0,12.9-4.237,13.672-6.763,1.39-4.546-3.122-5.731-7.863-6.556" transform="translate(0 -1.497)" fill="#fff"/>
        <path id="패스_56060" data-name="패스 56060" d="M66.573,29.421l2.7-8.373-8.258,8.675-2.989-8.675L55.6,29.421H49.436l4.791-15.671H60.02l3.151,8.91,8.632-8.91h5.725L72.736,29.421Z" transform="translate(-25.29 -7.035)" fill="#fff"/>
        <path id="패스_56061" data-name="패스 56061" d="M117.407,29.074l.319-1.044a12.346,12.346,0,0,1-5.748,1.372c-4.426,0-8.539-1.79-7.378-5.583,1.058-3.463,6.066-5.194,11.44-5.194a12.384,12.384,0,0,1,4.369.627l.237-.777c.338-1.106-1.023-1.883-3.281-1.883a29.154,29.154,0,0,0-8.423,1.28l-.351-3.218a28.913,28.913,0,0,1,9.848-1.583c5.734,0,9.865,1.5,8.789,5.025l-3.357,10.978Zm1.933-6.334a8.346,8.346,0,0,0-4.1-.775c-2.349,0-3.8.6-4.178,1.853-.336,1.106.345,1.973,3.01,1.973a8.033,8.033,0,0,0,4.772-1.433Z" transform="translate(-53.409 -6.687)" fill="#fff"/>
        <path id="패스_56062" data-name="패스 56062" d="M164.551,29.422l-4.009-5.283H157.9l-1.614,5.283h-6.469l4.793-15.671h10.6c5.553,0,8.819,1.388,7.683,5.1-.717,2.351-2.823,3.807-5.668,4.589l4.676,5.979Zm-.594-12.134h-3.962l-1.047,3.426h3.862c2.132,0,3.171-.628,3.513-1.747.3-.985-.3-1.679-2.366-1.679" transform="translate(-76.641 -7.035)" fill="#fff"/>
        <path id="패스_56063" data-name="패스 56063" d="M212.332,17.533,208.7,29.421h-6.569l3.635-11.888h-5.755l-1.49-3.782h21.608l-1.156,3.782Z" transform="translate(-101.555 -7.035)" fill="#fff"/>
        <path id="패스_56064" data-name="패스 56064" d="M515.226,23.958a35.308,35.308,0,0,1-14.546-2.733l5.49-4.661a29.236,29.236,0,0,0,10.894,2.217c4.631,0,6.652-1.06,7.2-2.861.53-1.735-.943-2.636-4.029-2.636a17.62,17.62,0,0,0-7.029,1.286l-7.989-1.8,4.8-11.67h26.233L534.7,6.18H516.545L515.283,9.3a28.073,28.073,0,0,1,8.074-1c7.766,0,12.111,2.443,10.579,7.458-1.6,5.239-8.475,8.2-18.71,8.2" transform="translate(-256.131 -0.563)" fill="#fff"/>
      </g>
    </g>
  </g>
</svg>
