<svg xmlns="http://www.w3.org/2000/svg" xmlns:xlink="http://www.w3.org/1999/xlink" width="372" height="28" viewBox="0 0 372 28">
  <defs>
    <clipPath id="clip-path">
      <rect id="사각형_13291" data-name="사각형 13291" width="372" height="28" transform="translate(320.442 855.18)" fill="none"/>
    </clipPath>
    <clipPath id="clip-path-2">
      <rect id="사각형_13317" data-name="사각형 13317" width="345.226" height="25.884" fill="none"/>
    </clipPath>
  </defs>
  <g id="bi_Smart_Touring_AL22" data-name="bi_Smart Touring AL22" transform="translate(-320.442 -855.18)" clip-path="url(#clip-path)">
    <g id="그룹_11505" data-name="그룹 11505" transform="translate(322.272 856.25)">
      <g id="그룹_11504" data-name="그룹 11504" transform="translate(-1)" clip-path="url(#clip-path-2)">
        <path id="패스_55463" data-name="패스 55463" d="M831.413,33.852c2.377-6.861,8.553-10.177,17.385-12.444,3.734-.959,4.344-1.279,4.593-2.093.275-.9-.6-1.4-3.2-1.4a29.447,29.447,0,0,0-10.3,2.065l-2.868-4.157a42.022,42.022,0,0,1,14.761-2.646c8.092,0,11.7,2.035,10.574,5.728-.818,2.675-2.8,4.3-9.587,6.105-7.089,1.889-9.25,3.023-10.32,4.245H859.42l-1.406,4.594Z" transform="translate(-546.582 -8.665)" fill="#fff"/>
        <path id="패스_55464" data-name="패스 55464" d="M916.806,33.852c2.378-6.861,8.554-10.177,17.386-12.444,3.734-.959,4.345-1.279,4.592-2.093.276-.9-.595-1.4-3.2-1.4a29.457,29.457,0,0,0-10.306,2.065l-2.868-4.157a42.024,42.024,0,0,1,14.761-2.646c8.092,0,11.7,2.035,10.573,5.728-.817,2.675-2.8,4.3-9.586,6.105-7.088,1.889-9.249,3.023-10.32,4.245h16.975l-1.405,4.594Z" transform="translate(-602.72 -8.665)" fill="#fff"/>
        <path id="패스_55465" data-name="패스 55465" d="M673.265,34.463l-.674-3.577h-9.767l-2.86,3.577H650.29L668.326,14.11h9.115l5.59,20.353Zm-1.687-9.392a36.827,36.827,0,0,1-.539-5.089c-.837,1.366-1.694,2.5-3.649,5.089l-1.014,1.337h5.4Z" transform="translate(-427.509 -9.276)" fill="#fff"/>
        <path id="패스_55466" data-name="패스 55466" d="M752.653,34.464l6.223-20.353h9.115l-4.72,15.44h14.415l-1.5,4.914Z" transform="translate(-494.803 -9.276)" fill="#fff"/>
        <path id="패스_55467" data-name="패스 55467" d="M421.571,4.991l-3.63,11.871h-2.309l3.63-11.871h-6.095l.41-1.338h14.5l-.41,1.338Z" transform="translate(-271.621 -2.402)" fill="#fff"/>
        <path id="패스_55468" data-name="패스 55468" d="M446.124,23.008c-3.786,0-6.139-1.794-5.111-5.152s4.6-5.172,8.385-5.172,6.159,1.736,5.129,5.1-4.615,5.228-8.4,5.228m2.84-9.1a5.533,5.533,0,0,0-5.691,3.9c-.8,2.6.594,3.964,3.286,3.964a5.639,5.639,0,0,0,5.738-3.964c.8-2.6-.64-3.9-3.333-3.9" transform="translate(-289.768 -8.338)" fill="#fff"/>
        <path id="패스_55469" data-name="패스 55469" d="M492.221,23.194l.371-1.206a6.3,6.3,0,0,1-4.157,1.415c-3.283,0-5.067-1.228-4.2-4.08l1.848-6.04h2.222l-1.774,5.8c-.651,2.131.238,3.094,2.724,3.094a3.963,3.963,0,0,0,4.226-3.094l1.771-5.8h2.219l-3.032,9.909Z" transform="translate(-318.199 -8.733)" fill="#fff"/>
        <path id="패스_55470" data-name="패스 55470" d="M561.013,16.946l3.031-9.908h2.219l-3.028,9.908ZM565.651,5.8c-.918,0-1.49-.452-1.323-1a2.019,2.019,0,0,1,1.939-1.022c.828,0,1.4.455,1.227,1.022a1.972,1.972,0,0,1-1.848,1" transform="translate(-368.817 -2.486)" fill="#fff"/>
        <path id="패스_55471" data-name="패스 55471" d="M584.525,22.8l1.77-5.792c.653-2.135.329-3.1-2.155-3.1-2.161,0-4.13.924-4.793,3.1l-1.77,5.792h-2.219l3.03-9.909h2.219l-.371,1.209a8.024,8.024,0,0,1,4.723-1.415c3.283,0,4.5,1.232,3.631,4.08L586.743,22.8Z" transform="translate(-378.247 -8.338)" fill="#fff"/>
        <path id="패스_55472" data-name="패스 55472" d="M619.085,26.437,618.7,25.36c5.206-.1,6.655-.963,7.361-3.266l.154-.508A10.117,10.117,0,0,1,621.109,23c-3.108,0-5.1-1.51-4.033-5a7.585,7.585,0,0,1,7.484-5.323A5.419,5.419,0,0,1,628.536,14l.34-1.116h2.22L628.338,21.9c-.912,2.984-3.452,4.418-9.254,4.533m9.029-11.042a4.567,4.567,0,0,0-3.747-1.488c-2.576,0-4.279,1.414-5.093,4.075-.761,2.49.321,3.793,2.776,3.793a8.443,8.443,0,0,0,4.55-1.435Z" transform="translate(-405.484 -8.332)" fill="#fff"/>
        <path id="패스_55473" data-name="패스 55473" d="M531.107,18.894l1.944,4.3h-2.469L528.7,18.981h-3.317L524.093,23.2h-2.214l3.018-9.909h6.8c2.6,0,4.336.895,3.755,2.8-.47,1.54-2.137,2.505-4.34,2.8m-.349-4.6h-3.953l-1.125,3.7h3.741c2.2,0,3.42-.61,3.8-1.855.371-1.215-.5-1.837-2.463-1.837" transform="translate(-343.09 -8.735)" fill="#fff"/>
        <path id="패스_55475" data-name="패스 55475" d="M502.7,39.618c-.912,2.984-4.43,5.62-9.106,6.159a64.591,64.591,0,0,1-11.689.777c-8.859-.237,7.792-2.58-14.477-3.119-11.664-.283-41.754,3.185-41.754,3.185a205.05,205.05,0,0,1,21.674-3.377,234.939,234.939,0,0,1,32.064-.829c11.983.575,13.651.661,13.651.661L498.4,42.9Z" transform="translate(-279.843 -26.045)" fill="#fff"/>
        <path id="패스_55476" data-name="패스 55476" d="M19.554,9.844c-5.112-.888-6.2-1.361-5.846-2.533.265-.87,1.738-1.8,5.081-1.8a9.523,9.523,0,0,1,6.866,2.426l.181.17L32.7,4.229l-.341-.323C29.545,1.241,25.849,0,20.716,0c-7.5,0-13.687,3.092-15.04,7.518C4.03,12.9,8.9,14.211,14.482,15.174c6.307,1.059,6.828,1.734,6.467,2.915-.32,1.047-1.326,2.251-6.3,2.251-3.509,0-6.116-.905-7.751-2.694l-.172-.187L0,21l.225.343c1.872,2.844,6.482,4.542,12.33,4.542,12.163,0,15.535-5.1,16.465-8.144,1.674-5.477-3.76-6.9-9.469-7.9" fill="#fff"/>
        <path id="패스_55477" data-name="패스 55477" d="M105.515,37.457l3.244-10.085-9.941,10.45-3.6-10.45L92.3,37.457H84.877l5.774-18.872h6.976l3.8,10.729,10.393-10.729h6.9l-5.774,18.872Z" transform="translate(-55.799 -12.219)" fill="#fff"/>
        <path id="패스_55478" data-name="패스 55478" d="M194.917,36.688l.385-1.259a14.862,14.862,0,0,1-6.922,1.652c-5.33,0-10.283-2.156-8.885-6.723,1.274-4.171,7.306-6.256,13.78-6.256a14.908,14.908,0,0,1,5.261.754l.286-.935c.406-1.331-1.232-2.269-3.951-2.269a35.091,35.091,0,0,0-10.144,1.54l-.423-3.875a34.806,34.806,0,0,1,11.861-1.906c6.9,0,11.881,1.807,10.584,6.051l-4.043,13.222Zm2.329-7.627a10.057,10.057,0,0,0-4.935-.933c-2.828,0-4.571.724-5.03,2.232-.4,1.331.415,2.376,3.624,2.376a9.676,9.676,0,0,0,5.748-1.726Z" transform="translate(-117.845 -11.449)" fill="#fff"/>
        <path id="패스_55479" data-name="패스 55479" d="M274.973,37.457l-4.828-6.363h-3.182l-1.943,6.363h-7.791L263,18.585h12.762c6.687,0,10.619,1.672,9.251,6.146-.862,2.83-3.4,4.584-6.825,5.526l5.632,7.2Zm-.717-14.613h-4.773l-1.259,4.127h4.651c2.567,0,3.818-.757,4.234-2.1.361-1.187-.359-2.022-2.848-2.022" transform="translate(-169.106 -12.219)" fill="#fff"/>
        <path id="패스_55480" data-name="패스 55480" d="M357.486,23.139l-4.378,14.319H345.2l4.378-14.319h-6.928l-1.794-4.554h26.02l-1.393,4.554Z" transform="translate(-224.079 -12.219)" fill="#fff"/>
      </g>
    </g>
  </g>
</svg>
