<svg xmlns="http://www.w3.org/2000/svg" xmlns:xlink="http://www.w3.org/1999/xlink" width="496" height="52" viewBox="0 0 496 52">
  <defs>
    <clipPath id="clip-path">
      <rect id="Rectangle_13291" data-name="Rectangle 13291" width="496" height="52" transform="translate(320.442 855.18)" fill="none" stroke="#707070" stroke-width="1"/>
    </clipPath>
  </defs>
  <g id="bi_SMaRT_CONTROL_TW01" data-name="bi_SMaRT CONTROL TW01" transform="translate(-320.442 -855.18)" clip-path="url(#clip-path)">
    <g id="Group_12942" data-name="Group 12942" transform="translate(277.923 433.785)">
      <path id="Path_56246" data-name="Path 56246" d="M169.112,463c-8.5,0-14.056-4.208-14.056-9.778,0-5.646,5.812-9.828,14.2-9.828,4.769,0,8.348.978,11.079,3.043l-3.623,1.276c-2.233-1.658-3.779-2.392-7.555-2.392-5.96,0-8.6,3.233-8.607,7.846,0,4.646,2.795,7.906,8.659,7.906a12.363,12.363,0,0,0,8.049-2.494l3.225,1.272c-2.532,1.875-6.307,3.15-11.375,3.15" transform="translate(64.344 0.677)" fill="#868686"/>
      <path id="Path_56247" data-name="Path 56247" d="M174.092,462.846V448.587h4.81l0,14.259Zm2.48-16.812c-1.543,0-3.274-.652-3.274-1.438,0-.816,1.73-1.468,3.274-1.468,1.389,0,3.125.652,3.128,1.468,0,.786-1.738,1.438-3.128,1.438" transform="translate(74.774 0.528)" fill="#868686"/>
      <path id="Path_56248" data-name="Path 56248" d="M186.647,450.326l0,9.291c0,1.275.646,1.712,2.633,1.712a10.754,10.754,0,0,0,3.133-.409l-.25,1.765a20.454,20.454,0,0,1-4.814.489c-3.23,0-5.514-.869-5.514-3.228v-9.619H178.61l0-1.71h3.228v-4.4l4.813-1.14v5.539h5.916l0,1.71Z" transform="translate(77.809 0.499)" fill="#868686"/>
      <path id="Path_56249" data-name="Path 56249" d="M197.037,465.885h-5.715L194.9,460.7l-6.366-14.1H193l3.282,7.485-.159,5.562,1.558-2.675,7.885-10.372h5.913Z" transform="translate(83.483 2.513)" fill="#868686"/>
      <path id="Path_56250" data-name="Path 56250" d="M66.078,454.067c-6.16-1.07-7.475-1.641-7.046-3.052.322-1.047,2.1-2.164,6.12-2.164a11.473,11.473,0,0,1,8.272,2.919l.222.2,8.264-4.67-.409-.391c-3.381-3.211-7.834-4.707-14.02-4.707-9.039,0-16.491,3.727-18.119,9.06-1.984,6.484,3.885,8.062,10.609,9.221,7.6,1.283,8.227,2.092,7.793,3.516-.387,1.261-1.6,2.71-7.595,2.71-4.23,0-7.37-1.089-9.339-3.238l-.207-.226-8.1,4.267.273.409c2.255,3.426,7.81,5.47,14.858,5.47,14.652,0,18.718-6.146,19.837-9.814,2.017-6.6-4.53-8.316-11.409-9.512" transform="translate(0 0)" fill="#868686"/>
      <path id="Path_56251" data-name="Path 56251" d="M89.681,469.827l3.912-12.151-11.985,12.59-4.336-12.59-3.518,12.151H64.813l6.953-22.74h8.4l4.574,12.929,12.527-12.929h8.305l-6.953,22.74Z" transform="translate(12.747 2.791)" fill="#868686"/>
      <path id="Path_56252" data-name="Path 56252" d="M108.469,470l.465-1.515a17.916,17.916,0,0,1-8.34,1.99c-6.422,0-12.392-2.6-10.707-8.1,1.532-5.026,8.8-7.538,16.6-7.538a18,18,0,0,1,6.342.908l.343-1.125c.492-1.606-1.482-2.735-4.758-2.735a42.4,42.4,0,0,0-12.224,1.858l-.511-4.668a41.992,41.992,0,0,1,14.292-2.3c8.322,0,14.314,2.175,12.753,7.291L117.85,470Zm2.807-9.192a12.1,12.1,0,0,0-5.946-1.124c-3.408,0-5.507.872-6.064,2.691-.486,1.6.5,2.862,4.368,2.862a11.674,11.674,0,0,0,6.927-2.079Z" transform="translate(26.919 2.616)" fill="#868686"/>
      <path id="Path_56253" data-name="Path 56253" d="M131.457,469.827l-5.815-7.667h-3.834l-2.343,7.667h-9.39l6.958-22.74H132.41c8.057,0,12.8,2.015,11.148,7.4-1.042,3.411-4.1,5.525-8.225,6.658l6.787,8.678ZM130.6,452.22h-5.751l-1.515,4.971h5.6c3.092,0,4.6-.912,5.1-2.535.435-1.429-.434-2.436-3.433-2.436" transform="translate(38.626 2.791)" fill="#868686"/>
      <path id="Path_56254" data-name="Path 56254" d="M152.085,452.576l-5.276,17.252h-9.533l5.275-17.252H134.2l-2.163-5.489h31.355l-1.68,5.489Z" transform="translate(51.183 2.791)" fill="#868686"/>
      <path id="Path_56255" data-name="Path 56255" d="M232.067,470.48l-.791-4.19H219.834l-3.351,4.19H205.152l21.126-23.834h10.677l6.553,23.834Zm-1.977-11a43.077,43.077,0,0,1-.63-5.957c-.979,1.6-1.985,2.927-4.275,5.957L224,461.046h6.323Z" transform="translate(92.987 2.539)" fill="#868686"/>
      <path id="Path_56256" data-name="Path 56256" d="M245.484,470.854c-9.588,0-15.7-3-13.388-10.557l4.171-13.651h10.789L242.883,460.3c-.894,2.928.4,4.736,4.547,4.736s6.435-1.807,7.329-4.736l4.175-13.651h10.789L265.548,460.3c-2.312,7.56-10.471,10.557-20.063,10.557" transform="translate(108.112 2.539)" fill="#868686"/>
      <path id="Path_56257" data-name="Path 56257" d="M269.831,470.556c-10.559,0-16.752-4.23-13.82-11.989s12.453-12.057,23.009-12.057c10.59,0,16.753,4.231,13.82,11.989s-12.455,12.057-23.009,12.057m6.993-18.484A9.247,9.247,0,0,0,267.6,458.5c-1.6,4.264.1,6.493,4.461,6.493a9.3,9.3,0,0,0,9.225-6.425c1.6-4.261-.1-6.495-4.462-6.495" transform="translate(121.65 2.461)" fill="#868686"/>
      <path id="Path_56258" data-name="Path 56258" d="M298.036,459.7c-4.583,0-7.1,1.1-7.662,2.931-.511,1.666,1.158,2.831,5.688,2.831,3.89,0,6.806-1,7.376-2.864.55-1.8-1.459-2.9-5.4-2.9m-4.065,10.858c-9.38,0-14.894-3.23-12.928-9.658,1.883-6.161,10.9-14.386,32.215-14.386l-1.617,5.3c-9.753,0-15.419,1.8-19.069,4.5a31.494,31.494,0,0,1,10.011-1.366c7.727,0,12.459,2.3,10.954,7.227-1.609,5.262-9.014,8.393-19.565,8.393" transform="translate(136.152 2.461)" fill="#868686"/>
    </g>
  </g>
</svg>
