<svg xmlns="http://www.w3.org/2000/svg" xmlns:xlink="http://www.w3.org/1999/xlink" width="496" height="52" viewBox="0 0 496 52">
  <defs>
    <clipPath id="clip-path">
      <rect id="사각형_12017" data-name="사각형 12017" width="496" height="52" transform="translate(320.442 855.18)" fill="none" stroke="#707070" stroke-width="1"/>
    </clipPath>
  </defs>
  <g id="bi_Dynapro_HL3" data-name="bi_Dynapro HL3" transform="translate(-320.442 -855.18)" clip-path="url(#clip-path)">
    <g id="그룹_10869" data-name="그룹 10869" transform="translate(107.843 769.473)">
      <path id="패스_54934" data-name="패스 54934" d="M368.18,115.223l-2.1,6.874c-.469,1.528-1.281,2.275-3.266,2.275h-1.84c-1.94,0-2.447-.564-1.952-2.165l2.212-7.247c.435-1.418,1.576-2.057,3.244-2.057h1.389c2.165,0,2.849.562,2.31,2.32m7.4-5.788-20.2-.007c-3.564,0-7.015,2.093-7.941,5.122l-2.388,7.8c-1.439,4.7,2.023,5.486,6.847,5.486h19.93c4.195,0,6.959-1.9,7.984-5.267l2.238-7.316c1.424-4.669-1.379-5.823-6.47-5.823" transform="translate(88.253 2.765)" fill="#8e6900"/>
      <path id="패스_54935" data-name="패스 54935" d="M291.85,109.456H281.472a7.722,7.722,0,0,0-3.678.807l.3-.807H264.819l-5.626,18.409h13.872l4.021-13.148a2.2,2.2,0,0,1,2.489-1.79h2.068c2.025,0,2.058.781,1.6,2.282l-3.908,12.656h13.952l3.736-12.323c1.154-3.771-.485-6.086-5.176-6.086" transform="translate(31.123 2.783)" fill="#8e6900"/>
      <path id="패스_54936" data-name="패스 54936" d="M303.242,122.049c-.492,1.608-1.211,2.355-3.286,2.355h-1.439c-2.027,0-2.327-.782-1.851-2.355l.253-.819c.489-1.6,1.211-2.35,3.286-2.35h4.008Zm11.205-12.616-24.637.038-1.066,3.471h14.85c1.173,0,2.369.073,2,1.271-.354,1.011-1.184,1.229-2.273,1.229H290.489c-3.2,0-6.05,1.341-6.932,4.222L282.6,122.8c-1.2,3.92.929,5.081,5.3,5.081h11.084a5.271,5.271,0,0,0,3.111-.859l-.312.859h13.4l4.045-13.184c.962-3.136-1.011-5.226-4.787-5.264" transform="translate(46.54 2.767)" fill="#8e6900"/>
      <path id="패스_54937" data-name="패스 54937" d="M330.8,115.849l-1.414,4.63c-.64,2.09-.936,2.912-3.823,2.912h-4.545l2.991-9.786h5.134c2.028,0,2.13.712,1.658,2.243m8.336-6.35H310.865l-7.8,25.261h14.423l2.268-7.264h13.874c4.51,0,8.245-.859,9.557-5.149l2.34-7.659c1.348-4.405-2.017-5.189-6.395-5.189" transform="translate(60.43 2.811)" fill="#8e6900"/>
      <path id="패스_54938" data-name="패스 54938" d="M357.985,109.456h-5.823c-3.112,0-4.939.7-5.846,1.585l.6-1.585H333.655l-5.631,18.409h13.869l3.253-10.643c.559-1.831,1.995-2.607,4.547-2.765l1.956,0a33.837,33.837,0,0,1,4.453.364Z" transform="translate(77.099 2.783)" fill="#8e6900"/>
      <path id="패스_54939" data-name="패스 54939" d="M261.789,109.456l-3.73,12.211c-.434,1.274-.792,2.727-2.819,2.727h-1.573c-2.612,0-2.657-.889-2.053-2.874l3.69-12.064H241.422l-3.363,11.022c-1.52,4.965-.417,7.391,5.9,7.391h9.275a9.648,9.648,0,0,0,3.031-.342l-.39,1.278c-.5,1.64-.947,2.5-3.2,2.5H239l-1.109,3.621h20.024c5.856-.115,10.019-.143,11.789-5.94l.3-1.116,5.628-18.413Z" transform="translate(16.601 2.783)" fill="#8e6900"/>
      <path id="패스_54940" data-name="패스 54940" d="M240.047,112.455l-3.379,11.037c-.614,2.013-1.087,2.957-3.885,2.957h-4.3l5.186-16.958h4.3c2.794,0,2.692.949,2.077,2.964m8.994-7.137h-28.7L212.6,130.629h28.709c5.728,0,8.762-3.037,10.053-7.249l3.3-10.817c1.3-4.25-.033-7.246-5.623-7.246" transform="translate(0 0.019)" fill="#8e6900"/>
      <path id="패스_54941" data-name="패스 54941" d="M440.057,130.942c-6.445,0-11.449-1.451-14.76-3.788l6.854-4.46a18.7,18.7,0,0,0,9.948,2.584c4.388,0,6.493-.814,7.039-2.514.56-1.735-.752-2.372-4.6-2.372h-5.471l1.721-5.344h4.875c3.306,0,4.537-.46,5.062-2.09.422-1.309-.867-2.017-4.605-2.017a25.4,25.4,0,0,0-10.111,2.123l-3.546-4.46a38.375,38.375,0,0,1,15.717-3.222c9.1,0,14.565,1.878,12.877,7.117-.877,2.725-3.738,4.035-6.6,4.849,3.349.53,5.9,2.2,4.887,5.346-1.848,5.734-9,8.248-19.288,8.248" transform="translate(142.073 0.061)" fill="#6d6f72"/>
      <path id="패스_54942" data-name="패스 54942" d="M440.057,130.942c-6.445,0-11.449-1.451-14.76-3.788l6.854-4.46a18.7,18.7,0,0,0,9.948,2.584c4.388,0,6.493-.814,7.039-2.514.56-1.735-.752-2.372-4.6-2.372h-5.471l1.721-5.344h4.875c3.306,0,4.537-.46,5.062-2.09.422-1.309-.867-2.017-4.605-2.017a25.4,25.4,0,0,0-10.111,2.123l-3.546-4.46a38.375,38.375,0,0,1,15.717-3.222c9.1,0,14.565,1.878,12.877,7.117-.877,2.725-3.738,4.035-6.6,4.849,3.349.53,5.9,2.2,4.887,5.346C457.5,128.428,450.35,130.942,440.057,130.942Z" transform="translate(142.073 0.061)" fill="none" stroke="#6d6f72" stroke-miterlimit="10" stroke-width="1"/>
      <path id="패스_54943" data-name="패스 54943" d="M388.921,130.606l3.306-10.451H400.8l.038-.369-3.349,10.82h14.176l7.741-25.316H405.234l-3.106,10.286.2-.367H393.76l2.9-9.919H382.513l-7.743,25.316Z" transform="translate(108.323 0)" fill="#6d6f72"/>
      <path id="패스_54944" data-name="패스 54944" d="M416.693,125.387l6.465-20.1H408.972l-7.738,25.316H429.08c.862-1.528,1.823-3.948,2.861-5.219Z" transform="translate(126 0)" fill="#6d6f72"/>
    </g>
  </g>
</svg>
