<svg xmlns="http://www.w3.org/2000/svg" xmlns:xlink="http://www.w3.org/1999/xlink" width="496" height="52" viewBox="0 0 496 52">
  <defs>
    <clipPath id="clip-path">
      <rect id="사각형_13299" data-name="사각형 13299" width="496" height="52" transform="translate(320.442 855.18)" fill="none" stroke="#707070" stroke-width="1"/>
    </clipPath>
    <clipPath id="clip-path-2">
      <rect id="사각형_13340" data-name="사각형 13340" width="379.22" height="28.346" transform="translate(0 0)" fill="none"/>
    </clipPath>
  </defs>
  <g id="bi_DynaproHPX" transform="translate(-320.442 -855.18)" clip-path="url(#clip-path)">
    <g id="DynaproHPX" transform="translate(320.441 875.179)">
      <g id="그룹_11488" data-name="그룹 11488" clip-path="url(#clip-path-2)">
        <path id="패스_55674" data-name="패스 55674" d="M310.253,11.862l2.35-7.694h5.762c2.234,0,2.37.7,1.907,2.219l-.8,2.591c-.63,2.068-.927,2.884-4.108,2.884ZM327.2.1H299.952l-7.545,24.67h13.871l2.73-8.837h13.35c4.958,0,9.042-.853,10.343-5.107l1.706-5.585C335.746.876,332.012.1,327.2.1" fill="#898989"/>
        <path id="패스_55675" data-name="패스 55675" d="M370.291,0,359.854,6.541,355.868,0h-17.32l9.385,13.318-18.17,11.357h9.556l11.2-7.345,4.68,7.345h16.834l-9.653-14.168L379.22,0Z" fill="#898989"/>
        <path id="패스_55676" data-name="패스 55676" d="M229.337,11.524l-1.5,6.332a3.576,3.576,0,0,1-3.584,2.22H223.7c-1.849,0-2.793-1.12-2.6-2.006l1.763-7.443c.848-1.5,1.867-1.5,3.457-1.5h.726c2.063,0,2.612,1.114,2.3,2.4m2.987-7.478L221.431,4.04c-3.4,0-8.37,1.994-9.1,4.881L209.906,18.7c-.506,2.491,1.95,6.241,6.545,6.241H228.88c4,0,8.551-2.74,9.362-5.943l2.328-9.408c.517-2.709-3.394-5.548-8.246-5.548" fill="#a68900"/>
        <path id="패스_55677" data-name="패스 55677" d="M86.518,4.083H76.259l-5.229,20.9H81.859L85.823,9.1a1.975,1.975,0,0,1,2.282-1.7h1.97c1.93,0,2,.743,1.64,2.173l-3.88,15.421H98.741l3.733-15.1c.911-3.594-.766-5.8-5.234-5.8Z" fill="#a68900"/>
        <path id="패스_55678" data-name="패스 55678" d="M122.556,21.674h-4.1c-1.931,0-2.256-.746-1.882-2.246l.693-2.137c.385-1.528,1.62-2.239,3.6-2.239h3.381Zm2.507-9.9H113.309c-3.052,0-5.7,1.278-6.394,4.022L106,20.144c-.946,3.735,1.139,4.841,5.308,4.841h21.219l3.986-15.922c.759-2.989-1.224-4.98-4.824-5.017l-18.7.037-.841,3.308h11.761c1.118,0,2.26.069,1.97,1.21Z" fill="#a68900"/>
        <path id="패스_55679" data-name="패스 55679" d="M160.838,10.23l-1.117,4.412c-.506,1.991-.746,2.775-3.5,2.775H151.9l2.359-9.324h4.891c1.934,0,2.066.678,1.693,2.137m4.64-6.049H143.914l-6.167,24.067H149.1l1.8-6.919h10.237c4.294,0,7.81-.819,8.846-4.908l1.847-7.3c1.064-4.2-2.18-4.944-6.352-4.944" fill="#a68900"/>
        <path id="패스_55680" data-name="패스 55680" d="M54.142,21.626l-.224.891c-.4,1.562-.779,2.381-2.923,2.381H36.438l-.876,3.448H53.777c5.573-.109,9.538-.136,10.935-5.657l.228-1.063L69.383,4.082h-10.8L55.64,15.715c-.351,1.215-.619,2.6-2.55,2.6h-1.5c-2.489,0-2.576-.846-2.1-2.739L52.4,4.082H41.566l-2.655,10.5c-1.2,4.733-.027,7.044,5.994,7.044Z" fill="#a68900"/>
        <path id="패스_55681" data-name="패스 55681" d="M22.857,7.669,20.189,18.183C19.7,20.1,19.3,21,16.636,21h-4.1L16.631,4.844h4.1c2.662,0,2.611.905,2.125,2.825m5.828-6.8H6.11L0,24.985H22.579c5.458,0,8.2-2.9,9.216-6.906L34.4,7.772c1.026-4.048-.392-6.9-5.718-6.9" fill="#a68900"/>
        <path id="패스_55682" data-name="패스 55682" d="M188.8,7.952h4.891c1.933,0,2.066.678,1.692,2.137l-.379,1.25c-.506,1.991-.746,2.775-3.5,2.775H187.18Zm11.82-3.912h-22.16l-5.43,20.906h11.356l1.8-6.92h4.26l2.574,6.92h11.356L201.6,17.5a5.745,5.745,0,0,0,4.26-4.377l1.109-4.135c1.064-4.2-2.18-4.944-6.352-4.944" fill="#a68900"/>
      </g>
      <path id="패스_55673" data-name="패스 55673" d="M279.078.1l-3.026,10.027h-8.4L270.722.1H256.927L249.383,24.77h13.794L266.4,14.226h8.391L271.532,24.77h13.821L292.9.1Z" fill="#898989"/>
    </g>
  </g>
</svg>
