<svg xmlns="http://www.w3.org/2000/svg" xmlns:xlink="http://www.w3.org/1999/xlink" width="496" height="52" viewBox="0 0 496 52">
  <defs>
    <clipPath id="clip-path">
      <rect id="사각형_13291" data-name="사각형 13291" width="496" height="52" transform="translate(320.442 855.18)" fill="none" stroke="#707070" stroke-width="1"/>
    </clipPath>
    <clipPath id="clip-path-2">
      <rect id="사각형_13577" data-name="사각형 13577" width="291.267" height="40.906" transform="translate(0 0)" fill="none"/>
    </clipPath>
  </defs>
  <g id="BI_title" data-name="BI title" transform="translate(-320.442 -855.18)" clip-path="url(#clip-path)">
    <g id="그룹_11222" data-name="그룹 11222" transform="translate(-579.437 581.702)">
      <g id="그룹_12467" data-name="그룹 12467" transform="translate(903.878 280.968)" clip-path="url(#clip-path-2)">
        <path id="패스_55945" data-name="패스 55945" d="M269.573,33.544l-1.235-6.109c-.225-.991-.365-1.7-.534-2.854-.561,1.038-1.206,2.005-1.852,2.972l-3.93,5.991Zm3.621,6.839h-2.189l-1.123-5.212h-8.9l-3.4,5.212h-2.274l11.762-17.689h2.077Z" fill="#70b538"/>
        <path id="패스_55946" data-name="패스 55946" d="M281.191,40.619a18.669,18.669,0,0,1-6.288-.943l.421-1.746a18.477,18.477,0,0,0,6.2,1.062c3.818,0,5.9-1.345,5.9-4.2,0-1.132-.59-1.675-3.145-2.288l-2.807-.661c-2.526-.589-3.733-1.934-3.733-3.75,0-3.8,2.975-5.637,8-5.637a18.575,18.575,0,0,1,5.193.59l-.337,1.557a18.623,18.623,0,0,0-4.716-.543c-3.171,0-6.007.637-6.007,3.868,0,1.156.758,1.863,2.639,2.312l2.723.66c3.34.8,4.379,1.887,4.379,3.538,0,4.01-2.807,6.179-8.421,6.179" fill="#70b538"/>
        <path id="패스_55947" data-name="패스 55947" d="M40.295,40.383c.038-.146,6.85-25.567,6.916-25.815h-8.3c-.038.147-6.852,25.567-6.918,25.815Z" fill="#595757"/>
        <path id="패스_55948" data-name="패스 55948" d="M78.536,16.933c-1.2-1.57-3.476-2.365-6.754-2.365H52.661c-.039.147-6.852,25.567-6.918,25.815h8.3L59.5,20.009h7.078c1.785,0,2.968.411,3.616,1.256a3.205,3.205,0,0,1,.575,2,10.318,10.318,0,0,1-.412,2.562l-3.9,14.56h8.3c.038-.146,4.277-15.952,4.277-15.952a15.039,15.039,0,0,0,.584-3.841,5.825,5.825,0,0,0-1.077-3.657" fill="#595757"/>
        <path id="패스_55949" data-name="패스 55949" d="M91.93,25.079l.532-1.989a5.213,5.213,0,0,1,5.562-4.166h14.429c.037-.139,1.1-4.123,1.166-4.357H95.31c-5.63,0-9.613,2.808-10.927,7.7,0,0-4.786,17.866-4.852,18.114H106.7c.037-.138,1.106-4.124,1.168-4.358H89l1.645-6.157h16.471c.037-.14,1.22-4.554,1.282-4.788Z" fill="#595757"/>
        <path id="패스_55950" data-name="패스 55950" d="M146.061,27.479a11.323,11.323,0,0,0-.4,2.925,9.019,9.019,0,0,0,1.844,5.572c2.181,2.842,5.988,4.407,10.722,4.407H172.1c.039-.146,4.039-15.077,4.1-15.3H162.961c-.037.138-1.223,4.553-1.286,4.789h4.945l-1.65,6.156h-3.237c-3.309,0-5.464-.712-6.589-2.179a4.971,4.971,0,0,1-.923-3.125,12.806,12.806,0,0,1,.492-3.25c1.588-5.911,5.148-8.545,11.547-8.545h10.387c.038-.14,1.107-4.124,1.169-4.357H165.2c-8.939,0-17.166,5.551-19.139,12.911" fill="#595757"/>
        <path id="패스_55951" data-name="패스 55951" d="M188.41,14.568h-7.919l6.616,16.907s-7.983,8.589-8.282,8.909l8.215.032s23.691-25.518,24-25.848h-8.213c-.06.063-10.128,10.891-10.128,10.891L188.41,14.568" fill="#595757"/>
        <path id="패스_55952" data-name="패스 55952" d="M133.086,14.568H117.545c-.039.147-6.85,25.567-6.916,25.815h8.3L124.791,18.5h3.732l1.051-.005c3.02-.019,5.628-.033,6.675,1.323a3.181,3.181,0,0,1,.264,2.87c-1.087,4.047-5.226,4.015-9.229,3.982l-1.093-.006h-2.714c.159.288,7.543,13.622,7.6,13.723h9.176c-.169-.29-6.082-10.515-6.082-10.515h.173c5.379,0,9.176-2.653,10.413-7.279a9.081,9.081,0,0,0,.345-2.338,4.487,4.487,0,0,0-.883-2.827c-1.516-1.975-4.948-2.856-11.131-2.856" fill="#595757"/>
        <path id="패스_55953" data-name="패스 55953" d="M34.827,14.566c-.594,0-9.726-.017-9.726-.017L12.884,23.267s2.266-8.456,2.331-8.7h-8.3C6.875,14.714.066,40.134,0,40.382H8.3l2.446-9.131.123.136s8.053,8.947,8.053,9h10.8L17.49,26.829S34.32,14.918,34.827,14.566" fill="#595757"/>
        <path id="패스_55954" data-name="패스 55954" d="M88.6,6.539l-.939,3.5H128.72l.941-3.5Z" fill="#c4d70f"/>
        <path id="패스_55955" data-name="패스 55955" d="M216.755,2.692,214.735,0A36.424,36.424,0,0,1,194.6,6.52l-21.522.008-.943,3.515,21.95,0a40.462,40.462,0,0,0,22.666-7.348" fill="#22ac38"/>
        <path id="패스_55956" data-name="패스 55956" d="M130.88,6.539l-.94,3.5H171l.938-3.5Z" fill="#70b538"/>
        <path id="패스_55957" data-name="패스 55957" d="M211.236,39.675l.785-3.4a21.106,21.106,0,0,0,6.036.919c2.722,0,4.181-.566,4.181-2.24,0-.9-.842-1.132-3.087-1.745l-1.909-.52c-2.19-.589-3.649-2.027-3.649-4.1,0-4.2,3.2-6.132,9.151-6.132a25.088,25.088,0,0,1,5.979.589l-.758,3.232a25.491,25.491,0,0,0-4.912-.472c-3.229,0-4.324.66-4.324,2.1,0,.9,1.1,1.085,2.864,1.58l1.966.566c2.5.731,3.9,1.745,3.9,3.821,0,4.976-3.649,6.745-9.459,6.745a22.7,22.7,0,0,1-6.765-.943" fill="#70b538"/>
        <path id="패스_55958" data-name="패스 55958" d="M232.089,26.374l.842-3.68h17.179l-.842,3.68h-6.091l-3.2,14.009h-4.969l3.2-14.009Z" fill="#70b538"/>
        <path id="패스_55959" data-name="패스 55959" d="M269.573,33.544l-1.235-6.109c-.225-.991-.365-1.7-.534-2.854-.561,1.038-1.206,2.005-1.852,2.972l-3.93,5.991Zm3.621,6.839h-2.189l-1.123-5.212h-8.9l-3.4,5.212h-2.274l11.762-17.689h2.077Z" fill="none" stroke="#70b538" stroke-width="0.575"/>
        <path id="패스_55960" data-name="패스 55960" d="M281.191,40.619a18.669,18.669,0,0,1-6.288-.943l.421-1.746a18.477,18.477,0,0,0,6.2,1.062c3.818,0,5.9-1.345,5.9-4.2,0-1.132-.59-1.675-3.145-2.288l-2.807-.661c-2.526-.589-3.733-1.934-3.733-3.75,0-3.8,2.975-5.637,8-5.637a18.575,18.575,0,0,1,5.193.59l-.337,1.557a18.623,18.623,0,0,0-4.716-.543c-3.171,0-6.007.637-6.007,3.868,0,1.156.758,1.863,2.639,2.312l2.723.66c3.34.8,4.379,1.887,4.379,3.538C289.612,38.45,286.8,40.619,281.191,40.619Z" fill="none" stroke="#70b538" stroke-width="0.575"/>
      </g>
    </g>
  </g>
</svg>
