<svg xmlns="http://www.w3.org/2000/svg" xmlns:xlink="http://www.w3.org/1999/xlink" width="496" height="52" viewBox="0 0 496 52">
  <defs>
    <clipPath id="clip-path">
      <rect id="사각형_13718" data-name="사각형 13718" width="496" height="52" transform="translate(320.442 855.18)" fill="none" stroke="#707070" stroke-width="1"/>
    </clipPath>
  </defs>
  <g id="bi_Ventus_Ion_evo" data-name="bi_Ventus Ion evo" transform="translate(-320.442 -855.18)" clip-path="url(#clip-path)">
    <g id="组_1" data-name="组 1" transform="translate(-168.278 710.628)">
      <path id="路径_1" data-name="路径 1" d="M546.792,163.811h-1.9c-1.814,0-2.951.746-3.378,2.22l-4.469,15.5a.639.639,0,0,1-.516.456.579.579,0,0,1-.6-.282l-8.808-15.562c-.858-1.554-1.29-2.334-3.518-2.334h-4.277a4.146,4.146,0,0,0-4.433,3.347l-5.886,19.826a1.666,1.666,0,0,0,.085,1.469,2.358,2.358,0,0,0,1.943.614h1.9c1.782,0,2.9-.746,3.332-2.22l4.611-15.49a.65.65,0,0,1,.521-.453c.031,0,.062-.005.091-.005a.579.579,0,0,1,.508.293l8.894,15.777c.746,1.254,1.282,2.161,3.363,2.161h4.4a4.124,4.124,0,0,0,4.394-3.347l5.73-19.886a1.658,1.658,0,0,0-.106-1.471,2.287,2.287,0,0,0-1.891-.614" transform="translate(32.081 5.184)" fill="#00b3cc"/>
      <path id="路径_2" data-name="路径 2" d="M494.05,189.13h-3.272a2.056,2.056,0,0,1-1.977-2.624l6.1-21.2a2.056,2.056,0,0,1,1.977-1.49h3.272a2.056,2.056,0,0,1,1.977,2.624l-6.1,21.2a2.057,2.057,0,0,1-1.977,1.49" transform="translate(0 5.184)" fill="#00b3cc"/>
      <path id="路径_3" data-name="路径 3" d="M498.938,168.992h-2.852a2.369,2.369,0,0,1-2.277-3.023l1.124-3.927a2.056,2.056,0,0,1,1.977-1.49h3.267a2.055,2.055,0,0,1,1.977,2.622l-1.241,4.329a2.05,2.05,0,0,1-1.974,1.49" transform="translate(7.946 0)" fill="#00b3cc"/>
      <path id="路径_4" data-name="路径 4" d="M528.1,178.764c-2.091,7.293-9.109,11.075-19.552,11.075s-15.3-3.782-13.2-11.075l1.161-4.049c2.083-7.259,9.4-11.073,19.554-11.073s15.285,3.813,13.2,11.073Zm-6.526-3.746c1.422-4.961-.938-6.99-6.775-6.99s-9.358,2.028-10.78,6.99l-.987,3.443c-1.433,5,.938,6.99,6.772,6.99s9.35-1.992,10.782-6.99Z" transform="translate(9.775 4.915)" fill="#00b3cc"/>
      <path id="路径_5" data-name="路径 5" d="M543.61,165.1h0c-7.324,0-12.355,3.6-14.166,10.142l-.658,2.381c-.863,3.114-.694,5.4.513,6.987,1.464,1.922,4.539,2.858,9.4,2.858h.005a29.473,29.473,0,0,0,8.044-1.083l.085-.026.984-3.554-.282.075a31.5,31.5,0,0,1-7.718.917h0c-3.106,0-5.016-.526-5.837-1.606-.63-.826-.684-2.008-.181-3.826l.2-.723,17.736,0,.521-1.886c1-3.614.842-6.22-.49-7.966-1.373-1.808-4.042-2.687-8.156-2.687m3.922,9.029-.042.148H534.932l.016-.057c.57-2.062,2.345-5.523,7.806-5.523h0c2.174,0,3.666.513,4.435,1.526.692.909.808,2.223.342,3.907" transform="translate(62.869 7.233)" fill="#8e8e8f"/>
      <path id="路径_6" data-name="路径 6" d="M557.85,165.275,549.073,178.4c-.386.58-.767,1.166-1.171,1.79-.49.756-.995,1.534-1.593,2.427-.1-.863-.171-1.619-.241-2.352-.057-.624-.114-1.212-.181-1.79l-1.5-13.054-.018-.148-5.65,0,3.344,21.381.021.142h5.966l15.28-21.526Z" transform="translate(79.531 7.513)" fill="#8e8e8f"/>
      <path id="路径_7" data-name="路径 7" d="M571.045,168.107c-1.5-1.971-4.42-3.01-8.446-3.01h0c-7.492,0-12.78,3.57-14.5,9.8l-.743,2.687c-.8,2.868-.541,5.184.749,6.881,1.495,1.964,4.4,3,8.4,3h0c7.523,0,12.826-3.573,14.549-9.8l.744-2.687c.793-2.868.541-5.179-.746-6.873m-4.547,6.785-.744,2.686c-1.158,4.181-3.883,6.212-8.332,6.212h0c-2.2,0-3.713-.516-4.484-1.531-.762-1-.86-2.544-.293-4.591l.744-2.687c1.158-4.181,3.868-6.212,8.285-6.215,2.264,0,3.749.505,4.536,1.539.759,1,.855,2.541.29,4.585" transform="translate(92.543 7.23)" fill="#8e8e8f"/>
    </g>
  </g>
</svg>
