<svg xmlns="http://www.w3.org/2000/svg" xmlns:xlink="http://www.w3.org/1999/xlink" width="496" height="52" viewBox="0 0 496 52">
  <defs>
    <clipPath id="clip-path">
      <rect id="矩形_15261" data-name="矩形 15261" width="496" height="52" transform="translate(320.442 855.18)" fill="none" stroke="#707070" stroke-width="1"/>
    </clipPath>
  </defs>
  <g id="bi_IH61" transform="translate(-320.442 -855.18)" clip-path="url(#clip-path)">
    <g id="组_2" data-name="组 2" transform="translate(-321.662 544.895)">
      <path id="路径_11" data-name="路径 11" d="M706.1,324.544h-2.043c-1.953,0-3.178.8-3.639,2.392l-4.814,16.7a.693.693,0,0,1-.555.491.622.622,0,0,1-.647-.307l-9.485-16.76c-.926-1.674-1.393-2.514-3.789-2.514h-4.61a4.463,4.463,0,0,0-4.772,3.605l-6.34,21.356a1.769,1.769,0,0,0,.092,1.579,2.527,2.527,0,0,0,2.093.661h2.051c1.92,0,3.128-.8,3.589-2.389l4.967-16.685a.693.693,0,0,1,.558-.488.6.6,0,0,1,.1-.006.617.617,0,0,1,.544.313l9.583,17c.8,1.351,1.381,2.327,3.619,2.327h4.744a4.442,4.442,0,0,0,4.733-3.608l6.173-21.42a1.781,1.781,0,0,0-.115-1.582,2.462,2.462,0,0,0-2.037-.661" transform="translate(36.109 5.835)" fill="#00b3cc"/>
      <path id="路径_12" data-name="路径 12" d="M650.845,351.816h-3.524a2.214,2.214,0,0,1-2.129-2.827l6.572-22.841a2.218,2.218,0,0,1,2.129-1.6h3.524a2.215,2.215,0,0,1,2.129,2.827l-6.572,22.841a2.215,2.215,0,0,1-2.129,1.6" transform="translate(0 5.835)" fill="#00b3cc"/>
      <path id="路径_13" data-name="路径 13" d="M655.724,330.377h-3.072a2.552,2.552,0,0,1-2.453-3.257l1.211-4.228a2.214,2.214,0,0,1,2.129-1.607h3.519a2.214,2.214,0,0,1,2.129,2.824l-1.337,4.663a2.209,2.209,0,0,1-2.126,1.6" transform="translate(8.942)" fill="#00b3cc"/>
      <path id="路径_14" data-name="路径 14" d="M687.045,340.663c-2.252,7.855-9.812,11.927-21.06,11.927s-16.475-4.071-14.223-11.927l1.253-4.362c2.241-7.819,10.127-11.927,21.06-11.927s16.464,4.108,14.224,11.927Zm-7.029-4.035c1.532-5.344-1.01-7.526-7.3-7.526s-10.079,2.182-11.611,7.526l-1.063,3.709c-1.543,5.383,1.01,7.526,7.294,7.526s10.071-2.143,11.614-7.526Z" transform="translate(11.002 5.533)" fill="#00b3cc"/>
      <path id="路径_15" data-name="路径 15" d="M729.445,326.01H725.31l-17,23.184h4.5l4.582-6.424h10.975l1.063,6.421h4.763l-4.716-23.039Zm-1.672,13.545h-8.1l6.683-9.524Z" transform="translate(113.174 8.46)" fill="#8e8e8f"/>
      <path id="路径_16" data-name="路径 16" d="M740.568,326.67A28.944,28.944,0,0,0,733,325.9c-6.831,0-10.425,1.984-11.653,6.432a4.807,4.807,0,0,0,.215,3.887c.756,1.239,2.333,2.051,5.109,2.631l3.29.7c2.174.483,3.268.963,3.653,1.6a2.5,2.5,0,0,1-.017,1.953c-.48,1.747-1.649,3.368-6.9,3.374a30.748,30.748,0,0,1-8.67-1.178l-.279-.084.751,3.706.112.025a32.547,32.547,0,0,0,7.448.742c6.82-.006,10.744-2.2,11.991-6.708.427-1.546.583-2.788-.045-3.823-.751-1.239-2.6-2.115-5.994-2.846l-3.251-.7c-1.761-.371-2.662-.781-3.019-1.37a2.254,2.254,0,0,1-.036-1.817c.636-2.311,1.842-3.34,7.306-3.34a34.525,34.525,0,0,1,6.728.6l.165.039.829-3Z" transform="translate(130.071 8.263)" fill="#8e8e8f"/>
      <path id="路径_17" data-name="路径 17" d="M705.952,328.244a52.453,52.453,0,0,1,8.748.684l1.021-3.686a51.018,51.018,0,0,0-10.158-.829h-.008c-9.281,0-14.09,2.414-15.588,7.836a5.455,5.455,0,0,0,.3,4.442c.9,1.476,2.835,2.5,5.919,3.123l3.809.787c3.483.712,4.917,1.289,5.472,2.2a2.479,2.479,0,0,1,.1,2.018c-.714,2.562-3.29,3.658-8.634,3.658h-.014a49.631,49.631,0,0,1-11.176-1.312l-1.116,4.018a53.63,53.63,0,0,0,12.019,1.236c9.368,0,14.659-2.662,16.171-8.134.575-2.082.533-3.494-.128-4.588-.887-1.44-2.961-2.425-6.725-3.212l-3.859-.776c-2.615-.519-4.242-.907-4.883-1.937a2.38,2.38,0,0,1-.129-1.945c.74-2.679,2.98-3.586,8.863-3.586" transform="translate(70.763 5.601)" fill="#8e8e8f"/>
      <path id="路径_18" data-name="路径 18" d="M705.952,328.244c-5.883,0-8.123.907-8.863,3.586a2.38,2.38,0,0,0,.129,1.945c.642,1.03,2.269,1.418,4.883,1.937l3.859.776c3.765.787,5.838,1.772,6.725,3.212.661,1.094.7,2.506.128,4.588-1.512,5.472-6.8,8.134-16.171,8.134a53.63,53.63,0,0,1-12.019-1.236l1.116-4.018a49.631,49.631,0,0,0,11.176,1.312h.014c5.344,0,7.92-1.1,8.634-3.658a2.479,2.479,0,0,0-.1-2.018c-.555-.912-1.99-1.49-5.472-2.2l-3.809-.787c-3.083-.625-5.02-1.646-5.919-3.123a5.455,5.455,0,0,1-.3-4.442c1.5-5.422,6.307-7.836,15.588-7.836h.008a51.018,51.018,0,0,1,10.158.829l-1.021,3.686a52.453,52.453,0,0,0-8.748-.684" transform="translate(70.763 5.601)" fill="#8e8e8f"/>
      <path id="路径_19" data-name="路径 19" d="M697.982,324.545l-1.189,4.283,11.277-.005L701.7,351.811h7.007l6.362-22.988h11.271l1.186-4.278Z" transform="translate(92.552 5.837)" fill="#8e8e8f"/>
      <path id="路径_20" data-name="路径 20" d="M701.7,351.812l6.365-22.991-11.277.008,1.189-4.284h29.549l-1.186,4.275H715.077l-6.365,22.991Z" transform="translate(92.552 5.838)" fill="#8e8e8f"/>
      <path id="路径_21" data-name="路径 21" d="M793.575,326.011H737.761a2.8,2.8,0,0,0-2.7,2.029L730,345.617a2.809,2.809,0,0,0,2.7,3.575h55.828a2.811,2.811,0,0,0,2.7-2.031l5.051-17.583a2.8,2.8,0,0,0-2.7-3.566m-39.416,7.557a10.432,10.432,0,0,0-1.507-.265,16.361,16.361,0,0,0-1.658-.087,7.276,7.276,0,0,0-1.708.156,1.788,1.788,0,0,0-1.451,1.4,1,1,0,0,0,.137,1.041,3.518,3.518,0,0,0,1.415.608l1.328.374a4.668,4.668,0,0,1,1.764.8,1.859,1.859,0,0,1,.67,1.219,4.727,4.727,0,0,1-.232,1.858,5.248,5.248,0,0,1-2.015,2.95,7.07,7.07,0,0,1-4.149,1.041,11.916,11.916,0,0,1-4.3-.709l.645-2.255a11.238,11.238,0,0,0,3.963.712,4.522,4.522,0,0,0,2.11-.382,1.913,1.913,0,0,0,.94-1.211,1.512,1.512,0,0,0,.056-.8.9.9,0,0,0-.489-.53,5.647,5.647,0,0,0-1.284-.48l-1.334-.36a2.945,2.945,0,0,1-1.926-1.292,3.209,3.209,0,0,1-.056-2.5,4.936,4.936,0,0,1,1.995-2.9,7.177,7.177,0,0,1,3.982-.946,18.917,18.917,0,0,1,2.132.114,6.485,6.485,0,0,1,1.571.324Zm13.291,6.014a6.909,6.909,0,0,1-2.489,3.9,7.594,7.594,0,0,1-4.551,1.242q-2.871,0-3.882-1.225c-.675-.826-.762-2.126-.243-3.912l2.4-8.391h2.749l-2.232,7.788a5.08,5.08,0,0,0-.265,1.951,1.228,1.228,0,0,0,.625,1,3.357,3.357,0,0,0,1.563.293,4.482,4.482,0,0,0,1.744-.293,2.662,2.662,0,0,0,1.15-.991,6.86,6.86,0,0,0,.84-1.959l2.233-7.788h2.763Zm9.022,4.909H773.4l-.974-13.3h2.581l.684,10.71,6.689-10.71h2.548Z" transform="translate(151.817 8.462)" fill="#8e8e8f"/>
    </g>
  </g>
</svg>
