<svg xmlns="http://www.w3.org/2000/svg" xmlns:xlink="http://www.w3.org/1999/xlink" width="496" height="52" viewBox="0 0 496 52">
  <defs>
    <clipPath id="clip-path">
      <rect id="사각형_13299" data-name="사각형 13299" width="496" height="52" transform="translate(320.442 855.18)" fill="none" stroke="#707070" stroke-width="1"/>
    </clipPath>
  </defs>
  <g id="bi_IH01A" transform="translate(-320.442 -855.18)" clip-path="url(#clip-path)">
    <g id="组_3" data-name="组 3" transform="translate(-322.661 677.784)">
      <path id="路径_19" data-name="路径 19" d="M704.282,193.654H702.33c-1.867,0-3.037.768-3.477,2.285l-4.6,15.955a.657.657,0,0,1-.533.469.592.592,0,0,1-.619-.291l-9.064-16.016c-.885-1.6-1.328-2.4-3.621-2.4h-4.4a4.269,4.269,0,0,0-4.563,3.445L665.4,217.5a1.7,1.7,0,0,0,.085,1.509,2.425,2.425,0,0,0,2,.635h1.96c1.835,0,2.987-.768,3.429-2.285l4.744-15.944a.67.67,0,0,1,.536-.464.576.576,0,0,1,.093-.008.589.589,0,0,1,.52.3l9.157,16.24c.765,1.291,1.32,2.224,3.461,2.224h4.531a4.241,4.241,0,0,0,4.523-3.445l5.9-20.469a1.7,1.7,0,0,0-.109-1.512,2.354,2.354,0,0,0-1.947-.632" transform="translate(33.61 5.43)" fill="#00b3cc"/>
      <path id="路径_20" data-name="路径 20" d="M650.591,219.714h-3.368a2.115,2.115,0,0,1-2.035-2.7l6.28-21.824a2.111,2.111,0,0,1,2.035-1.533h3.368a2.116,2.116,0,0,1,2.035,2.7l-6.283,21.827a2.116,2.116,0,0,1-2.032,1.533" transform="translate(0 5.432)" fill="#00b3cc"/>
      <path id="路径_21" data-name="路径 21" d="M655.473,199.081h-2.936a2.438,2.438,0,0,1-2.344-3.112l1.157-4.04a2.116,2.116,0,0,1,2.035-1.533h3.363a2.116,2.116,0,0,1,2.035,2.7l-1.277,4.453a2.111,2.111,0,0,1-2.032,1.533" transform="translate(8.323)" fill="#00b3cc"/>
      <path id="路径_22" data-name="路径 22" d="M685.454,209.05c-2.152,7.507-9.376,11.4-20.125,11.4s-15.741-3.891-13.589-11.4l1.195-4.168c2.141-7.469,9.677-11.4,20.125-11.4s15.733,3.928,13.589,11.4Zm-6.717-3.856c1.464-5.107-.966-7.192-6.971-7.192s-9.632,2.085-11.1,7.192l-1.016,3.544c-1.475,5.141.965,7.192,6.973,7.192s9.621-2.051,11.1-7.192Z" transform="translate(10.241 5.148)" fill="#00b3cc"/>
      <path id="路径_23" data-name="路径 23" d="M736.139,195.12h-3.952l-16.243,22.155h4.293l4.379-6.139H735.1l1.016,6.136h4.552l-4.507-22.016Zm-1.6,12.944h-7.736l6.387-9.1Z" transform="translate(118.068 7.873)" fill="#8e8e8f"/>
      <path id="路径_24" data-name="路径 24" d="M747.188,195.744a27.8,27.8,0,0,0-7.235-.733c-6.528,0-9.96,1.9-11.133,6.147a4.6,4.6,0,0,0,.2,3.715c.723,1.184,2.229,1.957,4.885,2.512l3.141.669c2.077.461,3.123.92,3.491,1.533a2.384,2.384,0,0,1-.016,1.864c-.459,1.672-1.576,3.219-6.592,3.224a29.348,29.348,0,0,1-8.282-1.125l-.269-.077.717,3.541.107.024a31.122,31.122,0,0,0,7.117.707c6.517,0,10.267-2.1,11.459-6.408.408-1.477.557-2.664-.043-3.656-.717-1.181-2.483-2.019-5.728-2.717l-3.107-.669c-1.68-.355-2.544-.747-2.885-1.309a2.155,2.155,0,0,1-.035-1.736c.608-2.208,1.76-3.192,6.981-3.192a33,33,0,0,1,6.429.571l.157.037.792-2.869Z" transform="translate(133.795 7.692)" fill="#8e8e8f"/>
      <path id="路径_25" data-name="路径 25" d="M700.441,194.943h0c-7.541,0-12.72,3.707-14.581,10.437l-.677,2.451c-.888,3.205-.714,5.557.525,7.189,1.507,1.981,4.675,2.944,9.68,2.944h.005a30.441,30.441,0,0,0,8.28-1.115l.088-.029,1.013-3.656-.291.077a32.523,32.523,0,0,1-7.941.941h0c-3.2,0-5.163-.541-6.011-1.653-.645-.851-.7-2.064-.187-3.936l.208-.744,18.253,0,.536-1.941c1.029-3.72.864-6.4-.5-8.2-1.413-1.859-4.16-2.763-8.392-2.763m4.035,9.291-.043.149-12.928,0,.016-.059c.589-2.123,2.413-5.683,8.037-5.683,2.237,0,3.773.525,4.565,1.568.712.936.832,2.288.352,4.021" transform="translate(65.866 7.578)" fill="#8e8e8f"/>
      <path id="路径_26" data-name="路径 26" d="M714.786,195.119l-9.032,13.512c-.4.595-.792,1.2-1.208,1.843-.5.776-1.024,1.576-1.637,2.5-.1-.888-.176-1.667-.248-2.421-.061-.643-.117-1.245-.187-1.843l-1.547-13.435-.016-.149H695.1l3.44,22.008.024.144H704.7l15.725-22.155Z" transform="translate(83.321 7.872)" fill="#8e8e8f"/>
      <path id="路径_27" data-name="路径 27" d="M728.126,198.039c-1.541-2.027-4.547-3.1-8.691-3.1h0c-7.712,0-13.152,3.677-14.926,10.085l-.765,2.765c-.819,2.952-.557,5.336.771,7.083,1.539,2.021,4.526,3.088,8.64,3.088h0c7.744,0,13.2-3.675,14.976-10.083l.765-2.765c.816-2.952.557-5.331-.771-7.075m-4.677,6.984-.765,2.765c-1.192,4.3-4,6.395-8.576,6.395h0c-2.267,0-3.818-.531-4.616-1.576-.781-1.029-.883-2.619-.3-4.725l.766-2.765c1.192-4.3,3.981-6.395,8.528-6.395,2.331,0,3.859.517,4.669,1.584.781,1.027.88,2.613.3,4.717" transform="translate(96.955 7.573)" fill="#8e8e8f"/>
      <path id="路径_28" data-name="路径 28" d="M798.374,195.121H745.041a2.683,2.683,0,0,0-2.579,1.941l-4.835,16.795a2.682,2.682,0,0,0,2.579,3.413h53.346a2.679,2.679,0,0,0,2.579-1.939l4.829-16.8a2.671,2.671,0,0,0-2.587-3.408m-37.661,7.221a10.087,10.087,0,0,0-1.44-.253,15.627,15.627,0,0,0-1.584-.083,6.933,6.933,0,0,0-1.632.149,1.7,1.7,0,0,0-1.387,1.339.944.944,0,0,0,.131.995,3.289,3.289,0,0,0,1.352.581l1.267.357a4.5,4.5,0,0,1,1.688.768,1.785,1.785,0,0,1,.637,1.165,4.561,4.561,0,0,1-.219,1.776,5,5,0,0,1-1.928,2.819,6.747,6.747,0,0,1-3.963.995,11.411,11.411,0,0,1-4.109-.677l.619-2.155a10.725,10.725,0,0,0,3.784.68,4.308,4.308,0,0,0,2.016-.365,1.812,1.812,0,0,0,.9-1.157,1.449,1.449,0,0,0,.056-.763.859.859,0,0,0-.467-.507,5.528,5.528,0,0,0-1.227-.459l-1.277-.344a2.814,2.814,0,0,1-1.837-1.235,3.067,3.067,0,0,1-.053-2.387,4.722,4.722,0,0,1,1.9-2.771,6.862,6.862,0,0,1,3.808-.9,18.014,18.014,0,0,1,2.035.109,6.255,6.255,0,0,1,1.5.309Zm12.7,5.747a6.6,6.6,0,0,1-2.379,3.723A7.255,7.255,0,0,1,766.686,213q-2.748,0-3.712-1.171c-.643-.789-.725-2.032-.232-3.739l2.3-8.016h2.627l-2.131,7.44a4.867,4.867,0,0,0-.256,1.864,1.18,1.18,0,0,0,.6.955,3.221,3.221,0,0,0,1.5.28,4.29,4.29,0,0,0,1.667-.28,2.535,2.535,0,0,0,1.1-.947,6.487,6.487,0,0,0,.8-1.872l2.133-7.44h2.64Zm8.621,4.691H779.1l-.931-12.707h2.467l.653,10.232,6.392-10.232h2.432Z" transform="translate(154.035 7.875)" fill="#8e8e8f"/>
    </g>
  </g>
</svg>
