<svg xmlns="http://www.w3.org/2000/svg" xmlns:xlink="http://www.w3.org/1999/xlink" width="496" height="52" viewBox="0 0 496 52">
  <defs>
    <clipPath id="clip-path">
      <rect id="사각형_13291" data-name="사각형 13291" width="496" height="52" transform="translate(320.442 855.18)" fill="none" stroke="#707070" stroke-width="1"/>
    </clipPath>
    <clipPath id="clip-path-2">
      <path id="패스_55553" data-name="패스 55553" d="M0,12.75H414.681v-32.4H0Z" transform="translate(0 19.653)" fill="none"/>
    </clipPath>
  </defs>
  <g id="bi_Smarflex_AH51" data-name="bi_Smarflex AH51" transform="translate(-320.442 -855.18)" clip-path="url(#clip-path)">
    <g id="그룹_11564" data-name="그룹 11564" transform="translate(320.441 892.373)">
      <g id="그룹_11546" data-name="그룹 11546" transform="translate(0 -19.653)" clip-path="url(#clip-path-2)">
        <g id="그룹_11545" data-name="그룹 11545" transform="translate(166.897 3.1)">
          <path id="패스_55552" data-name="패스 55552" d="M27.056,5.856a7.285,7.285,0,0,1-6.478,4.961H-38.028c-2.742,0-4.284-2.221-3.448-4.961l3.034-9.922a7.283,7.283,0,0,1,6.48-4.961H26.643c2.739,0,4.285,2.219,3.446,4.961Z" transform="translate(41.703 9.027)" fill="#85868a"/>
        </g>
      </g>
      <g id="그룹_11547" data-name="그룹 11547" transform="translate(214.136 -13.854)">
        <path id="패스_55554" data-name="패스 55554" d="M5.058,2.358l7.975-5.993H9.246L3.688.6.463-3.635H-3.926L.9,2.729-7.8,9.435h3.881L2.319,4.551,5.981,9.435h4.486Z" transform="translate(7.796 3.635)" fill="#fff"/>
      </g>
      <g id="그룹_11552" data-name="그룹 11552" transform="translate(0 -19.653)" clip-path="url(#clip-path-2)">
        <g id="그룹_11548" data-name="그룹 11548" transform="translate(171.515 2.925)">
          <path id="패스_55555" data-name="패스 55555" d="M1.671.806-2.576,14.7H1.243L3.269,8.074h7.814l.887-2.905H4.158l1.11-3.631H15.552l.854-2.781H4.349A3.011,3.011,0,0,0,1.671.806" transform="translate(2.576 1.243)" fill="#fff"/>
        </g>
        <g id="그룹_11549" data-name="그룹 11549" transform="translate(188.137 5.161)">
          <path id="패스_55556" data-name="패스 55556" d="M2.742,0-1.07,1.641-4.133,11.658a1.465,1.465,0,0,0,1.425,2.049H4.124l2.109-2.257H-.76Z" transform="translate(4.227)" fill="#fff"/>
        </g>
        <g id="그룹_11550" data-name="그룹 11550" transform="translate(199.876 5.798)">
          <path id="패스_55557" data-name="패스 55557" d="M2.3,1.181A1.006,1.006,0,0,1,3.2.5H9.428a.653.653,0,0,1,.633.913l-.521,1.7a1.338,1.338,0,0,1-1.192.912H3.992L1.883,6.28H9.6a3.011,3.011,0,0,0,2.676-2.051l1.223-4A1.467,1.467,0,0,0,12.078-1.82H1.964A3.007,3.007,0,0,0-.714.231L-3.457,9.2A1.466,1.466,0,0,0-2.031,11.25H9.38l.745-2.44H.655A.487.487,0,0,1,.18,8.127L.744,6.28Z" transform="translate(3.551 1.82)" fill="#fff"/>
        </g>
        <g id="그룹_11551" data-name="그룹 11551" transform="translate(237.989 -0.001)">
          <path id="패스_55558" data-name="패스 55558" d="M13.5,12.2,12.53,6.754H-2.059L-6.365,12.2h-14.45L6.312-18.807H19.928L28.094,12.2ZM11.071-2.107a57.172,57.172,0,0,1-.757-7.753c-1.261,2.082-2.554,3.81-5.5,7.753L3.293-.069h8.058Z" transform="translate(20.815 18.807)" fill="#85868a"/>
        </g>
      </g>
      <g id="그룹_11553" data-name="그룹 11553" transform="translate(290.377 -19.653)">
        <path id="패스_55560" data-name="패스 55560" d="M15.1,0,11.649,11.3H-3.5L-.041,0H-13.8l-9.48,31.008H-9.523l3.739-12.227H9.36L5.622,31.008H19.38L28.858,0Z" transform="translate(23.279)" fill="#85868a"/>
      </g>
      <g id="그룹_11556" data-name="그룹 11556" transform="translate(0 -19.653)" clip-path="url(#clip-path-2)">
        <g id="그룹_11554" data-name="그룹 11554" transform="translate(390.328 -0.001)">
          <path id="패스_55561" data-name="패스 55561" d="M.658,12.2,7.185-9.15h-8.2L.655-14.6c6.32-.223,9.159-1.329,11.429-4.209H23.338L13.858,12.2Z" transform="translate(1.014 18.807)" fill="#85868a"/>
        </g>
        <g id="그룹_11555" data-name="그룹 11555" transform="translate(0 1.979)">
          <path id="패스_55562" data-name="패스 55562" d="M8.848,4.455C2.968,3.435,1.712,2.889,2.124,1.54c.305-1,2-2.066,5.842-2.066a10.948,10.948,0,0,1,7.9,2.788l.209.195L23.962-2l-.392-.373c-3.225-3.063-7.477-4.491-13.381-4.491-8.628,0-15.741,3.556-17.3,8.648C-9,7.97-3.4,9.476,3.02,10.582c7.255,1.222,7.853,2,7.438,3.355-.369,1.205-1.525,2.587-7.25,2.587-4.036,0-7.035-1.039-8.915-3.091l-.2-.216-7.733,4.072.259.394C-11.226,20.953-5.923,22.9.8,22.9c13.987,0,17.868-5.868,18.938-9.367,1.926-6.3-4.325-7.939-10.892-9.081" transform="translate(13.638 6.867)" fill="#85868a"/>
        </g>
      </g>
      <g id="그룹_11557" data-name="그룹 11557" transform="translate(33.444 -10.351)">
        <path id="패스_55564" data-name="패스 55564" d="M12.191,0,.236,12.341-4.13,0h-8.025l-6.636,21.706h8.537l3.357-11.6,4.138,12.016L8.681,10.109l-3.734,11.6h8.536L20.122,0Z" transform="translate(18.791)" fill="#85868a"/>
      </g>
      <g id="그룹_11560" data-name="그룹 11560" transform="translate(0 -19.653)" clip-path="url(#clip-path-2)">
        <g id="그룹_11558" data-name="그룹 11558" transform="translate(70.631 8.842)">
          <path id="패스_55565" data-name="패스 55565" d="M7.088,8.722l.444-1.446A17.1,17.1,0,0,1-.43,9.176c-6.13,0-11.828-2.48-10.221-7.733,1.466-4.8,8.4-7.2,15.846-7.2a17.159,17.159,0,0,1,6.051.869l.328-1.075c.468-1.532-1.416-2.608-4.544-2.608A40.384,40.384,0,0,0-4.636-6.793l-.485-4.458A40.061,40.061,0,0,1,8.52-13.444c7.942,0,13.665,2.077,12.175,6.959L16.043,8.722ZM9.766-.051A11.555,11.555,0,0,0,4.093-1.123c-3.255,0-5.258.831-5.787,2.565-.465,1.532.478,2.732,4.168,2.732a11.124,11.124,0,0,0,6.61-1.983Z" transform="translate(10.926 13.444)" fill="#85868a"/>
        </g>
        <g id="그룹_11559" data-name="그룹 11559" transform="translate(101.355 9.302)">
          <path id="패스_55566" data-name="패스 55566" d="M8.03,8.541,2.477,1.224h-3.66L-3.417,8.541h-8.961L-5.74-13.165H8.939c7.69,0,12.214,1.922,10.64,7.068C18.588-2.84,15.669-.824,11.729.259l6.478,8.282ZM7.208-8.265H1.719L.27-3.52H5.618c2.953,0,4.392-.871,4.866-2.42C10.9-7.3,10.07-8.265,7.208-8.265" transform="translate(12.378 13.165)" fill="#85868a"/>
        </g>
      </g>
      <g id="그룹_11561" data-name="그룹 11561" transform="translate(134.303 -10.351)">
        <path id="패스_55568" data-name="패스 55568" d="M0,0,2.064,5.24h7.972L5,21.706h9.1L19.134,5.24h9.194L29.929,0Z" fill="#85868a"/>
      </g>
      <g id="그룹_11563" data-name="그룹 11563" transform="translate(0 -19.653)" clip-path="url(#clip-path-2)">
        <g id="그룹_11562" data-name="그룹 11562" transform="translate(338.725 0.745)">
          <path id="패스_55569" data-name="패스 55569" d="M7.928,12.457c-8.621,0-14.727-1.469-20.148-3.786l7.6-6.457a40.473,40.473,0,0,0,15.09,3.073c6.415,0,9.215-1.469,9.977-3.964.735-2.4-1.306-3.65-5.579-3.65A24.417,24.417,0,0,0,5.135-.545L-5.932-3.038.721-19.2H37.057l-2.15,7.034H9.755L8.007-7.848a38.876,38.876,0,0,1,11.184-1.38c10.757,0,16.775,3.383,14.653,10.33C31.624,8.36,22.1,12.457,7.928,12.457" transform="translate(12.22 19.201)" fill="#85868a"/>
        </g>
      </g>
    </g>
  </g>
</svg>
