<svg xmlns="http://www.w3.org/2000/svg" xmlns:xlink="http://www.w3.org/1999/xlink" width="496" height="52" viewBox="0 0 496 52">
  <defs>
    <clipPath id="clip-path">
      <rect id="사각형_13291" data-name="사각형 13291" width="496" height="52" transform="translate(320.442 855.18)" fill="none" stroke="#707070" stroke-width="1"/>
    </clipPath>
  </defs>
  <g id="bi_Smartflex_AH35" data-name="bi_Smartflex AH35" transform="translate(-320.442 -855.18)" clip-path="url(#clip-path)">
    <g id="그룹_10865" data-name="그룹 10865" transform="translate(205.972 667.61)">
      <g id="그룹_10863" data-name="그룹 10863" transform="translate(114.469 211.551)">
        <path id="패스_54883" data-name="패스 54883" d="M425.874,228.37a6.857,6.857,0,0,1-6.1,4.669H364.623c-2.58,0-4.032-2.09-3.244-4.669l2.854-9.339a6.855,6.855,0,0,1,6.1-4.669h55.155c2.578,0,4.032,2.089,3.243,4.669Z" transform="translate(-204.094 -213.308)" fill="#747474"/>
        <g id="그룹_10860" data-name="그룹 10860" transform="translate(161.417 0.891)">
          <path id="패스_54884" data-name="패스 54884" d="M443.087,223.993l7.5-5.641h-3.563l-5.232,3.984-3.034-3.984h-4.131l4.544,5.99-8.186,6.31h3.653l5.868-4.595,3.445,4.595h4.223Z" transform="translate(-390.878 -215.648)" fill="#fff"/>
          <path id="패스_54885" data-name="패스 54885" d="M371.988,216.034l-4,13.075h3.594l1.906-6.235h7.354l.835-2.734h-7.353l1.044-3.417h9.68l.8-2.617H374.508A2.833,2.833,0,0,0,371.988,216.034Z" transform="translate(-367.991 -214.105)" fill="#fff"/>
          <path id="패스_54886" data-name="패스 54886" d="M399.119,217.409l-3.588,1.544-2.882,9.428a1.378,1.378,0,0,0,1.34,1.929h6.43l1.984-2.123h-6.58Z" transform="translate(-376.917 -215.305)" fill="#fff"/>
          <path id="패스_54887" data-name="패스 54887" d="M415.421,221.175a.948.948,0,0,1,.841-.643h5.864a.612.612,0,0,1,.6.858l-.49,1.6a1.258,1.258,0,0,1-1.121.857h-4.1l-1.984,2.123h7.265a2.833,2.833,0,0,0,2.519-1.93l1.15-3.763a1.379,1.379,0,0,0-1.34-1.929H415.1a2.829,2.829,0,0,0-2.52,1.929L410,228.723a1.379,1.379,0,0,0,1.342,1.929h10.739l.7-2.3H413.87a.46.46,0,0,1-.447-.643l.532-1.738Z" transform="translate(-383.221 -215.648)" fill="#fff"/>
        </g>
        <g id="그룹_10862" data-name="그룹 10862" transform="translate(0 0)">
          <path id="패스_54888" data-name="패스 54888" d="M135.631,223.361c-5.532-.961-6.716-1.474-6.327-2.743.287-.94,1.882-1.945,5.5-1.945a10.3,10.3,0,0,1,7.431,2.625l.2.183,7.427-4.2-.37-.351c-3.036-2.884-7.037-4.226-12.593-4.226-8.12,0-14.815,3.347-16.28,8.139-1.78,5.824,3.492,7.242,9.533,8.283,6.827,1.15,7.391,1.879,7,3.157-.346,1.134-1.435,2.436-6.822,2.436-3.8,0-6.621-.979-8.389-2.911l-.187-.2-7.278,3.832.244.371c2.027,3.077,7.016,4.913,13.346,4.913,13.162,0,16.816-5.523,17.822-8.816C147.693,225.98,141.811,224.436,135.631,223.361Z" transform="translate(-114.469 -212.706)" fill="#747474"/>
          <g id="그룹_10861" data-name="그룹 10861" transform="translate(31.476 6.459)">
            <path id="패스_54889" data-name="패스 54889" d="M186.244,243.958l3.515-10.914-10.765,11.308-3.9-11.308-3.16,10.914H163.9l6.245-20.428H177.7l4.108,11.615,11.252-11.615h7.463l-6.248,20.428Z" transform="translate(-163.905 -223.098)" fill="#747474"/>
            <path id="패스_54890" data-name="패스 54890" d="M235.824,243.711l.417-1.361a16.1,16.1,0,0,1-7.493,1.788c-5.769,0-11.131-2.333-9.618-7.277,1.38-4.515,7.908-6.771,14.913-6.771a16.136,16.136,0,0,1,5.695.818l.309-1.012c.441-1.441-1.333-2.454-4.277-2.454a38.013,38.013,0,0,0-10.98,1.669l-.457-4.195a37.691,37.691,0,0,1,12.838-2.064c7.474,0,12.859,1.955,11.457,6.55l-4.377,14.31Zm2.52-8.256a10.876,10.876,0,0,0-5.34-1.01c-3.062,0-4.948.783-5.446,2.416-.437,1.442.45,2.572,3.923,2.572a10.475,10.475,0,0,0,6.222-1.867Z" transform="translate(-183.874 -222.851)" fill="#747474"/>
            <path id="패스_54891" data-name="패스 54891" d="M283.492,243.958l-5.226-6.886h-3.445l-2.1,6.886h-8.433l6.247-20.428h13.814c7.238,0,11.5,1.81,10.014,6.652-.933,3.065-3.679,4.964-7.388,5.982l6.1,7.794Zm-.775-15.816h-5.165l-1.364,4.465h5.034c2.779,0,4.133-.818,4.58-2.277C286.192,229.046,285.412,228.142,282.717,228.142Z" transform="translate(-200.373 -223.098)" fill="#747474"/>
            <path id="패스_54892" data-name="패스 54892" d="M330.995,228.461l-4.74,15.5h-8.563l4.738-15.5h-7.5l-1.943-4.931h28.167l-1.507,4.931Z" transform="translate(-218.066 -223.098)" fill="#747474"/>
          </g>
        </g>
      </g>
      <g id="그룹_10864" data-name="그룹 10864" transform="translate(338.541 209.528)">
        <path id="패스_54893" data-name="패스 54893" d="M641.194,238.731c-7.7,0-13.728-1.659-17.763-4.329l8.028-5.1a23.623,23.623,0,0,0,11.971,2.954c5.24,0,7.725-.932,8.317-2.872.606-1.983-.982-2.71-5.575-2.71h-6.534l1.867-6.107h5.821c3.946,0,5.4-.527,5.97-2.388.457-1.5-1.106-2.306-5.57-2.306a30.977,30.977,0,0,0-12,2.426l-4.391-5.095a46.743,46.743,0,0,1,18.656-3.681c10.869,0,17.46,2.144,15.628,8.131-.951,3.113-4.321,4.61-7.711,5.54,4.021.607,7.127,2.509,6.026,6.108C661.932,235.859,653.486,238.731,641.194,238.731Z" transform="translate(-523.448 -209.528)" fill="#6d6f72"/>
        <path id="패스_54894" data-name="패스 54894" d="M498.357,239.279l-.938-4.976H483.833l-3.979,4.976H466.4l25.09-28.313h12.68l7.775,28.313Zm-2.346-13.065a51.152,51.152,0,0,1-.747-7.077c-1.163,1.9-2.358,3.478-5.076,7.077l-1.411,1.862h7.506Z" transform="translate(-466.397 -210.05)" fill="#6d6f72"/>
        <path id="패스_54895" data-name="패스 54895" d="M569.929,239.279l3.413-11.163h-14.1l-3.411,11.163H543.016l8.657-28.313h12.81l-3.154,10.314h14.1l3.153-10.314H591.4l-8.656,28.313Z" transform="translate(-494.233 -210.05)" fill="#6d6f72"/>
        <path id="패스_54896" data-name="패스 54896" d="M706.232,238.636a44.4,44.4,0,0,1-18.294-3.439l6.9-5.865a36.735,36.735,0,0,0,13.7,2.791c5.821,0,8.366-1.335,9.058-3.6.668-2.186-1.187-3.317-5.067-3.317a22.172,22.172,0,0,0-8.841,1.617l-10.047-2.265,6.042-14.682h33l-1.956,6.39H707.893l-1.587,3.924a35.228,35.228,0,0,1,10.152-1.254c9.768,0,15.234,3.074,13.3,9.384C727.746,234.914,719.106,238.636,706.232,238.636Z" transform="translate(-546.883 -209.655)" fill="#6d6f72"/>
      </g>
    </g>
  </g>
</svg>
