<svg xmlns="http://www.w3.org/2000/svg" xmlns:xlink="http://www.w3.org/1999/xlink" width="496" height="52" viewBox="0 0 496 52">
  <defs>
    <clipPath id="clip-path">
      <rect id="사각형_13285" data-name="사각형 13285" width="496" height="52" transform="translate(320.442 855.18)" fill="none" stroke="#707070" stroke-width="1"/>
    </clipPath>
  </defs>
  <g id="BI_title_K127" data-name="BI title_K127" transform="translate(-320.442 -855.18)" clip-path="url(#clip-path)">
    <g id="그룹_10877" data-name="그룹 10877" transform="translate(-308.637 61.045)">
      <path id="패스_45827" data-name="패스 45827" d="M658.333,827.788,646.51,843.475l-5.971-15.687H629.079l6.23,16.367h0c1.013,2.881,3.81,6.185,9.331,6.185h8.15l17-22.552Z" transform="translate(0 -4.33)" fill="#fe5a17" fill-rule="evenodd"/>
      <path id="패스_45828" data-name="패스 45828" d="M714.239,827.787H702.8c-12.306,0-13.949,7.5-13.949,7.5L687.4,841.11c-2.111,8.511,9.557,9.123,9.557,9.123l2.767-.016h21.694l1.219-4.833h-20.3c-4.832,0-4.18-3.547-4.18-3.547l.259-1.026H723.8l.945-3.8C727.123,827.433,714.239,827.787,714.239,827.787Zm-1.288,8.342h-13.34c.933-3.733,5.091-3.768,5.091-3.768h4.809C714.617,832.36,712.951,836.129,712.951,836.129Z" transform="translate(-20.654 -4.329)" fill="#fe5a17" fill-rule="evenodd"/>
      <path id="패스_45829" data-name="패스 45829" d="M925.5,832.293H942.38l1.138-4.5H923.231c-10.717,0-12.148,6.529-12.148,6.529l-.313,1.255h.009c-.3,3.2,2.1,4.931,5.6,4.931h13.311c1.422,0,2.1.853,1.544,1.926-.752,1.446-3.124,1.932-4.823,1.932H909.139l-1.481,5.858h21.989c10.71,0,12.143-6.529,12.143-6.529l.307-1.24c.515-3.539-1.717-6.493-5.327-6.493H923.186c-1.094,0-2.209-.584-1.389-1.917a5.154,5.154,0,0,1,3.7-1.747" transform="translate(-99.091 -4.33)" fill="#fe5a17" fill-rule="evenodd"/>
      <path id="패스_45830" data-name="패스 45830" d="M863.129,824.962l-3.611,14.414,0,0-.793,3.181h-6.774c-2.934,0-4.868-1.576-4.308-3.5l3.571-14.1H827.017l1.309-5.118H816.178l-5.137,20.346c-1.151,3.955,3.05,7.2,9.337,7.2h7.429l1.219-4.833h-1.344c-2.931,0-4.869-1.573-4.308-3.493l2.468-9.513h12.151L835.3,840.19c-1.151,3.955,3.053,7.2,9.34,7.2h24.309l5.659-22.43Z" transform="translate(-64.657 -1.504)" fill="#fe5a17" fill-rule="evenodd"/>
      <path id="패스_45831" data-name="패스 45831" d="M772.769,842.014l-8.955-14.226H752.358l-5.694,22.553H758.12l3.592-14.226,8.955,14.226h11.457l5.69-22.553H776.359Z" transform="translate(-41.825 -4.33)" fill="#fe5a17" fill-rule="evenodd"/>
      <path id="패스_45832" data-name="패스 45832" d="M1067.725,816.008c-2.116,2.787-4.65,2.862-11.141,3.073l-1.145,4.9h8.408l-5.5,22.051h13.593l7.354-30.02Z" transform="translate(-151.658 -0.14)" fill="#888"/>
      <g id="그룹_7978" data-name="그룹 7978" transform="translate(857.673 815.615)">
        <path id="패스_45833" data-name="패스 45833" d="M1024.5,823.837l1.264-5.429c-2.481-1.86-7.473-2.793-15.024-2.793-12.936,0-20.33,2.414-22.22,7.325a3.39,3.39,0,0,0-.191,1.589,3.836,3.836,0,0,0,1.735,2.739,28.221,28.221,0,0,0,7.953,3.649q4.853,1.551,9.664,3.118c2.453.852,2.647,1.842,2.808,2.966a2.381,2.381,0,0,1-.122,1c-.733,2.346-2.728,3.533-8.2,3.533-4.229,0-6.456-.953-6.683-2.844a4.737,4.737,0,0,1,.271-2.006h-9.57l-2.307,6.016c2.512,2.28,8.052,3.44,16.64,3.44,6.661,0,12.677-.325,17.1-1.863,4.388-1.526,6.535-4.156,7.376-6.955a4.684,4.684,0,0,0,.217-2.274q-.406-2.155-4.126-3.992a109.445,109.445,0,0,0-13.728-4.674,34.238,34.238,0,0,1-3.986-1.413c-1.21-.5-1.852-1.088-1.95-1.771a1.248,1.248,0,0,1,.158-.837q.959-2.67,7.788-2.665,5.67,0,6.087,2.415a7.931,7.931,0,0,1,.123,1.732Z" transform="translate(-983.875 -815.615)" fill="#888"/>
      </g>
      <path id="패스_45834" data-name="패스 45834" d="M1174.512,834.6l-9.456,12.55-4.779-12.55h-9.166l4.984,13.093h0a7.447,7.447,0,0,0,7.465,4.949h6.52l13.6-18.042Z" transform="translate(-185.688 -6.753)" fill="#888" fill-rule="evenodd"/>
      <path id="패스_45835" data-name="패스 45835" d="M1124.648,834.6H1115.5c-9.844,0-11.158,6-11.158,6l-1.16,4.659c-1.691,6.81,7.643,7.3,7.643,7.3l2.214-.012h17.354l.98-3.864h-16.246c-3.867,0-3.345-2.838-3.345-2.838l.209-.82H1132.3l.754-3.044C1134.959,834.315,1124.648,834.6,1124.648,834.6Zm-1.032,6.672h-10.672c.745-2.984,4.072-3.014,4.072-3.014h3.848C1124.952,838.256,1123.616,841.27,1123.616,841.27Z" transform="translate(-168.566 -6.752)" fill="#888" fill-rule="evenodd"/>
      <path id="패스_45836" data-name="패스 45836" d="M1219.438,834.6h-9.731c-9.846,0-11.208,6-11.208,6l-1.536,5.959s-1.725,6,8.118,6h9.73c9.846,0,11.209-6,11.209-6l1.535-5.959S1229.281,834.6,1219.438,834.6Zm-.832,6.672-1.186,4.612c-.775,2.984-4.1,3.014-4.1,3.014h-4.866s-3.308-.03-2.546-3.014l1.189-4.612c.772-2.984,4.1-3.014,4.1-3.014h4.865S1219.369,838.287,1218.605,841.271Z" transform="translate(-201.957 -6.753)" fill="#888" fill-rule="evenodd"/>
      <g id="그룹_7979" data-name="그룹 7979" transform="translate(1027.915 816.639)">
        <path id="패스_45837" data-name="패스 45837" d="M1274.545,829.149a4.589,4.589,0,0,1-1.565,2.406,10.159,10.159,0,0,1-3.126,1.718,22.086,22.086,0,0,1-4.437,1.04,40.322,40.322,0,0,1-5.5.35,26.139,26.139,0,0,1-6.578-.774,14.917,14.917,0,0,1-5.239-2.466l5.362-2.08a11.58,11.58,0,0,0,3.574,1.559,18.438,18.438,0,0,0,4.313.447,15.518,15.518,0,0,0,4.8-.568q1.648-.566,1.905-1.583a1.175,1.175,0,0,0-.839-1.463,8.974,8.974,0,0,0-3.371-.472h-3.787l.838-3.313h3.421a7.7,7.7,0,0,0,2.984-.436,1.92,1.92,0,0,0,1.191-1.281.786.786,0,0,0-.114-.629,1.609,1.609,0,0,0-.749-.557,6.284,6.284,0,0,0-1.545-.387,17.829,17.829,0,0,0-2.5-.145,15.221,15.221,0,0,0-6.61,1.427l-4.084-2.249a24.7,24.7,0,0,1,5.332-1.874,28.8,28.8,0,0,1,6.292-.617,31.014,31.014,0,0,1,4.508.3,15.112,15.112,0,0,1,3.492.895,4.925,4.925,0,0,1,2.13,1.5,2.35,2.35,0,0,1,.385,2.092,3.633,3.633,0,0,1-1.7,2.224,10.077,10.077,0,0,1-2.866,1.233,10.143,10.143,0,0,1,1.531.436,6.214,6.214,0,0,1,1.433.737,3.178,3.178,0,0,1,.983,1.076A1.947,1.947,0,0,1,1274.545,829.149Z" transform="translate(-1248.104 -817.204)" fill="#888"/>
      </g>
    </g>
  </g>
</svg>
