<svg xmlns="http://www.w3.org/2000/svg" xmlns:xlink="http://www.w3.org/1999/xlink" width="540" height="52" viewBox="0 0 540 52">
  <defs>
    <clipPath id="clip-path">
      <rect id="사각형_13295" data-name="사각형 13295" width="540" height="52" transform="translate(320.442 855.18)" fill="none" stroke="#707070" stroke-width="1"/>
    </clipPath>
  </defs>
  <g id="BI_title_K127" data-name="BI title_K127" transform="translate(-320.442 -855.18)" clip-path="url(#clip-path)">
    <g id="그룹_10950" data-name="그룹 10950" transform="translate(-308.637 61.045)">
      <path id="패스_55286" data-name="패스 55286" d="M658.333,827.788,646.51,843.475l-5.971-15.687H629.079l6.23,16.367h0c1.013,2.881,3.81,6.185,9.331,6.185h8.15l17-22.552Z" transform="translate(0 -4.33)" fill="#fe5a17" fill-rule="evenodd"/>
      <path id="패스_55287" data-name="패스 55287" d="M714.239,827.787H702.8c-12.306,0-13.949,7.5-13.949,7.5L687.4,841.11c-2.111,8.511,9.557,9.123,9.557,9.123l2.767-.016h21.694l1.219-4.833h-20.3c-4.832,0-4.18-3.547-4.18-3.547l.259-1.026H723.8l.945-3.8C727.123,827.433,714.239,827.787,714.239,827.787Zm-1.288,8.342h-13.34c.933-3.733,5.091-3.768,5.091-3.768h4.809C714.617,832.36,712.951,836.129,712.951,836.129Z" transform="translate(-20.654 -4.329)" fill="#fe5a17" fill-rule="evenodd"/>
      <path id="패스_55288" data-name="패스 55288" d="M925.5,832.293H942.38l1.138-4.5H923.231c-10.717,0-12.148,6.529-12.148,6.529l-.313,1.255h.009c-.3,3.2,2.1,4.931,5.6,4.931h13.311c1.422,0,2.1.853,1.544,1.926-.752,1.446-3.124,1.932-4.823,1.932H909.139l-1.481,5.858h21.989c10.71,0,12.143-6.529,12.143-6.529l.307-1.24c.515-3.539-1.717-6.493-5.327-6.493H923.186c-1.094,0-2.209-.584-1.389-1.917a5.154,5.154,0,0,1,3.7-1.747" transform="translate(-99.091 -4.33)" fill="#fe5a17" fill-rule="evenodd"/>
      <path id="패스_55289" data-name="패스 55289" d="M863.129,824.962l-3.611,14.414,0,0-.793,3.181h-6.774c-2.934,0-4.868-1.576-4.308-3.5l3.571-14.1H827.017l1.309-5.118H816.178l-5.137,20.346c-1.151,3.955,3.05,7.2,9.337,7.2h7.429l1.219-4.833h-1.344c-2.931,0-4.869-1.573-4.308-3.493l2.468-9.513h12.151L835.3,840.19c-1.151,3.955,3.053,7.2,9.34,7.2h24.309l5.659-22.43Z" transform="translate(-64.657 -1.504)" fill="#fe5a17" fill-rule="evenodd"/>
      <path id="패스_55290" data-name="패스 55290" d="M772.769,842.014l-8.955-14.226H752.358l-5.694,22.553H758.12l3.592-14.226,8.955,14.226h11.457l5.69-22.553H776.359Z" transform="translate(-41.825 -4.33)" fill="#fe5a17" fill-rule="evenodd"/>
      <path id="패스_55291" data-name="패스 55291" d="M1067.725,816.008c-2.116,2.787-4.65,2.862-11.141,3.073l-1.145,4.9h8.408l-5.5,22.051h13.593l7.354-30.02Z" transform="translate(-151.658 -0.14)" fill="#888"/>
      <g id="그룹_10948" data-name="그룹 10948" transform="translate(857.673 815.615)">
        <path id="패스_55292" data-name="패스 55292" d="M1024.5,823.837l1.264-5.429c-2.481-1.86-7.473-2.793-15.024-2.793-12.936,0-20.33,2.414-22.22,7.325a3.39,3.39,0,0,0-.191,1.589,3.836,3.836,0,0,0,1.735,2.739,28.221,28.221,0,0,0,7.953,3.649q4.853,1.551,9.664,3.118c2.453.852,2.647,1.842,2.808,2.966a2.381,2.381,0,0,1-.122,1c-.733,2.346-2.728,3.533-8.2,3.533-4.229,0-6.456-.953-6.683-2.844a4.737,4.737,0,0,1,.271-2.006h-9.57l-2.307,6.016c2.512,2.28,8.052,3.44,16.64,3.44,6.661,0,12.677-.325,17.1-1.863,4.388-1.526,6.535-4.156,7.376-6.955a4.684,4.684,0,0,0,.217-2.274q-.406-2.155-4.126-3.992a109.445,109.445,0,0,0-13.728-4.674,34.238,34.238,0,0,1-3.986-1.413c-1.21-.5-1.852-1.088-1.95-1.771a1.248,1.248,0,0,1,.158-.837q.959-2.67,7.788-2.665,5.67,0,6.087,2.415a7.931,7.931,0,0,1,.123,1.732Z" transform="translate(-983.875 -815.615)" fill="#888"/>
      </g>
      <path id="패스_55293" data-name="패스 55293" d="M1174.512,834.6l-9.456,12.55-4.779-12.55h-9.166l4.984,13.093h0a7.447,7.447,0,0,0,7.465,4.949h6.52l13.6-18.042Z" transform="translate(-185.688 -6.753)" fill="#888" fill-rule="evenodd"/>
      <path id="패스_55294" data-name="패스 55294" d="M1124.648,834.6H1115.5c-9.844,0-11.158,6-11.158,6l-1.16,4.659c-1.691,6.81,7.643,7.3,7.643,7.3l2.214-.012h17.354l.98-3.864h-16.246c-3.867,0-3.345-2.838-3.345-2.838l.209-.82H1132.3l.754-3.044C1134.959,834.315,1124.648,834.6,1124.648,834.6Zm-1.032,6.672h-10.672c.745-2.984,4.072-3.014,4.072-3.014h3.848C1124.952,838.256,1123.616,841.27,1123.616,841.27Z" transform="translate(-168.566 -6.752)" fill="#888" fill-rule="evenodd"/>
      <path id="패스_55295" data-name="패스 55295" d="M1219.438,834.6h-9.731c-9.846,0-11.208,6-11.208,6l-1.536,5.959s-1.725,6,8.118,6h9.73c9.846,0,11.209-6,11.209-6l1.535-5.959S1229.281,834.6,1219.438,834.6Zm-.832,6.672-1.186,4.612c-.775,2.984-4.1,3.014-4.1,3.014h-4.866s-3.308-.03-2.546-3.014l1.189-4.612c.772-2.984,4.1-3.014,4.1-3.014h4.865S1219.369,838.287,1218.605,841.271Z" transform="translate(-201.957 -6.753)" fill="#888" fill-rule="evenodd"/>
      <g id="그룹_10949" data-name="그룹 10949" transform="translate(1027.915 816.639)">
        <path id="패스_55296" data-name="패스 55296" d="M1274.545,829.149a4.589,4.589,0,0,1-1.565,2.406,10.159,10.159,0,0,1-3.126,1.718,22.086,22.086,0,0,1-4.437,1.04,40.322,40.322,0,0,1-5.5.35,26.139,26.139,0,0,1-6.578-.774,14.917,14.917,0,0,1-5.239-2.466l5.362-2.08a11.58,11.58,0,0,0,3.574,1.559,18.438,18.438,0,0,0,4.313.447,15.518,15.518,0,0,0,4.8-.568q1.648-.566,1.905-1.583a1.175,1.175,0,0,0-.839-1.463,8.974,8.974,0,0,0-3.371-.472h-3.787l.838-3.313h3.421a7.7,7.7,0,0,0,2.984-.436,1.92,1.92,0,0,0,1.191-1.281.786.786,0,0,0-.114-.629,1.609,1.609,0,0,0-.749-.557,6.284,6.284,0,0,0-1.545-.387,17.829,17.829,0,0,0-2.5-.145,15.221,15.221,0,0,0-6.61,1.427l-4.084-2.249a24.7,24.7,0,0,1,5.332-1.874,28.8,28.8,0,0,1,6.292-.617,31.014,31.014,0,0,1,4.508.3,15.112,15.112,0,0,1,3.492.895,4.925,4.925,0,0,1,2.13,1.5,2.35,2.35,0,0,1,.385,2.092,3.633,3.633,0,0,1-1.7,2.224,10.077,10.077,0,0,1-2.866,1.233,10.143,10.143,0,0,1,1.531.436,6.214,6.214,0,0,1,1.433.737,3.178,3.178,0,0,1,.983,1.076A1.947,1.947,0,0,1,1274.545,829.149Z" transform="translate(-1248.104 -817.204)" fill="#888"/>
      </g>
    </g>
    <g id="그룹_10951" data-name="그룹 10951" transform="translate(-220.441 147.411)">
      <path id="패스_45813" data-name="패스 45813" d="M570.137,741.422l-11.824,15.687-5.971-15.687H540.883l6.23,16.366h0c1.013,2.882,3.81,6.186,9.331,6.186h8.15l17-22.552Z" transform="translate(0 -4.33)" fill="#fe5a17" fill-rule="evenodd"/>
      <path id="패스_45814" data-name="패스 45814" d="M626.042,741.421H614.6c-12.306,0-13.948,7.5-13.948,7.5l-1.452,5.825c-2.111,8.511,9.557,9.123,9.557,9.123l2.766-.016h21.694l1.219-4.832h-20.3c-4.832,0-4.18-3.548-4.18-3.548l.259-1.025H635.6l.946-3.8C638.927,741.066,626.042,741.421,626.042,741.421Zm-1.287,8.342H611.414c.933-3.733,5.091-3.769,5.091-3.769h4.809C626.42,745.994,624.755,749.763,624.755,749.763Z" transform="translate(-20.654 -4.329)" fill="#fe5a17" fill-rule="evenodd"/>
      <path id="패스_45815" data-name="패스 45815" d="M837.3,745.926h16.884l1.139-4.5H835.034c-10.717,0-12.148,6.529-12.148,6.529l-.313,1.255h.009c-.3,3.2,2.1,4.931,5.6,4.931h13.311c1.422,0,2.1.852,1.544,1.926-.751,1.445-3.124,1.931-4.823,1.931H820.943l-1.482,5.858H841.45c10.709,0,12.144-6.528,12.144-6.528l.307-1.24c.515-3.539-1.717-6.493-5.327-6.493H834.989c-1.094,0-2.209-.584-1.389-1.916a5.151,5.151,0,0,1,3.7-1.747" transform="translate(-99.091 -4.33)" fill="#fe5a17" fill-rule="evenodd"/>
      <path id="패스_45816" data-name="패스 45816" d="M774.933,738.6l-3.61,14.414,0,0-.793,3.181h-6.774c-2.933,0-4.868-1.577-4.308-3.5l3.571-14.1H738.821l1.309-5.119H727.981l-5.136,20.347c-1.152,3.955,3.049,7.2,9.337,7.2h7.429l1.22-4.832h-1.345c-2.931,0-4.868-1.573-4.308-3.493l2.468-9.512H749.8l-2.689,10.637c-1.151,3.955,3.052,7.2,9.34,7.2h24.309l5.659-22.429Z" transform="translate(-64.657 -1.504)" fill="#fe5a17" fill-rule="evenodd"/>
      <path id="패스_45817" data-name="패스 45817" d="M684.572,755.648l-8.955-14.226H664.161l-5.694,22.553h11.457l3.592-14.226,8.955,14.226h11.457l5.69-22.553H688.162Z" transform="translate(-41.825 -4.33)" fill="#fe5a17" fill-rule="evenodd"/>
      <path id="패스_45818" data-name="패스 45818" d="M979.529,729.642c-2.117,2.787-4.651,2.861-11.141,3.073l-1.145,4.9h8.407l-5.5,22.05H983.75l7.353-30.019Z" transform="translate(-151.658 -0.14)" fill="#888"/>
      <g id="그룹_7974" data-name="그룹 7974" transform="translate(769.477 729.249)">
        <path id="패스_45819" data-name="패스 45819" d="M936.3,737.471l1.264-5.43c-2.481-1.859-7.473-2.792-15.025-2.792-12.936,0-20.33,2.414-22.219,7.324a3.382,3.382,0,0,0-.191,1.589,3.833,3.833,0,0,0,1.734,2.74,28.226,28.226,0,0,0,7.954,3.649q4.852,1.55,9.663,3.118c2.453.853,2.647,1.843,2.808,2.966a2.387,2.387,0,0,1-.122,1c-.733,2.347-2.728,3.533-8.2,3.533-4.229,0-6.456-.954-6.683-2.843a4.746,4.746,0,0,1,.271-2.006h-9.569l-2.307,6.015c2.513,2.281,8.052,3.441,16.64,3.441,6.661,0,12.677-.325,17.1-1.863,4.388-1.527,6.534-4.156,7.376-6.955a4.686,4.686,0,0,0,.216-2.275q-.406-2.154-4.125-3.991a109.425,109.425,0,0,0-13.728-4.674,34.3,34.3,0,0,1-3.986-1.413c-1.211-.5-1.853-1.088-1.951-1.771a1.25,1.25,0,0,1,.158-.838q.959-2.669,7.788-2.665,5.67,0,6.087,2.415a7.937,7.937,0,0,1,.123,1.732Z" transform="translate(-895.678 -729.249)" fill="#888"/>
      </g>
      <path id="패스_45820" data-name="패스 45820" d="M1086.316,748.233l-9.456,12.55-4.78-12.55h-9.166l4.984,13.092h0a7.445,7.445,0,0,0,7.464,4.949h6.521l13.6-18.041Z" transform="translate(-185.688 -6.753)" fill="#888" fill-rule="evenodd"/>
      <path id="패스_45821" data-name="패스 45821" d="M1036.451,748.232H1027.3c-9.844,0-11.158,6-11.158,6l-1.16,4.66c-1.691,6.809,7.644,7.3,7.644,7.3l2.214-.012h17.354l.98-3.864h-16.247c-3.866,0-3.345-2.838-3.345-2.838l.208-.82H1044.1l.754-3.044C1046.762,747.949,1036.451,748.232,1036.451,748.232Zm-1.032,6.672h-10.672c.745-2.984,4.073-3.014,4.073-3.014h3.848C1036.755,751.89,1035.419,754.9,1035.419,754.9Z" transform="translate(-168.565 -6.752)" fill="#888" fill-rule="evenodd"/>
      <path id="패스_45822" data-name="패스 45822" d="M1131.241,748.233h-9.731c-9.846,0-11.208,6-11.208,6l-1.535,5.959s-1.726,6,8.117,6h9.731c9.846,0,11.209-6,11.209-6l1.535-5.959S1141.085,748.233,1131.241,748.233Zm-.832,6.672-1.186,4.612c-.775,2.984-4.1,3.014-4.1,3.014h-4.866s-3.309-.03-2.546-3.014l1.189-4.612c.773-2.984,4.1-3.014,4.1-3.014h4.865S1131.172,751.92,1130.409,754.9Z" transform="translate(-201.956 -6.753)" fill="#888" fill-rule="evenodd"/>
      <path id="패스_45823" data-name="패스 45823" d="M1238.307,761.86c-7.539,0-12.015-2.151-14.443-3.957l-1.218-.908,5.989-3.245,1.108.8a14.5,14.5,0,0,0,9.043,2.685c2.882,0,6.25-.762,6.25-2.908,0-1.21-1.006-2.064-6.719-3.653-6.77-1.844-10.2-3.476-10.2-7.277,0-4.114,6-7.335,13.653-7.335,5.589,0,9.647.954,13.158,3.1l1.412.869-5.835,3.45-1.161-.744c-1.984-1.267-4.047-2.052-8.212-2.052-3.705,0-5.395,1.274-5.395,2.456,0,.923.323,1.577,6.657,3.324,6.66,1.83,10.264,3.585,10.264,7.606C1252.656,758.585,1246.622,761.86,1238.307,761.86Z" transform="translate(-242.505 -2.424)" fill="#888"/>
      <path id="패스_45824" data-name="패스 45824" d="M1333.2,762.593l-6.408-24.468h7.257l4.294,17.726,14.475-17.726h7.687l-20.588,24.468Z" transform="translate(-279.549 -3.157)" fill="#888"/>
      <path id="패스_45825" data-name="패스 45825" d="M1298.34,738.033l-4.5,16.1-.242.868-1.042,3.745.4-1.452c-.216,1.452-1.974,1.452-1.974,1.452h-5.94a5.367,5.367,0,0,1-4.444-1.938,3.79,3.79,0,0,1-.533-3.453l4.319-15.323h-7.27l-1.269,4.673-3.531,12.551a4.653,4.653,0,0,0,.629,4.3c1.322,1.8,3.993,2.874,7.149,2.874l18.663.023,6.857-24.4Z" transform="translate(-260.08 -3.124)" fill="#888"/>
      <g id="그룹_7975" data-name="그룹 7975" transform="translate(939.719 730.273)">
        <path id="패스_45826" data-name="패스 45826" d="M1186.349,742.783a4.6,4.6,0,0,1-1.565,2.406,10.162,10.162,0,0,1-3.127,1.717,22.04,22.04,0,0,1-4.437,1.04,40.2,40.2,0,0,1-5.5.35,26.105,26.105,0,0,1-6.578-.774,14.912,14.912,0,0,1-5.239-2.466l5.362-2.079a11.616,11.616,0,0,0,3.574,1.559,18.468,18.468,0,0,0,4.313.447,15.51,15.51,0,0,0,4.8-.568q1.649-.567,1.905-1.583a1.176,1.176,0,0,0-.838-1.463,8.994,8.994,0,0,0-3.372-.472h-3.786l.837-3.313h3.421a7.721,7.721,0,0,0,2.984-.436,1.922,1.922,0,0,0,1.191-1.281.789.789,0,0,0-.115-.629,1.6,1.6,0,0,0-.749-.557,6.284,6.284,0,0,0-1.545-.387,17.728,17.728,0,0,0-2.5-.145,15.222,15.222,0,0,0-6.61,1.426l-4.084-2.249a24.678,24.678,0,0,1,5.332-1.874,28.8,28.8,0,0,1,6.291-.617,31,31,0,0,1,4.508.3,15.118,15.118,0,0,1,3.493.895,4.932,4.932,0,0,1,2.13,1.5,2.351,2.351,0,0,1,.384,2.091,3.635,3.635,0,0,1-1.7,2.225,10.093,10.093,0,0,1-2.866,1.233,10.119,10.119,0,0,1,1.531.436,6.214,6.214,0,0,1,1.433.737,3.17,3.17,0,0,1,.983,1.076A1.949,1.949,0,0,1,1186.349,742.783Z" transform="translate(-1159.908 -730.838)" fill="#888"/>
      </g>
    </g>
  </g>
</svg>
