<svg xmlns="http://www.w3.org/2000/svg" xmlns:xlink="http://www.w3.org/1999/xlink" width="496" height="52" viewBox="0 0 496 52">
  <defs>
    <clipPath id="clip-path">
      <rect id="사각형_13299" data-name="사각형 13299" width="496" height="52" transform="translate(320.442 855.18)" fill="none" stroke="#707070" stroke-width="1"/>
    </clipPath>
  </defs>
  <g id="BI_title_H750" data-name="BI title_H750" transform="translate(-320.442 -855.18)" clip-path="url(#clip-path)">
    <g id="H750X" transform="translate(-1728.236 -64.764)">
      <g id="그룹_10972" data-name="그룹 10972" transform="translate(2048.677 926.906)">
        <g id="그룹_10971" data-name="그룹 10971">
          <path id="패스_55407" data-name="패스 55407" d="M2140.624,975.082l7.656-28.578H2139.1c-.043.161-7.586,28.3-7.66,28.578Z" transform="translate(-2096.018 -930.377)" fill="#333"/>
          <path id="패스_55408" data-name="패스 55408" d="M2186.84,949.121c-1.332-1.738-3.849-2.618-7.476-2.618H2158.2c-.044.163-7.584,28.3-7.659,28.578h9.19c.042-.161,6.042-22.554,6.042-22.554h7.835c1.976,0,3.285.455,4,1.39a3.553,3.553,0,0,1,.637,2.208,11.394,11.394,0,0,1-.457,2.838l-4.324,16.117h9.188c.044-.161,4.737-17.658,4.737-17.658a16.719,16.719,0,0,0,.646-4.252,6.443,6.443,0,0,0-1.194-4.05" transform="translate(-2099.901 -930.377)" fill="#333"/>
          <path id="패스_55409" data-name="패스 55409" d="M2211.213,958.141l.587-2.2c.821-3.06,2.892-4.611,6.157-4.611h15.974c.042-.155,1.224-4.564,1.291-4.823h-20.268c-6.234,0-10.642,3.106-12.095,8.524,0,0-5.3,19.777-5.372,20.054h30.079c.043-.153,1.226-4.566,1.292-4.825h-20.889l1.821-6.816h18.232l1.42-5.3Z" transform="translate(-2109.445 -930.377)" fill="#333"/>
          <path id="패스_55410" data-name="패스 55410" d="M2289.815,960.8a12.465,12.465,0,0,0-.441,3.238,9.975,9.975,0,0,0,2.042,6.168c2.413,3.146,6.629,4.878,11.869,4.878h15.354c.044-.161,4.471-16.689,4.538-16.941h-14.653c-.042.153-1.354,5.041-1.424,5.3h5.473l-1.825,6.817h-3.584c-3.662,0-6.048-.789-7.3-2.413a5.5,5.5,0,0,1-1.021-3.458,14.214,14.214,0,0,1,.544-3.6c1.758-6.544,5.7-9.462,12.782-9.462h11.5l1.295-4.823H2311c-9.894,0-19,6.145-21.187,14.294" transform="translate(-2128.125 -930.377)" fill="#333"/>
          <path id="패스_55411" data-name="패스 55411" d="M2346.064,946.5H2337.3l7.325,18.717-9.168,9.862,9.094.034,26.565-28.614h-9.092c-.066.07-11.211,12.057-11.211,12.057s-4.692-11.92-4.747-12.057" transform="translate(-2137.492 -930.377)" fill="#333"/>
          <path id="패스_55412" data-name="패스 55412" d="M2265.557,946.5h-17.2l-7.656,28.578h9.185c.044-.161,6.493-24.23,6.493-24.23h4.131l1.162,0c3.344-.022,6.23-.04,7.39,1.462a3.532,3.532,0,0,1,.292,3.18c-1.2,4.481-5.785,4.442-10.216,4.407l-1.209-.006h-3.005c.177.319,8.35,15.079,8.412,15.192h10.156c-.186-.32-6.731-11.641-6.731-11.641h.19c5.956,0,10.156-2.937,11.527-8.057a10.081,10.081,0,0,0,.382-2.59,4.959,4.959,0,0,0-.978-3.128c-1.678-2.189-5.477-3.162-12.321-3.162" transform="translate(-2118.229 -930.377)" fill="#333"/>
          <path id="패스_55413" data-name="패스 55413" d="M2125.534,946.5c-.658,0-10.767-.02-10.767-.02l-13.525,9.652s2.508-9.362,2.581-9.631h-9.189l-7.654,28.578h9.183c.044-.159,2.709-10.109,2.709-10.109l.135.151s8.916,9.906,8.916,9.958h11.954c-.326-.359-13.537-15-13.537-15s18.631-13.187,19.194-13.577" transform="translate(-2086.98 -930.371)" fill="#333"/>
        </g>
        <path id="패스_55414" data-name="패스 55414" d="M2209.817,935.346l-1.041,3.879h45.459l1.039-3.879Z" transform="translate(-2111.74 -928.109)" fill="#c8d900"/>
        <path id="패스_55415" data-name="패스 55415" d="M2375.552,929.241l-2.236-2.979a40.341,40.341,0,0,1-22.286,7.217l-23.825.008-1.044,3.893,24.3,0a44.78,44.78,0,0,0,25.09-8.135" transform="translate(-2135.603 -926.262)" fill="#00a53b"/>
        <path id="패스_55416" data-name="패스 55416" d="M2268.568,935.346l-1.041,3.879h45.459l1.039-3.879Z" transform="translate(-2123.683 -928.109)" fill="#6ab32e"/>
        <path id="패스_55417" data-name="패스 55417" d="M2400.55,964.232l2.929-10.222-17.271,10.222Zm11.622,4.141h-3.333l-1.938,6.753h-9.588l1.936-6.753h-20.661l1.059-5.5,29.082-16.321h6.369l-5.073,17.684h3.335Z" transform="translate(-2146.261 -930.386)" fill="#6ab32e"/>
        <path id="패스_55418" data-name="패스 55418" d="M2449.64,969.677q-1.042,3.64-5.547,5.379a32.858,32.858,0,0,1-11.638,1.736,66.454,66.454,0,0,1-6.8-.29,30.94,30.94,0,0,1-4.419-.735l1.128-3.936a19.7,19.7,0,0,0,4.2.981,38.84,38.84,0,0,0,5.876.449,18.3,18.3,0,0,0,5.908-.669,3.329,3.329,0,0,0,2.2-2.216,1.617,1.617,0,0,0-.617-1.773q-.9-.774-5.822-2.048a14.441,14.441,0,0,1-5.749-2.632,3.893,3.893,0,0,1-1.053-4.361q.758-2.64,5-4.459a27.528,27.528,0,0,1,10.8-1.821,45.4,45.4,0,0,1,5.63.31,33.6,33.6,0,0,1,3.408.554l-1,3.506q-2.061-.323-4.119-.566a37.969,37.969,0,0,0-4.459-.244,15.27,15.27,0,0,0-5.086.635q-1.682.632-1.956,1.585a1.492,1.492,0,0,0,.6,1.835q.946.623,6.083,1.837,4.782,1.117,6.455,2.842a3.947,3.947,0,0,1,.989,4.1" transform="translate(-2154.93 -931.755)" fill="#6ab32e"/>
        <path id="패스_55419" data-name="패스 55419" d="M2465.34,955.3c1.212-4.168,5.126-6.182,10.844-7.558,2.431-.584,2.81-.781,2.92-1.273.139-.55-.465-.85-2.179-.85a20.149,20.149,0,0,0-6.721,1.255l-2.121-2.524a28.792,28.792,0,0,1,9.623-1.607c5.37,0,7.867,1.236,7.318,3.478-.4,1.625-1.631,2.614-6.022,3.71-4.582,1.146-5.956,1.839-6.6,2.58h11.234l-.687,2.79Z" transform="translate(-2163.897 -929.613)" fill="#6ab32e"/>
      </g>
    </g>
  </g>
</svg>
