<svg xmlns="http://www.w3.org/2000/svg" xmlns:xlink="http://www.w3.org/1999/xlink" width="540" height="52" viewBox="0 0 540 52">
  <defs>
    <clipPath id="clip-path">
      <rect id="사각형_13289" data-name="사각형 13289" width="540" height="52" transform="translate(320.442 855.18)" fill="none" stroke="#707070" stroke-width="1"/>
    </clipPath>
  </defs>
  <g id="BI_title_RF12" data-name="BI title_RF12" transform="translate(-320.442 -855.18)" clip-path="url(#clip-path)">
    <g id="Layer_1" data-name="Layer 1" transform="translate(123.974 876.97)">
      <g id="그룹_7957" data-name="그룹 7957" transform="translate(196.467 1.748)">
        <g id="그룹_7954" data-name="그룹 7954" transform="translate(0 0.058)">
          <g id="그룹_7953" data-name="그룹 7953" transform="translate(216.909 3.278)">
            <path id="패스_45764" data-name="패스 45764" d="M878.982,11.893l-11.26-.006c-3.513,0-8.653,2.061-9.408,5.045l-2.505,10.113c-.524,2.575,2.016,6.452,6.766,6.452h12.847c4.131,0,8.84-2.832,9.678-6.144l2.407-9.724C888.04,14.828,884,11.893,878.982,11.893Zm-3.088,7.729-1.549,6.545a3.7,3.7,0,0,1-3.7,2.3h-.577c-1.911,0-2.887-1.158-2.689-2.074L869.2,18.7c.876-1.552,1.93-1.552,3.573-1.552h.751C875.654,17.144,876.221,18.3,875.894,19.623Z" transform="translate(-855.741 -11.887)" fill="#a58800"/>
          </g>
          <path id="패스_45765" data-name="패스 45765" d="M435.638,12.02H425.033l-5.405,21.607h11.195l4.1-16.425a2.042,2.042,0,0,1,2.359-1.763h2.036c2,0,2.067.768,1.695,2.246L437,33.627h11.273l3.859-15.613c.942-3.714-.792-5.994-5.411-5.994Z" transform="translate(-346.205 -8.699)" fill="#a58800"/>
          <path id="패스_45766" data-name="패스 45766" d="M548.722,19.9h-12.15c-3.155,0-5.889,1.321-6.609,4.157l-.948,4.492c-.978,3.861,1.178,5,5.487,5h21.934l4.12-16.459c.784-3.09-1.265-5.148-4.986-5.185l-19.329.038-.87,3.419h12.157c1.156,0,2.337.072,2.037,1.251l-.842,3.283m0,0M546.13,30.127h-4.239c-2,0-2.332-.771-1.945-2.322l.716-2.209c.4-1.58,1.674-2.315,3.717-2.315h3.5Z" transform="translate(-419.446 -8.622)" fill="#a58800"/>
          <path id="패스_45767" data-name="패스 45767" d="M657.9,12.328h-22.29l-6.375,24.878h11.738l1.858-7.153h10.582c4.439,0,8.073-.846,9.144-5.073l1.909-7.542C665.568,13.1,662.215,12.328,657.9,12.328Zm-4.8,6.253-1.154,4.56c-.523,2.058-.771,2.868-3.616,2.868h-4.474l2.439-9.637h5.056C653.355,16.372,653.492,17.073,653.106,18.581Z" transform="translate(-486.85 -8.905)" fill="#a58800"/>
          <path id="패스_45768" data-name="패스 45768" d="M327.4,30.155l-.232.921c-.408,1.615-.8,2.461-3.022,2.461H309.1L308.2,37.1h18.828c5.761-.113,9.86-.141,11.3-5.848l.236-1.1,4.593-18.135H331.991l-3.042,12.025c-.363,1.255-.64,2.687-2.635,2.687h-1.549c-2.573,0-2.663-.875-2.172-2.831l3.012-11.881H314.4l-2.745,10.854c-1.239,4.892-.028,7.281,6.2,7.281Z" transform="translate(-271.435 -8.699)" fill="#a58800"/>
          <path id="패스_45769" data-name="패스 45769" d="M226.119,1.925H202.783l-6.316,24.928h23.34c5.641,0,8.473-2.993,9.527-7.139l2.7-10.654C233.089,4.876,231.624,1.925,226.119,1.925Zm-6.025,7.029-2.757,10.868c-.5,1.983-.918,2.915-3.672,2.915h-4.236l4.23-16.7H217.9C220.649,6.034,220.6,6.969,220.094,8.954Z" transform="translate(-196.467 -1.925)" fill="#a58800"/>
          <path id="패스_45770" data-name="패스 45770" d="M768.615,11.887H745.709L740.1,33.5h11.738l1.858-7.153h4.4l2.66,7.153h11.738l-2.863-7.7a5.938,5.938,0,0,0,4.4-4.525L775.182,17C776.281,12.658,772.927,11.887,768.615,11.887ZM756.4,15.931h5.056c2,0,2.136.7,1.749,2.209l-.392,1.291c-.523,2.058-.771,2.868-3.616,2.868H754.72Z" transform="translate(-561.236 -8.609)" fill="#a58800"/>
        </g>
        <g id="그룹_7956" data-name="그룹 7956" transform="translate(259.067 0)">
          <g id="그룹_7955" data-name="그룹 7955" transform="translate(115.274 6.644)">
            <path id="패스_45774" data-name="패스 45774" d="M1349.991,35.79a9.442,9.442,0,0,1-1.279-2.857,17.649,17.649,0,0,1-2.565,2.857l-4.435,4.31h-7.471l10.184-9.346-5.672-8.812h7.762l2.328,4.067a12.648,12.648,0,0,1,1.227,2.76,31.441,31.441,0,0,1,2.623-2.784l3.906-4.043h7.363l-9.641,8.836,6.216,9.322H1352.7Z" transform="translate(-1334.24 -21.942)" fill="#898989"/>
            <path id="패스_45775" data-name="패스 45775" d="M1434.936,32.083H1429.6l-1.236,5.81c-.267,1.259.054,1.622,1.686,1.622a12.009,12.009,0,0,0,3.394-.436l-.6,2.832a19.323,19.323,0,0,1-5.9.8c-4.243,0-5.81-1.162-5.274-3.68l1.477-6.948h-3.156l.638-3h3.156l.592-2.783,6.632-.824-.767,3.607h5.332Z" transform="translate(-1391.779 -24.312)" fill="#898989"/>
            <path id="패스_45776" data-name="패스 45776" d="M1477.488,39.475a17.752,17.752,0,0,0-6.6,1.186l-1.8,8.474h-6.42l2.847-13.389h4.715l.075,1.865a16.009,16.009,0,0,1,8.05-2.2Z" transform="translate(-1420.413 -30.978)" fill="#898989"/>
            <path id="패스_45777" data-name="패스 45777" d="M1525.474,43.833h-12.659l-.057.267c-.4,1.864,1.248,2.323,4.548,2.323a29.563,29.563,0,0,0,6.082-.629l-.607,2.857a30.079,30.079,0,0,1-6.942.75c-6.964,0-10.055-1.84-9.149-6.1l.361-1.694c.947-4.455,5.634-6.2,10.784-6.2,5.622,0,9.1,1.55,8.041,6.536Zm-5.486-2.518.108-.508c.314-1.477-.476-2.373-2.8-2.373-2.176,0-3.522.872-3.851,2.421l-.1.46Z" transform="translate(-1449.848 -30.978)" fill="#898989"/>
            <path id="패스_45778" data-name="패스 45778" d="M1595.521,49.184h-6.42l1.832-8.619c.232-1.089.014-1.6-1.4-1.6a9.726,9.726,0,0,0-3.455.727l-2.017,9.49h-6.421l1.832-8.619c.242-1.137.1-1.646-1.391-1.646a9.586,9.586,0,0,0-3.5.775l-2.017,9.49h-6.383l2.847-13.389h4.788l.192,1.138a16.516,16.516,0,0,1,6.693-1.453c2.611,0,4.062.508,4.862,1.356a17.644,17.644,0,0,1,6.6-1.356c4.788,0,5.9,1.743,5.395,4.14Z" transform="translate(-1489.868 -31.027)" fill="#898989"/>
            <path id="패스_45779" data-name="패스 45779" d="M1683.113,43.833h-12.658l-.057.267c-.4,1.864,1.248,2.323,4.548,2.323a29.558,29.558,0,0,0,6.082-.629l-.607,2.857a30.084,30.084,0,0,1-6.942.75c-6.964,0-10.055-1.84-9.149-6.1l.36-1.694c.947-4.455,5.634-6.2,10.784-6.2,5.622,0,9.1,1.55,8.041,6.536Zm-5.486-2.518.108-.508c.314-1.477-.476-2.373-2.8-2.373-2.175,0-3.521.872-3.851,2.421l-.1.46Z" transform="translate(-1555.623 -30.978)" fill="#898989"/>
          </g>
          <path id="패스_45771" data-name="패스 45771" d="M1233.524,4.778a6.962,6.962,0,0,0-3.953-2.265,30.537,30.537,0,0,0-7.615-.765,55.315,55.315,0,0,0-11.119,1.375l-.26.063-1.592,5.553.771-.193A50.376,50.376,0,0,1,1219.9,7.322a14.8,14.8,0,0,1,3.95.348,1.521,1.521,0,0,1,.685.37.6.6,0,0,1,.152.439,1.9,1.9,0,0,1-.084.509l-.127.443a3.181,3.181,0,0,1-1.055,1.741,19.337,19.337,0,0,1-3.215,1.975L1203.8,21.985l-1.321,4.6h27.314l1.535-5.353h-13.987l7.589-4.049a41.337,41.337,0,0,0,6.2-3.755,7.108,7.108,0,0,0,2.6-3.748l.3-1.046a5.673,5.673,0,0,0,.235-1.555A3.771,3.771,0,0,0,1233.524,4.778Z" transform="translate(-1130.557 -1.748)" fill="#898989"/>
          <path id="패스_45772" data-name="패스 45772" d="M1102.02,6.585h9.354L1106.8,26.748h11.963l4.577-20.162h9.278l1.038-4.679h-30.592Z" transform="translate(-1063.149 -1.855)" fill="#898989"/>
          <path id="패스_45773" data-name="패스 45773" d="M1014.07,2.08h-10.22L983.876,26.921h9.785l3.758-4.872h12.444l.982,4.872h10.2L1014.967,2.08Zm-12.626,14.279,5.713-7.733,1.569,7.733h-7.283Z" transform="translate(-983.876 -1.971)" fill="#898989"/>
        </g>
      </g>
    </g>
  </g>
</svg>
