<svg xmlns="http://www.w3.org/2000/svg" xmlns:xlink="http://www.w3.org/1999/xlink" width="496" height="52" viewBox="0 0 496 52">
  <defs>
    <clipPath id="clip-path">
      <rect id="사각형_13291" data-name="사각형 13291" width="496" height="52" transform="translate(320.442 855.18)" fill="none" stroke="#707070" stroke-width="1"/>
    </clipPath>
  </defs>
  <g id="BI_title_W330" data-name="BI title_W330" transform="translate(-320.442 -855.18)" clip-path="url(#clip-path)">
    <g id="그룹_10924" data-name="그룹 10924" transform="translate(-330.204 -591.655)">
      <path id="패스_45894" data-name="패스 45894" d="M881.571,1474.925a2.609,2.609,0,0,1-2.318,1.78h-3.119l.73,2.7a2.317,2.317,0,0,1-1.389,2.427c-1,.49-2,.2-2.226-.65l-.732-2.709-2.393,2.709a2.121,2.121,0,0,1-2.626.65c-.7-.488-.663-1.578.091-2.427l2.388-2.7h-3.124a1.272,1.272,0,0,1-1.234-1.78,2.607,2.607,0,0,1,2.323-1.775h3.122l-.731-2.709a2.3,2.3,0,0,1,1.391-2.426c1-.49,1.994-.2,2.231.653l.729,2.7,2.387-2.7a2.114,2.114,0,0,1,2.625-.653c.7.487.657,1.574-.091,2.426l-2.386,2.709h3.12A1.266,1.266,0,0,1,881.571,1474.925Z" transform="translate(-76.468 -1.617)" fill="#0075c9"/>
      <path id="패스_45895" data-name="패스 45895" d="M702.354,1486.788l3.674-12.018h-6.865l-3.674,12.018h6.866" transform="translate(-15.957 -4.105)" fill="#00a0df"/>
      <path id="패스_45896" data-name="패스 45896" d="M815.005,1474.883a7.66,7.66,0,0,0-3.077-.506,10.183,10.183,0,0,0-4.633,1.122l.267-.868h-6.869l-3.672,12.018h6.865l2-6.548c.465-1.474,1.639-1.952,3.31-1.952a4.3,4.3,0,0,1,2.89,1.009l2.917-4.273" transform="translate(-52.088 -3.966)" fill="#00a0df"/>
      <path id="패스_45897" data-name="패스 45897" d="M758.282,1480.951h-2.76c-1.144,0-1.619-.268-1.342-1.185l1.311-4.351h4.349l1.011-3.226H756.5l1.428-4.673-6.5,1.625-.926,3.047h-3.042l-1.01,3.226h3.069l-1.594,5.22c-.839,2.723.5,3.819,4.117,3.819h4.264l1.974-3.5" transform="translate(-34.093 -1.524)" fill="#00a0df"/>
      <path id="패스_45898" data-name="패스 45898" d="M683.059,1468.552h-7.531l-5.289,9.63.05-9.63h-6.775l-5.866,9.63.622-9.63h-7.624l1.462,16.024h6.756l6.142-10.121-.052,10.121H671.8l11.258-16.024" transform="translate(0 -1.893)" fill="#00a0df"/>
      <path id="패스_45899" data-name="패스 45899" d="M781.442,1474.865h-5.175c-6.56,0-7.649,4-7.649,4l-.939,3.105c-1.367,4.536,4.837,4.861,4.837,4.861l1.474-.006h10.18l.788-2.577h-9.444c-2.573,0-2.123-1.887-2.123-1.887l.166-.549h12.149l.612-2.028C787.861,1474.676,781.442,1474.865,781.442,1474.865Zm-.924,4.445h-6.191a3.044,3.044,0,0,1,2.821-2h1.642C781.516,1477.306,780.519,1479.31,780.519,1479.31Z" transform="translate(-41.576 -4.139)" fill="#00a0df" fill-rule="evenodd"/>
      <path id="패스_45900" data-name="패스 45900" d="M726.646,1474.77l-2.318,7.579-4.371-7.579h-6.107l-3.672,12.018h6.106l2.32-7.582,4.367,7.582h6.106l3.675-12.018Z" transform="translate(-21.184 -4.105)" fill="#00a0df" fill-rule="evenodd"/>
      <path id="패스_45901" data-name="패스 45901" d="M709.435,1469.3c-.336,1.034-2.292,1.876-4.367,1.876s-3.484-.842-3.146-1.876,2.285-1.873,4.363-1.873S709.772,1468.266,709.435,1469.3Z" transform="translate(-18.229 -1.494)" fill="#00a0df"/>
      <path id="패스_45902" data-name="패스 45902" d="M957.364,1475.491h-8.993c-11.4,0-13.29,6.948-13.29,6.948l-1.629,5.392c-2.379,7.885,8.4,8.449,8.4,8.449l2.564-.014H962.11l1.364-4.478h-16.4c-4.479,0-3.7-3.282-3.7-3.282l.292-.949h21.114l1.063-3.523C968.517,1475.159,957.364,1475.491,957.364,1475.491Zm-1.6,7.724H945.009c1.042-3.453,4.9-3.489,4.9-3.489h2.854C957.491,1479.726,955.762,1483.215,955.762,1483.215Z" transform="translate(-100.514 -4.361)" fill="#0075c9" fill-rule="evenodd"/>
      <path id="패스_45903" data-name="패스 45903" d="M919.181,1475.492H903.573c-11.4,0-13.287,6.948-13.287,6.948l-1.631,5.392c-2.378,7.884,8.4,8.449,8.4,8.449l2.563-.014h13.215l1.363-4.478H902.273c-4.476,0-3.7-3.283-3.7-3.283l.294-.949,1.342-4.342c1.045-3.453,4.9-3.489,4.9-3.489h12.774Z" transform="translate(-84.573 -4.362)" fill="#0075c9" fill-rule="evenodd"/>
      <path id="패스_45904" data-name="패스 45904" d="M1064.889,1486.387l-4.58,0c-1.9,0-2.7-.449-2.236-1.969l2.208-7.221h7.218l1.637-5.362h-7.216l2.372-7.756-12.369,2.7-1.545,5.057h-7.948l2.2,5.362h4.108l-2.648,8.663c-1.4,4.525.841,6.343,6.847,6.343h8.677l3.274-5.814" transform="translate(-139.415 -0.3)" fill="#0075c9"/>
      <path id="제외_12" data-name="제외 12" d="M0,27.283H0L8.342,0H28.6c3.979,0,6.681.926,8.03,2.752a5.476,5.476,0,0,1,1.009,2.94,11.923,11.923,0,0,1-.614,4.225,14.072,14.072,0,0,1-5.579,7.9,17.184,17.184,0,0,1-9.67,2.545h-7.8L12.707,24.55,0,27.283ZM18.626,5.192h0l-2.915,9.541h4.355a4.545,4.545,0,0,0,3.068-.9,7.4,7.4,0,0,0,2.069-3.7c.632-2.114.677-3.434.141-4.154-.405-.544-1.146-.787-2.4-.787Z" transform="translate(864.049 1471.551)" fill="#0075c9"/>
      <path id="패스_45907" data-name="패스 45907" d="M845.115,1491.488H832.94l6.248-20.343,2.475-7.912h11.272l-13.747,7.912h12.129Z" transform="translate(-64.869 0)" fill="#0075c9"/>
      <g id="그룹_8000" data-name="그룹 8000" transform="translate(942.215 1465.804)">
        <path id="패스_45908" data-name="패스 45908" d="M1166.9,1482.846l-8.405,11.159-4.25-11.159h-8.145l4.423,11.639h.008a6.612,6.612,0,0,0,6.637,4.4h5.794l12.091-16.038Z" transform="translate(-1118.52 -1472.783)" fill="#898989" fill-rule="evenodd"/>
        <path id="패스_45909" data-name="패스 45909" d="M1122.555,1482.845h-8.136c-8.749,0-9.919,5.334-9.919,5.334l-1.032,4.14c-1.5,6.053,6.8,6.489,6.8,6.489l1.967-.01h15.43l.867-3.437h-14.444c-3.432,0-2.971-2.52-2.971-2.52l.186-.732h18.057l.672-2.7C1131.722,1482.6,1122.555,1482.845,1122.555,1482.845Zm-.915,5.931h-9.488c.664-2.654,3.621-2.68,3.621-2.68h3.42C1122.826,1486.1,1121.639,1488.776,1121.639,1488.776Z" transform="translate(-1103.287 -1472.782)" fill="#898989" fill-rule="evenodd"/>
        <path id="패스_45910" data-name="패스 45910" d="M1206.839,1482.846h-8.648c-8.754,0-9.965,5.334-9.965,5.334l-1.365,5.3s-1.533,5.329,7.216,5.329h8.65c8.754,0,9.965-5.329,9.965-5.329l1.366-5.3S1215.592,1482.846,1206.839,1482.846Zm-.736,5.931-1.056,4.1c-.687,2.651-3.641,2.678-3.641,2.678h-4.324s-2.945-.027-2.266-2.678l1.058-4.1c.687-2.654,3.641-2.68,3.641-2.68h4.325S1206.779,1486.123,1206.1,1488.777Z" transform="translate(-1132.99 -1472.783)" fill="#898989" fill-rule="evenodd"/>
        <g id="그룹_7999" data-name="그룹 7999" transform="translate(82.691 0)">
          <path id="패스_45911" data-name="패스 45911" d="M1242.236,1482.822c-4.519,0-8.114-.886-10.578-2.311l4.53-2.723a15.609,15.609,0,0,0,7.131,1.578c3.075,0,4.5-.5,4.779-1.534.285-1.058-.674-1.448-3.368-1.448h-3.837l.879-3.262h3.417c2.318,0,3.151-.28,3.42-1.275.216-.8-.731-1.23-3.352-1.23a19.017,19.017,0,0,0-6.955,1.3l-2.761-2.722a28.751,28.751,0,0,1,10.82-1.966c6.378,0,10.323,1.144,9.461,4.342-.448,1.663-2.372,2.463-4.328,2.959,2.381.325,4.271,1.34,3.754,3.263C1254.306,1481.288,1249.45,1482.822,1242.236,1482.822Z" transform="translate(-1231.658 -1467.224)" fill="#898989"/>
        </g>
      </g>
    </g>
  </g>
</svg>
