<svg xmlns="http://www.w3.org/2000/svg" xmlns:xlink="http://www.w3.org/1999/xlink" width="496" height="52" viewBox="0 0 496 52">
  <defs>
    <clipPath id="clip-path">
      <rect id="사각형_12017" data-name="사각형 12017" width="496" height="52" transform="translate(320.442 855.18)" fill="none" stroke="#707070" stroke-width="1"/>
    </clipPath>
    <clipPath id="clip-path-2">
      <path id="패스_55433" data-name="패스 55433" d="M0,13.476H393.987V-15.751H0Z" transform="translate(0 15.751)" fill="none"/>
    </clipPath>
  </defs>
  <g id="bi_Ventus_V2_AS" data-name="bi_Ventus V2 AS" transform="translate(-320.442 -855.18)" clip-path="url(#clip-path)">
    <g id="그룹_11342" data-name="그룹 11342" transform="translate(320.441 890.678)">
      <g id="그룹_11340" data-name="그룹 11340" transform="translate(0 -15.751)" clip-path="url(#clip-path-2)">
        <g id="그룹_11334" data-name="그룹 11334" transform="translate(239.772 0.153)">
          <path id="패스_55427" data-name="패스 55427" d="M16.228,0,1.164,19.984-6.442,0H-18.967l7.936,20.851h0c1.29,3.672,4.854,7.881,11.887,7.881H7.1L28.755,0Z" transform="translate(18.967)" fill="#85868a"/>
        </g>
        <g id="그룹_11335" data-name="그룹 11335" transform="translate(281.091)">
          <path id="패스_55428" data-name="패스 55428" d="M0,13.476C2.826,3.777,11.519-.91,24.182-4.115c5.351-1.358,6.211-1.813,6.5-2.96.315-1.275-1-1.974-4.8-1.974A42.457,42.457,0,0,0,11.059-6.13L6.491-12.008a60.857,60.857,0,0,1,21.269-3.743c11.794,0,17.242,2.88,15.939,8.1-.941,3.78-3.683,6.081-13.4,8.63-10.157,2.672-13.2,4.277-14.646,6h24.74l-1.62,6.494Z" transform="translate(0 15.751)" fill="#85868a"/>
        </g>
        <g id="그룹_11336" data-name="그룹 11336" transform="translate(0 5.497)">
          <path id="패스_55429" data-name="패스 55429" d="M14.065,0,1.734,16.357-4.491,0H-16.439l6.5,17.066h0c1.058,3.006,3.975,6.446,9.729,6.446h8.5L26.011,0Z" transform="translate(16.439)" fill="#ff6920"/>
        </g>
        <g id="그룹_11337" data-name="그룹 11337" transform="translate(39.01 0.156)">
          <path id="패스_55430" data-name="패스 55430" d="M13.027,2.462H1.1c-12.831,0-14.548,7.818-14.548,7.818l-1.51,6.071C-17.163,25.226-5,25.867-5,25.867l2.887-.017H20.508l1.275-5.038H.611c-5.042,0-4.359-3.7-4.359-3.7l.271-1.069h26.47l.989-3.967c2.479-9.987-10.955-9.614-10.955-9.614m-1.343,8.7H-2.23c.972-3.889,5.309-3.926,5.309-3.926H8.093c5.329,0,3.591,3.926,3.591,3.926m139.843-4h17.606l1.188-4.7H155.4v0h-6.238C137.988,2.462,136.5,9.27,136.5,9.27l-.327,1.308h.009c-.317,3.336,2.191,5.142,5.841,5.142H155.9c1.483,0,2.191.889,1.611,2.008-.783,1.5-3.258,2.011-5.03,2.011H134.47l-1.546,6.11h22.929c11.169,0,12.664-6.806,12.664-6.806l.319-1.3c.538-3.687-1.791-6.771-5.554-6.771H149.118c-1.141,0-2.3-.6-1.449-1.995a5.378,5.378,0,0,1,3.858-1.822M122.4,2.462l-3.765,15.03a0,0,0,0,1,0,0l-.828,3.314h-7.066c-3.058,0-5.075-1.64-4.49-3.642l3.722-14.7H84.743l1.366-5.34H73.44L68.082,18.34c-1.2,4.125,3.182,7.509,9.74,7.509h7.745l1.271-5.038h-1.4c-3.056,0-5.077-1.642-4.492-3.642l2.574-9.92h12.67l-2.8,11.091c-1.2,4.125,3.184,7.509,9.74,7.509h25.349l5.9-23.388ZM51.983,17.294,42.645,2.462H30.7L24.758,25.974h11.95l3.743-14.83,9.337,14.83h11.95L67.671,2.462H55.722Z" transform="translate(15.226 2.878)" fill="#ff6920"/>
        </g>
        <g id="그룹_11338" data-name="그룹 11338" transform="translate(279.556 0.001)">
          <path id="패스_55431" data-name="패스 55431" d="M0,13.475C2.826,3.776,11.519-.911,24.182-4.116c5.351-1.358,6.211-1.811,6.5-2.96.315-1.273-1-1.972-4.8-1.972A42.457,42.457,0,0,0,11.059-6.129L6.491-12.007A60.846,60.846,0,0,1,27.757-15.75C39.551-15.75,45-12.872,43.7-7.65,42.756-3.869,40.015-1.57,30.3.98c-10.157,2.672-13.2,4.277-14.646,6h24.74l-1.62,6.493Z" transform="translate(0 15.75)" fill="#7f8a89"/>
        </g>
        <g id="그룹_11339" data-name="그룹 11339" transform="translate(363.724 10.047)">
          <path id="패스_55432" data-name="패스 55432" d="M6.94,1.753H21.191l.961-3.8H5.029c-9.042,0-10.25,5.511-10.25,5.511L-5.485,4.52h.006C-5.735,7.221-3.7,8.68-.753,8.68H10.481c1.2,0,1.774.722,1.3,1.627-.635,1.221-2.639,1.629-4.071,1.629H-6.861L-8.112,16.88H10.444c9.04,0,10.25-5.509,10.25-5.509l.258-1.048a4.511,4.511,0,0,0-4.5-5.479H4.99c-.92,0-1.865-.492-1.171-1.614A4.353,4.353,0,0,1,6.94,1.753" transform="translate(8.112 2.049)" fill="#7f8a89"/>
        </g>
      </g>
      <g id="그룹_11341" data-name="그룹 11341" transform="translate(331.672 -5.704)">
        <path id="패스_55434" data-name="패스 55434" d="M11,0H2.651L-12.856,18.931h8.35l3.422-4.182H8.986l.9,4.182h7.458L13.283,0ZM6.9,5.006,8.31,11.6H1.5Z" transform="translate(12.856)" fill="#7f8a89"/>
      </g>
    </g>
  </g>
</svg>
