<svg xmlns="http://www.w3.org/2000/svg" xmlns:xlink="http://www.w3.org/1999/xlink" width="496" height="52" viewBox="0 0 496 52">
  <defs>
    <clipPath id="clip-path">
      <rect id="사각형_12017" data-name="사각형 12017" width="496" height="52" transform="translate(320.442 855.18)" fill="none" stroke="#707070" stroke-width="1"/>
    </clipPath>
  </defs>
  <g id="bi_VANTRA_DT" data-name="bi_VANTRA DT" transform="translate(-320.442 -855.18)" clip-path="url(#clip-path)">
    <g id="그룹_10864" data-name="그룹 10864" transform="translate(81.871 661.579)">
      <path id="패스_54918" data-name="패스 54918" d="M268.375,244.629l-18.526-.024-11.278-30.879,15.274.027,6.428,20.581,10.31-20.559,15.408.028Z" fill="#833a1e"/>
      <path id="패스_54919" data-name="패스 54919" d="M445.179,244.9l-4.753-10.411-3.011-.005-2.828,10.4-16.575-.025,8.389-30.853,21.094.033c14.233.022,22.947,2.769,20.959,10.088-1.26,4.628-6.289,7.485-13.393,9.019l7.505,11.782Zm-.012-23.9L441.083,221l-1.834,6.743,3.824.007c5.467.008,7.973-1.223,8.572-3.428.528-1.939-1.185-3.307-6.478-3.316" fill="#833a1e"/>
      <path id="패스_54920" data-name="패스 54920" d="M491.054,244.972l.559-2.057a32.684,32.684,0,0,1-12.492,2.686c-9.367-.015-14.606-3.726-12.72-10.659,1.806-6.64,9.9-10.039,20.092-10.023a30.713,30.713,0,0,1,9.659,1.309l.415-1.528c.737-2.7-1.3-3.648-5.8-3.655a42.3,42.3,0,0,0-14.017,2.213l-2.417-7a76.223,76.223,0,0,1,21.526-2.787c13.5.021,18.213,4.32,16.264,11.49L506.668,245Zm3.42-12.574a22.051,22.051,0,0,0-6.834-.891c-3.4-.005-5.461,1.166-6.036,3.283-.529,1.939.65,3.351,4.231,3.356a19.473,19.473,0,0,0,7.489-1.518Z" fill="#833a1e"/>
      <path id="패스_54921" data-name="패스 54921" d="M400.737,244.585l6.576-22.319,11.151.016L420.716,214l-41.325-.057.643,8.29,11.205.011-6.434,22.551Z" fill="#833a1e"/>
      <path id="패스_54922" data-name="패스 54922" d="M308.962,213.184a79.241,79.241,0,0,0-17.183,1.708l2.381,6.9a41.548,41.548,0,0,1,9.71-1.03c4.5.007,6.54.95,5.806,3.654l-.415,1.529a30.7,30.7,0,0,0-9.66-1.309c-10.2-.017-18.288,3.383-20.093,10.022-1.886,6.933,3.353,10.646,12.721,10.66a32.708,32.708,0,0,0,12.493-2.686l-.561,2.058,15.616.025,5.449-20.04c1.949-7.171-2.762-11.469-16.264-11.49m-2.531,23.16a19.485,19.485,0,0,1-7.488,1.518c-3.58-.005-4.76-1.417-4.234-3.356.577-2.117,2.642-3.288,6.039-3.283a22.084,22.084,0,0,1,6.833.891Z" fill="#833a1e"/>
      <path id="패스_54923" data-name="패스 54923" d="M353.811,244.767l4.762-17.511c1.088-4-.737-5.06-4.136-5.065-3.489,0-5.89,1.051-6.943,4.93l-4.8,17.628-16.533-.026,8.391-30.852,16.532.026-.56,2.056a30.207,30.207,0,0,1,12.86-2.684c10.563.016,14.384,4.548,12.177,12.66l-5.129,18.863Z" fill="#833a1e"/>
      <path id="패스_54924" data-name="패스 54924" d="M593.016,245l5.262-17.928,8.919.014,1.8-6.662H574.126l2.327,6.62,8.966.009L580.272,245Z" fill="#5f5e5e"/>
      <path id="패스_54925" data-name="패스 54925" d="M571.509,223.936c-1.8-2.366-5.56-3.515-11.5-3.515H547.337L540.685,245h14.957c9.493,0,13.456-2.274,15.144-8.693l1.477-5.671c.772-2.769.518-5.023-.754-6.7m-16.457,2.943H559.2c2.6,0,3.507.466,3.8.856s.289,1.149-.056,2.425l-1.229,4.475c-.736,2.654-1.612,3.9-6.457,3.9h-3.38Z" fill="#5f5e5e"/>
    </g>
  </g>
</svg>
