<svg xmlns="http://www.w3.org/2000/svg" xmlns:xlink="http://www.w3.org/1999/xlink" width="496" height="52" viewBox="0 0 496 52">
  <defs>
    <clipPath id="clip-path">
      <rect id="사각형_13336" data-name="사각형 13336" width="496" height="52" transform="translate(320.442 855.18)" fill="none" stroke="#707070" stroke-width="1"/>
    </clipPath>
    <clipPath id="clip-path-2">
      <rect id="사각형_13337" data-name="사각형 13337" width="527.49" height="30" fill="none"/>
    </clipPath>
  </defs>
  <g id="bi_Ventus_S1_evo_Z" data-name="bi_Ventus S1 evo Z" transform="translate(-320.442 -855.18)" clip-path="url(#clip-path)">
    <g id="그룹_11473" data-name="그룹 11473" transform="translate(320.442 872.824)">
      <g id="그룹_11487" data-name="그룹 11487" transform="translate(0 0)" clip-path="url(#clip-path-2)">
        <path id="패스_55629" data-name="패스 55629" d="M28.752,7.874,17.13,23.293,11.263,7.874H0L6.121,23.959h0c1,2.834,3.747,6.079,9.172,6.079h8.01L40.016,7.874Z" transform="translate(0 -0.163)" fill="#fe5a17" fill-rule="evenodd"/>
        <path id="패스_55630" data-name="패스 55630" d="M64.178,7.767H52.935c-12.1,0-13.71,7.368-13.71,7.368L37.8,20.86c-2.074,8.367,9.394,8.965,9.394,8.965l2.719-.013H71.235l1.2-4.75H52.475c-4.748,0-4.106-3.485-4.106-3.485l.254-1.011H73.575l.929-3.734c2.338-9.415-10.326-9.065-10.326-9.065m-1.266,8.2H49.8c.916-3.67,5-3.706,5-3.706h4.728c5.02,0,3.38,3.706,3.38,3.706m131.811-3.773h16.6l1.119-4.425H192.5c-10.535,0-11.94,6.416-11.94,6.416l-.308,1.231h.01c-.3,3.146,2.065,4.848,5.5,4.848h13.083c1.4,0,2.066.838,1.519,1.892-.739,1.421-3.071,1.9-4.742,1.9H178.648l-1.457,5.757H198.8c10.526,0,11.936-6.418,11.936-6.418l.3-1.219c.5-3.477-1.689-6.383-5.239-6.383H192.456c-1.077,0-2.173-.572-1.366-1.882a5.06,5.06,0,0,1,3.633-1.718M167.27,7.767l-3.549,14.166,0,.006-.778,3.123h-6.658c-2.884,0-4.786-1.551-4.235-3.437l3.512-13.858H131.776l1.29-5.031H121.124l-5.049,20c-1.132,3.886,3,7.078,9.177,7.078h7.3l1.2-4.75h-1.322c-2.881,0-4.785-1.548-4.233-3.433l2.425-9.351h11.944l-2.644,10.457c-1.129,3.886,3,7.078,9.18,7.078H173l5.562-22.045ZM100.9,21.749,92.1,7.767H80.837l-5.6,22.164H86.5l3.53-13.981,8.8,13.981h11.261l5.594-22.164h-11.26Z" transform="translate(-0.778 -0.056)" fill="#fe5a17" fill-rule="evenodd"/>
        <path id="패스_55631" data-name="패스 55631" d="M287.788.254C285.711,3,283.219,3.067,276.84,3.275l-1.124,4.812h8.26l-5.4,21.674h13.361L299.167.254Z" transform="translate(-5.715 -0.005)" fill="#878787"/>
        <path id="패스_55632" data-name="패스 55632" d="M269.365,8.082l1.242-5.335C268.167.919,263.262,0,255.84,0,243.124,0,235.859,2.374,234,7.2a3.343,3.343,0,0,0-.186,1.562,3.762,3.762,0,0,0,1.7,2.691,27.814,27.814,0,0,0,7.819,3.588q4.767,1.523,9.5,3.064c2.412.838,2.6,1.811,2.76,2.915a2.344,2.344,0,0,1-.12.979c-.721,2.3-2.681,3.471-8.062,3.471-4.158,0-6.347-.937-6.57-2.793a4.656,4.656,0,0,1,.269-1.973H231.7l-2.269,5.914C231.9,28.858,237.348,30,245.791,30c6.547,0,12.461-.32,16.805-1.834,4.313-1.5,6.422-4.082,7.249-6.832a4.6,4.6,0,0,0,.214-2.239q-.4-2.115-4.057-3.922a107.646,107.646,0,0,0-13.489-4.595,33.645,33.645,0,0,1-3.919-1.39c-1.189-.489-1.82-1.067-1.918-1.74a1.248,1.248,0,0,1,.156-.824q.942-2.622,7.656-2.619,5.572,0,5.98,2.373a7.61,7.61,0,0,1,.12,1.7Z" transform="translate(-4.756 0)" fill="#878787"/>
        <path id="패스_55633" data-name="패스 55633" d="M360.584,12.278l-9.3,12.336-4.7-12.336h-9.008l4.9,12.869h.006a7.313,7.313,0,0,0,7.337,4.864h6.405L369.6,12.278Z" transform="translate(-6.997 -0.254)" fill="#878787" fill-rule="evenodd"/>
        <path id="패스_55634" data-name="패스 55634" d="M327.755,12.278H318.76c-9.674,0-10.968,5.9-10.968,5.9l-1.14,4.58c-1.66,6.692,7.513,7.173,7.513,7.173l2.177-.012H333.4l.964-3.8H318.4c-3.8,0-3.288-2.79-3.288-2.79l.207-.807h19.964l.742-2.992c1.87-7.528-8.265-7.25-8.265-7.25m-1.012,6.557H316.251c.736-2.934,4-2.963,4-2.963h3.785c4.017,0,2.7,2.963,2.7,2.963" transform="translate(-6.352 -0.254)" fill="#878787" fill-rule="evenodd"/>
        <path id="패스_55635" data-name="패스 55635" d="M389.363,12.278H379.8c-9.677,0-11.015,5.9-11.015,5.9l-1.511,5.856s-1.7,5.9,7.978,5.9h9.565c9.678,0,11.015-5.9,11.015-5.9l1.511-5.856s1.7-5.9-7.977-5.9m-.819,6.557-1.168,4.533c-.76,2.931-4.023,2.962-4.023,2.962h-4.784s-3.249-.031-2.5-2.962l1.17-4.533c.759-2.934,4.024-2.963,4.024-2.963h4.782s3.25.029,2.5,2.963" transform="translate(-7.61 -0.254)" fill="#878787" fill-rule="evenodd"/>
        <path id="패스_55636" data-name="패스 55636" d="M450.46,22.671h-6.706c-3.662,0-8.549.041-11.563.117,2.069-1.387,6.078-4.082,8.964-6.187l13.463-9.913,4.937-4.039H427.61c-7.322,0-6.9,4.791-6.9,4.791h4.705c3.663,0,13.361-.037,16.372-.118-2.066,1.389-6.075,4.086-8.961,6.186l-13.465,9.918-7.824,5.508H456.8c-1.3-6.033-6.341-6.262-6.341-6.262" transform="translate(-8.53 -0.055)" fill="#878787"/>
      </g>
    </g>
  </g>
</svg>
