<svg xmlns="http://www.w3.org/2000/svg" xmlns:xlink="http://www.w3.org/1999/xlink" width="496" height="52" viewBox="0 0 496 52">
  <defs>
    <clipPath id="clip-path">
      <rect id="사각형_12017" data-name="사각형 12017" width="496" height="52" transform="translate(320.442 855.18)" fill="none" stroke="#707070" stroke-width="1"/>
    </clipPath>
  </defs>
  <g id="bi_VANTRA_LT" data-name="bi_VANTRA LT" transform="translate(-320.442 -855.18)" clip-path="url(#clip-path)">
    <g id="그룹_10844" data-name="그룹 10844" transform="translate(321.531 860.476)">
      <g id="그룹_10851" data-name="그룹 10851" transform="translate(0.001 17.668)">
        <path id="패스_54861" data-name="패스 54861" d="M67.933,468.887l-15.8-.021L42.52,442.537l13.023.022,5.481,17.549,8.791-17.53,13.137.024Z" transform="translate(-42.52 -442.074)" fill="#82371c"/>
        <path id="패스_54862" data-name="패스 54862" d="M175.521,469.052l-4.052-8.878-2.567,0-2.413,8.868-14.132-.021,7.153-26.308,17.986.029c12.137.017,19.566,2.358,17.871,8.6-1.074,3.945-5.363,6.383-11.418,7.689l6.4,10.048Zm-.01-20.375-3.482-.006-1.563,5.749,3.261.007c4.661.007,6.8-1.043,7.308-2.923.451-1.654-1.011-2.821-5.523-2.828" transform="translate(0.647 -442.007)" fill="#82371c"/>
        <path id="패스_54863" data-name="패스 54863" d="M203.088,469.241l.478-1.754a27.9,27.9,0,0,1-10.651,2.29c-7.987-.014-12.455-3.177-10.847-9.089,1.539-5.661,8.44-8.559,17.133-8.546a26.2,26.2,0,0,1,8.235,1.117l.354-1.305c.628-2.305-1.112-3.108-4.949-3.115a36.043,36.043,0,0,0-11.952,1.888l-2.06-5.972a65.021,65.021,0,0,1,18.356-2.375c11.51.017,15.528,3.683,13.866,9.8L216.4,469.264Zm2.917-10.722a18.8,18.8,0,0,0-5.827-.759c-2.9,0-4.657.995-5.146,2.8-.451,1.652.553,2.857,3.605,2.861a16.666,16.666,0,0,0,6.388-1.294Z" transform="translate(12.195 -442.136)" fill="#82371c"/>
        <path id="패스_54864" data-name="패스 54864" d="M146.918,468.8l5.607-19.03,9.509.013,1.92-7.064-35.236-.049.549,7.068,9.553.011-5.484,19.228Z" transform="translate(-8.644 -442.023)" fill="#82371c"/>
        <path id="패스_54865" data-name="패스 54865" d="M92.783,442.205a67.6,67.6,0,0,0-14.652,1.457l2.031,5.883a35.467,35.467,0,0,1,8.28-.879c3.836.006,5.576.809,4.949,3.116l-.354,1.3A26.217,26.217,0,0,0,84.8,451.97c-8.694-.014-15.593,2.884-17.133,8.545-1.608,5.912,2.858,9.077,10.847,9.088a27.905,27.905,0,0,0,10.652-2.289l-.479,1.755L102,469.09,106.651,452c1.663-6.117-2.356-9.78-13.867-9.8m-2.158,19.749a16.628,16.628,0,0,1-6.384,1.294c-3.055,0-4.059-1.209-3.609-2.861.49-1.805,2.251-2.8,5.149-2.8a18.781,18.781,0,0,1,5.827.759Z" transform="translate(-32.764 -442.205)" fill="#82371c"/>
        <path id="패스_54866" data-name="패스 54866" d="M119.709,469.114l4.061-14.932c.926-3.409-.628-4.314-3.527-4.318-2.975,0-5.022.9-5.922,4.2L110.233,469.1l-14.1-.024,7.154-26.307,14.1.022-.478,1.752a25.759,25.759,0,0,1,10.964-2.287c9.007.013,12.267,3.877,10.385,10.794l-4.374,16.084Z" transform="translate(-21.448 -442.184)" fill="#82371c"/>
        <path id="패스_54867" data-name="패스 54867" d="M262.185,467.59l4.487-15.288,7.6.014,1.538-5.681H246.079l1.984,5.643,7.645.008-4.388,15.3Z" transform="translate(37.48 -440.464)" fill="#5d5c5c"/>
        <path id="패스_54868" data-name="패스 54868" d="M249.258,461.943l-9.192-.007,4.389-15.3H233.589l-6.143,20.955h23.8Z" transform="translate(30.157 -440.464)" fill="#5d5c5c"/>
      </g>
    </g>
  </g>
</svg>
