<svg xmlns="http://www.w3.org/2000/svg" xmlns:xlink="http://www.w3.org/1999/xlink" width="496" height="52" viewBox="0 0 496 52">
  <defs>
    <clipPath id="clip-path">
      <rect id="사각형_13310" data-name="사각형 13310" width="496" height="52" transform="translate(320.442 855.18)" fill="none" stroke="#707070" stroke-width="1"/>
    </clipPath>
    <clipPath id="clip-path-2">
      <path id="패스_55345" data-name="패스 55345" d="M0,16.338H492.451v-37.6H0Z" transform="translate(0 21.26)" fill="none"/>
    </clipPath>
  </defs>
  <g id="bi_Winter_I_cept_Evo2_SUV" data-name="bi_Winter I*cept Evo2 SUV" transform="translate(-320.441 -855.18)" clip-path="url(#clip-path)">
    <g id="그룹_11281" data-name="그룹 11281" transform="translate(320.441 888.842)">
      <g id="그룹_11256" data-name="그룹 11256" transform="translate(0 -21.26)" clip-path="url(#clip-path-2)">
        <g id="그룹_11255" data-name="그룹 11255" transform="translate(146.183 3.091)">
          <path id="패스_55344" data-name="패스 55344" d="M7.359,3.28A2.755,2.755,0,0,1,4.911,5.16H1.616l.771,2.856A2.448,2.448,0,0,1,.92,10.579c-1.052.516-2.108.212-2.35-.686L-2.2,7.031-4.731,9.893a2.242,2.242,0,0,1-2.775.686c-.743-.516-.7-1.666.1-2.563L-4.886,5.16h-3.3a1.344,1.344,0,0,1-1.3-1.88A2.755,2.755,0,0,1-7.035,1.406h3.3l-.773-2.861a2.433,2.433,0,0,1,1.47-2.561c1.058-.518,2.1-.214,2.356.69L.083-.474,2.605-3.327a2.229,2.229,0,0,1,2.771-.69c.743.515.7,1.662-.1,2.561L2.761,1.406h3.3a1.337,1.337,0,0,1,1.3,1.875" transform="translate(9.576 4.269)" fill="#08c"/>
        </g>
      </g>
      <g id="그룹_11257" data-name="그룹 11257" transform="translate(30.506 -13.412)">
        <path id="패스_55346" data-name="패스 55346" d="M3.151,5.515,7.031-7.177H-.22L-4.1,5.515Z" transform="translate(4.1 7.177)" fill="#11a6df"/>
      </g>
      <g id="그룹_11260" data-name="그룹 11260" transform="translate(0 -21.26)" clip-path="url(#clip-path-2)">
        <g id="그룹_11258" data-name="그룹 11258" transform="translate(99.574 7.582)">
          <path id="패스_55347" data-name="패스 55347" d="M8.254.232A8.1,8.1,0,0,0,5-.3,10.767,10.767,0,0,0,.111.881L.393-.035H-6.86l-3.88,12.691h7.251l2.115-6.915C-.882,4.185.357,3.679,2.12,3.679A4.542,4.542,0,0,1,5.173,4.745Z" transform="translate(10.74 0.302)" fill="#11a6df"/>
        </g>
        <g id="그룹_11259" data-name="그룹 11259" transform="translate(65.175 2.914)">
          <path id="패스_55348" data-name="패스 55348" d="M5.429,6.166H2.514C1.306,6.166.8,5.883,1.1,4.913L2.481.319H7.075L8.141-3.089h-4.6L5.052-8.023-1.806-6.306l-.978,3.217H-6L-7.064.319h3.24L-5.508,5.831c-.886,2.876.531,4.032,4.349,4.032h4.5Z" transform="translate(7.064 8.023)" fill="#11a6df"/>
        </g>
      </g>
      <g id="그룹_11261" data-name="그룹 11261" transform="translate(0 -17.642)">
        <path id="패스_55350" data-name="패스 55350" d="M11.418,0,5.833,10.171,5.886,0H-1.269l-6.2,10.171L-6.806,0h-8.052l1.544,16.923H-6.18L.307,6.232.252,16.923h7.23L19.371,0Z" transform="translate(14.858)" fill="#11a6df"/>
      </g>
      <g id="그룹_11263" data-name="그룹 11263" transform="translate(0 -21.26)" clip-path="url(#clip-path-2)">
        <g id="그룹_11262" data-name="그룹 11262" transform="translate(79.481 7.913)">
          <path id="패스_55351" data-name="패스 55351" d="M6.406,0H.942C-5.987,0-7.137,4.22-7.137,4.22L-8.129,7.5C-9.572,12.29-3.02,12.634-3.02,12.634l1.556-.007H9.289l.831-2.722H.148c-2.718,0-2.242-1.993-2.242-1.993l.175-.58h12.83l.645-2.142C13.185-.2,6.406,0,6.406,0M5.43,4.694H-1.106A3.213,3.213,0,0,1,1.872,2.577H3.607c2.877,0,1.823,2.117,1.823,2.117" transform="translate(8.336 0.001)" fill="#11a6df"/>
        </g>
      </g>
      <g id="그룹_11264" data-name="그룹 11264" transform="translate(40.498 -13.412)">
        <path id="패스_55353" data-name="패스 55353" d="M7.557,0,5.11,8,.492,0h-6.45L-9.834,12.692h6.448L-.935,4.685l4.612,8.008h6.448L14.005,0Z" transform="translate(9.834)" fill="#11a6df"/>
      </g>
      <g id="그룹_11269" data-name="그룹 11269" transform="translate(0 -21.26)" clip-path="url(#clip-path-2)">
        <g id="그룹_11265" data-name="그룹 11265" transform="translate(34.848 2.856)">
          <path id="패스_55354" data-name="패스 55354" d="M3.47.859C3.115,1.95,1.049,2.84-1.14,2.84S-4.82,1.95-4.463.859-2.051-1.118.144-1.118,3.826-.236,3.47.859" transform="translate(4.516 1.118)" fill="#11a6df"/>
        </g>
        <g id="그룹_11266" data-name="그룹 11266" transform="translate(192.151 8.338)">
          <path id="패스_55355" data-name="패스 55355" d="M11.131,0h-9.5C-10.407,0-12.4,7.338-12.4,7.338l-1.721,5.695c-2.511,8.328,8.874,8.922,8.874,8.922l2.708-.014H16.143l1.441-4.729H.26c-4.731,0-3.9-3.466-3.9-3.466l.308-1h22.3l1.123-3.721C22.909-.349,11.131,0,11.131,0M9.439,8.157H-1.917c1.1-3.645,5.171-3.684,5.171-3.684H6.268c5,0,3.171,3.684,3.171,3.684" transform="translate(14.485 0.001)" fill="#08c"/>
        </g>
        <g id="그룹_11267" data-name="그룹 11267" transform="translate(161.678 8.339)">
          <path id="패스_55356" data-name="패스 55356" d="M14.166,0H-2.318C-14.356,0-16.349,7.337-16.349,7.337l-1.723,5.695C-20.583,21.36-9.2,21.954-9.2,21.954l2.708-.014H7.462L8.9,17.211H-3.69c-4.727,0-3.9-3.466-3.9-3.466l.309-1,1.418-4.586c1.1-3.645,5.173-3.684,5.173-3.684H12.8Z" transform="translate(18.434)" fill="#08c"/>
        </g>
        <g id="그룹_11268" data-name="그룹 11268" transform="translate(266.518 0.574)">
          <path id="패스_55357" data-name="패스 55357" d="M10.308,10.239l-4.837,0c-2.005,0-2.856-.474-2.363-2.08L5.441.531h7.622l1.728-5.663H7.17l2.5-8.192L-3.387-10.472-5.02-5.131h-8.393L-11.087.531h4.338l-2.8,9.148c-1.475,4.778.888,6.7,7.231,6.7H6.849Z" transform="translate(13.413 13.323)" fill="#08c"/>
        </g>
      </g>
      <g id="그룹_11270" data-name="그룹 11270" transform="translate(124.01 -21.26)">
        <path id="패스_55359" data-name="패스 55359" d="M4,0,1.389,8.356l-6.6,21.484H7.648L14.2,8.356H1.389L15.907,0Z" transform="translate(5.209)" fill="#08c"/>
      </g>
      <g id="그룹_11275" data-name="그룹 11275" transform="translate(0 -21.26)" clip-path="url(#clip-path-2)">
        <g id="그룹_11271" data-name="그룹 11271" transform="translate(337.041 13.343)">
          <path id="패스_55360" data-name="패스 55360" d="M9.545,0,.668,11.785-3.819,0h-8.6L-7.75,12.291h.009A6.981,6.981,0,0,0-.733,16.937H5.386L18.154,0Z" transform="translate(12.421)" fill="#85868a"/>
        </g>
        <g id="그룹_11272" data-name="그룹 11272" transform="translate(307.919 13.341)">
          <path id="패스_55361" data-name="패스 55361" d="M8.842,0H.251c-9.24,0-10.475,5.633-10.475,5.633L-11.315,10c-1.585,6.393,7.18,6.853,7.18,6.853l2.078-.011H14.238l.916-3.629H-.1c-3.624,0-3.137-2.662-3.137-2.662l.195-.773H16.028l.709-2.856C18.523-.263,8.842,0,8.842,0M7.877,6.263H-2.143c.7-2.8,3.823-2.83,3.823-2.83H5.291c3.838,0,2.586,2.83,2.586,2.83" transform="translate(11.506 0.001)" fill="#85868a"/>
        </g>
        <g id="그룹_11273" data-name="그룹 11273" transform="translate(364.702 13.343)">
          <path id="패스_55362" data-name="패스 55362" d="M9.215,0H.081C-9.163,0-10.441,5.633-10.441,5.633l-1.441,5.6s-1.62,5.629,7.62,5.629H4.874c9.244,0,10.522-5.629,10.522-5.629l1.443-5.6S18.459,0,9.215,0M8.437,6.262,7.323,10.591c-.727,2.8-3.846,2.828-3.846,2.828H-1.089S-4.2,13.391-3.48,10.591l1.116-4.329c.727-2.8,3.845-2.83,3.845-2.83H6.048s3.1.028,2.389,2.83" transform="translate(11.992)" fill="#85868a"/>
        </g>
        <g id="그룹_11274" data-name="그룹 11274" transform="translate(426.399 2.14)">
          <path id="패스_55363" data-name="패스 55363" d="M4.459,7.343c-4.939,0-7.873-1.411-9.465-2.593l-.8-.592,3.926-2.129.723.527A9.518,9.518,0,0,0,4.774,4.313c1.887,0,4.092-.5,4.092-1.9,0-.794-.66-1.353-4.4-2.395C.03-1.192-2.219-2.262-2.219-4.755c0-2.7,3.931-4.8,8.943-4.8A15.794,15.794,0,0,1,15.346-7.53l.927.566L12.451-4.7l-.766-.483A8.89,8.89,0,0,0,6.307-6.533c-2.428,0-3.533.835-3.533,1.609,0,.6.212,1.038,4.358,2.181,4.365,1.2,6.727,2.35,6.727,4.985,0,2.953-3.951,5.1-9.4,5.1" transform="translate(5.802 9.555)" fill="#85868a"/>
        </g>
      </g>
      <g id="그룹_11276" data-name="그룹 11276" transform="translate(470.364 -18.251)">
        <path id="패스_55365" data-name="패스 55365" d="M7.409,0-2.072,11.612-4.887,0H-9.641l4.195,16.03h4.4L12.446,0Z" transform="translate(9.641)" fill="#85868a"/>
      </g>
      <g id="그룹_11280" data-name="그룹 11280" transform="translate(0 -21.26)" clip-path="url(#clip-path-2)">
        <g id="그룹_11277" data-name="그룹 11277" transform="translate(447.256 2.971)">
          <path id="패스_55366" data-name="패스 55366" d="M7.484,0,4.535,10.545l-.163.571L3.69,13.57l.265-.955c-.14.955-1.293.955-1.293.955H-1.228a3.515,3.515,0,0,1-2.913-1.275,2.456,2.456,0,0,1-.347-2.257L-1.656,0H-6.422l-.833,3.058-2.313,8.222A3.04,3.04,0,0,0-9.154,14.1a5.75,5.75,0,0,0,4.683,1.887l12.227.007L12.25.007Z" transform="translate(9.738)" fill="#85868a"/>
        </g>
        <g id="그룹_11278" data-name="그룹 11278" transform="translate(395.606 2.768)">
          <path id="패스_55367" data-name="패스 55367" d="M0,7.032C1.563,1.661,6.607-.934,13.975-2.709c3.132-.75,3.62-1,3.765-1.639.177-.706-.6-1.093-2.81-1.093A25.974,25.974,0,0,0,6.268-3.825L3.537-7.077a37.071,37.071,0,0,1,12.4-2.073c6.92,0,10.141,1.593,9.431,4.483-.518,2.094-2.1,3.367-7.76,4.78C11.7,1.592,9.934,2.48,9.1,3.435H23.581l-.886,3.6Z" transform="translate(0 9.15)" fill="#7f8a89"/>
        </g>
        <g id="그룹_11279" data-name="그룹 11279" transform="translate(225.37 8.785)">
          <path id="패스_55368" data-name="패스 55368" d="M13.127,0H-8.27l-8.811,28.812L-3.66,25.926l1.348-4.418H5.92c8.068,0,13.8-3.489,16.1-11.037C24.429,2.644,20.071,0,13.127,0M9.535,10.7c-1.2,3.935-2.819,4.858-5.426,4.858h-4.6L2.59,5.482H7.149c2.655,0,3.647,1,2.386,5.219" transform="translate(17.081)" fill="#08c"/>
        </g>
      </g>
    </g>
  </g>
</svg>
