<svg xmlns="http://www.w3.org/2000/svg" width="24" height="24" viewBox="0 0 24 24">
    <path data-name="사각형 2288" style="fill:none;opacity:.2" d="M0 0h24v24H0z"/>
    <g data-name="naver blog" transform="translate(2 4)">
        <path data-name="패스 46" d="M4.365 6.842a.689.689 0 1 0 .689.689.689.689 0 0 0-.689-.689z"/>
        <circle data-name="타원 6" cx=".742" cy=".742" r=".742" transform="translate(10.425 6.773)"/>
        <path data-name="패스 47" d="M17.325 0H2.675A2.675 2.675 0 0 0 0 2.675v8.694a2.676 2.676 0 0 0 2.675 2.676h5.174l1.76 4.146s.121.36.414.36.414-.36.414-.36l1.76-4.146h5.127a2.676 2.676 0 0 0 2.675-2.676V2.675A2.675 2.675 0 0 0 17.325 0zM6.284 7.685A1.657 1.657 0 0 1 4.632 9.32a1.374 1.374 0 0 1-.994-.421v.287h-1.2V4.25s-.005 0 0 0c.074.012 1.2 0 1.2 0v1.888c.282-.48 1.1-.472 1.1-.472a1.752 1.752 0 0 1 1.545 2.019zm2.107-1.871v3.38H7.22V5.848c0-.455-.565-.582-.565-.582v-1.18A1.62 1.62 0 0 1 8.39 5.815zm2.777 3.508a1.814 1.814 0 1 1 1.963-1.808 1.89 1.89 0 0 1-1.964 1.808zm6.417 0a1.671 1.671 0 0 1-1.727 1.717h-.531V9.927h.32s.733.067.725-1.062c0 0-.143.457-1.171.457a1.544 1.544 0 0 1-1.458-1.527v-.539a1.666 1.666 0 0 1 1.633-1.592 1.193 1.193 0 0 1 1.02.455v-.362h1.188z"/>
        <circle data-name="타원 7" cx=".725" cy=".725" r=".725" transform="translate(14.997 6.79)"/>
    </g>
</svg>
