<svg xmlns="http://www.w3.org/2000/svg" width="24" height="24" viewBox="0 0 24 24">
  <g id="ico_tictoc_b" transform="translate(-1727 -8)">
    <rect id="사각형_12298" data-name="사각형 12298" width="24" height="24" transform="translate(1727 8)" fill="#fff" opacity="0"/>
    <path id="패스_55944" data-name="패스 55944" d="M209.191,42.645A4.282,4.282,0,0,1,204.9,38.4h-2.77v7.566l0,4.143a2.51,2.51,0,0,1-1.721,2.378,2.471,2.471,0,0,1-.929.123,2.506,2.506,0,0,1,.139-5.008,2.588,2.588,0,0,1,.789.126V44.921a5.357,5.357,0,0,0-4.789,1.725,5.2,5.2,0,0,0,.235,7.174,5.7,5.7,0,0,0,.5.438,5.352,5.352,0,0,0,7.008-.438,5.182,5.182,0,0,0,1.556-3.688l-.013-6.189a6.863,6.863,0,0,0,1.556.905,6.978,6.978,0,0,0,2.736.551V42.642s-.007,0-.007,0Z" transform="translate(1537.702 -26.4)"/>
  </g>
</svg>
