<svg id="naver_blog" data-name="naver blog" xmlns="http://www.w3.org/2000/svg" width="20" height="18.551" viewBox="0 0 20 18.551">
  <path id="패스_46" data-name="패스 46" d="M259.395,99.8a.689.689,0,1,0,.689.689A.689.689,0,0,0,259.395,99.8Z" transform="translate(-255.03 -92.958)" fill="#fff"/>
  <circle id="타원_6" data-name="타원 6" cx="0.742" cy="0.742" r="0.742" transform="translate(10.425 6.773)" fill="#fff"/>
  <path id="패스_47" data-name="패스 47" d="M248.769,49.036H234.119a2.675,2.675,0,0,0-2.675,2.675v8.694a2.676,2.676,0,0,0,2.675,2.676h5.174l1.76,4.146s.121.36.414.36h0c.293,0,.414-.36.414-.36l1.76-4.146h5.127a2.676,2.676,0,0,0,2.675-2.676V51.711A2.675,2.675,0,0,0,248.769,49.036Zm-11.041,7.685a1.657,1.657,0,0,1-1.652,1.635,1.374,1.374,0,0,1-.994-.421v.287h-1.2V53.286s-.005,0,0,0v0c.074.012,1.2,0,1.2,0v1.888c.282-.48,1.1-.472,1.1-.472A1.752,1.752,0,0,1,237.727,56.721Zm2.107-1.871V58.23h-1.171V54.884c0-.455-.565-.582-.565-.582v-1.18A1.62,1.62,0,0,1,239.834,54.851Zm2.777,3.508a1.814,1.814,0,1,1,1.963-1.808A1.89,1.89,0,0,1,242.611,58.358Zm6.417,0a1.671,1.671,0,0,1-1.727,1.717h-.531V58.963h.32s.733.067.725-1.062c0,0-.143.457-1.171.457a1.544,1.544,0,0,1-1.458-1.527v-.539A1.666,1.666,0,0,1,246.82,54.7a1.193,1.193,0,0,1,1.02.455v-.362h1.188Z" transform="translate(-231.444 -49.036)" fill="#fff"/>
  <circle id="타원_7" data-name="타원 7" cx="0.725" cy="0.725" r="0.725" transform="translate(14.997 6.79)" fill="#fff"/>
</svg>
