<svg xmlns="http://www.w3.org/2000/svg" xmlns:xlink="http://www.w3.org/1999/xlink" width="24" height="24" viewBox="0 0 24 24">
  <defs>
    <clipPath id="clip-c_ic_linkedin_invert">
      <rect width="24" height="24"/>
    </clipPath>
  </defs>
  <g id="c_ic_linkedin_invert" clip-path="url(#clip-c_ic_linkedin_invert)">
    <rect id="guide_16_16" data-name="guide_16*16" width="16" height="16" transform="translate(4 4)" fill="#fff" opacity="0"/>
    <g id="icon" transform="translate(3 3)">
      <rect id="사각형_2" data-name="사각형 2" width="3.19" height="9.281" transform="translate(2.483 7.414)" fill="#fff"/>
      <path id="패스_1" data-name="패스 1" d="M8.307,2.75a3.376,3.376,0,0,1,2.32.773,4.588,4.588,0,0,1,1.16,3.287v5.317H8.6V7.487a2.194,2.194,0,0,0-.29-1.257,1.225,1.225,0,0,0-.87-.387,1.4,1.4,0,0,0-.677.193.99.99,0,0,0-.483.58A3.475,3.475,0,0,0,6.084,7.68v4.35H2.7V2.75H5.89V5.457l-.773-.773A3.966,3.966,0,0,1,6.664,3.137,3.177,3.177,0,0,1,8.307,2.75" transform="translate(4.52 4.567)" fill="#fff"/>
      <path id="패스_2" data-name="패스 2" d="M2.127,0A2.127,2.127,0,1,1,0,2.127,2.126,2.126,0,0,1,2.127,0" transform="translate(2 2)" fill="#fff"/>
    </g>
  </g>
</svg>
