<svg xmlns="http://www.w3.org/2000/svg" width="24" height="24">
    <path d="M8.29 20.945a6.606 6.606 0 0 1-2.19-.418 4.436 4.436 0 0 1-1.59-1.037 4.409 4.409 0 0 1-1.037-1.6 6.6 6.6 0 0 1-.418-2.184C3.011 14.751 3 14.444 3 12s.011-2.75.055-3.711A6.606 6.606 0 0 1 3.473 6.1 4.4 4.4 0 0 1 4.51 4.511 4.412 4.412 0 0 1 6.1 3.473a6.567 6.567 0 0 1 2.19-.418C9.249 3.01 9.555 3 12 3s2.75.01 3.71.055a6.567 6.567 0 0 1 2.19.418 4.408 4.408 0 0 1 1.59 1.038A4.4 4.4 0 0 1 20.527 6.1a6.6 6.6 0 0 1 .418 2.184C20.989 9.249 21 9.556 21 12s-.011 2.751-.055 3.711a6.593 6.593 0 0 1-.418 2.184 4.594 4.594 0 0 1-2.627 2.632 6.606 6.606 0 0 1-2.186.418c-.963.044-1.269.055-3.714.055s-2.751-.011-3.71-.055zm.074-16.271a4.99 4.99 0 0 0-1.672.309 2.821 2.821 0 0 0-1.035.674 2.786 2.786 0 0 0-.672 1.035 4.938 4.938 0 0 0-.31 1.671C4.631 9.312 4.622 9.6 4.622 12s.008 2.689.052 3.637a4.945 4.945 0 0 0 .31 1.671 2.793 2.793 0 0 0 .672 1.035 2.8 2.8 0 0 0 1.035.673 4.973 4.973 0 0 0 1.672.31c.949.044 1.233.052 3.637.052s2.687-.008 3.636-.052a4.974 4.974 0 0 0 1.672-.31 2.974 2.974 0 0 0 1.707-1.707 4.978 4.978 0 0 0 .31-1.671c.044-.948.052-1.234.052-3.637s-.008-2.687-.052-3.636a4.971 4.971 0 0 0-.31-1.671 2.786 2.786 0 0 0-.672-1.035 2.821 2.821 0 0 0-1.035-.674 4.991 4.991 0 0 0-1.672-.309c-.948-.045-1.236-.055-3.636-.055s-2.688.01-3.636.053zM7.378 12A4.622 4.622 0 1 1 12 16.621 4.622 4.622 0 0 1 7.378 12zM9 12a3 3 0 1 0 3-3 3 3 0 0 0-3 3zm6.723-4.8A1.08 1.08 0 1 1 16.8 8.276a1.08 1.08 0 0 1-1.076-1.081z" style="fill:#fff"/>
</svg>
