<svg xmlns="http://www.w3.org/2000/svg" width="24" height="24">
    <path d="M20.82 8.951a3.9 3.9 0 0 0-.716-1.787 2.575 2.575 0 0 0-1.8-.762c-2.519-.182-6.3-.182-6.3-.182h-.008s-3.778 0-6.3.182a2.576 2.576 0 0 0-1.8.762 3.9 3.9 0 0 0-.715 1.787 27.225 27.225 0 0 0-.18 2.913v1.363a27.222 27.222 0 0 0 .18 2.913 3.894 3.894 0 0 0 .715 1.787 3.053 3.053 0 0 0 1.985.769c1.44.138 6.12.181 6.12.181s3.782-.006 6.3-.188a2.574 2.574 0 0 0 1.8-.762 3.9 3.9 0 0 0 .716-1.787 27.249 27.249 0 0 0 .18-2.913v-1.366a27.253 27.253 0 0 0-.177-2.91zm-10.678 5.934V9.827l4.864 2.538z" style="fill:#000"/>
</svg>
