<svg data-name="social - youtube" xmlns="http://www.w3.org/2000/svg" width="40" height="40">
    <path d="M213.524 472.835a5.2 5.2 0 0 0-.954-2.382 3.434 3.434 0 0 0-2.4-1.016c-3.358-.243-8.4-.243-8.4-.243h-.01s-5.038 0-8.4.243a3.435 3.435 0 0 0-2.4 1.016 5.192 5.192 0 0 0-.954 2.382 36.294 36.294 0 0 0-.24 3.884v1.821a36.289 36.289 0 0 0 .24 3.884 5.192 5.192 0 0 0 .954 2.382 4.069 4.069 0 0 0 2.646 1.026c1.92.184 8.16.241 8.16.241s5.043-.008 8.4-.25a3.432 3.432 0 0 0 2.4-1.017 5.2 5.2 0 0 0 .954-2.382 36.337 36.337 0 0 0 .24-3.884v-1.821a36.341 36.341 0 0 0-.236-3.884zm-14.238 7.911V474l6.485 3.383z" transform="translate(-181.764 -457.193)" style="fill:#fff"/>
</svg>
