<svg data-name="social - instagram" xmlns="http://www.w3.org/2000/svg" width="40" height="40">
    <path d="M5.877 19.939a7.339 7.339 0 0 1-2.428-.465 4.929 4.929 0 0 1-1.771-1.153 4.9 4.9 0 0 1-1.152-1.772 7.331 7.331 0 0 1-.465-2.426C.012 13.057 0 12.715 0 10s.012-3.056.061-4.124a7.341 7.341 0 0 1 .465-2.427 4.89 4.89 0 0 1 1.152-1.771A4.9 4.9 0 0 1 3.449.526 7.3 7.3 0 0 1 5.877.061C6.944.011 7.284 0 10 0s3.056.011 4.122.061a7.3 7.3 0 0 1 2.429.465 4.9 4.9 0 0 1 1.771 1.153 4.89 4.89 0 0 1 1.153 1.771 7.335 7.335 0 0 1 .465 2.427C19.988 6.944 20 7.284 20 10s-.012 3.057-.061 4.124a7.326 7.326 0 0 1-.465 2.426 5.1 5.1 0 0 1-2.923 2.925 7.34 7.34 0 0 1-2.429.465c-1.066.048-1.406.06-4.122.06s-3.056-.012-4.123-.061zM5.959 1.86A5.544 5.544 0 0 0 4.1 2.2a3.134 3.134 0 0 0-1.15.749A3.1 3.1 0 0 0 2.205 4.1a5.487 5.487 0 0 0-.345 1.857C1.812 7.014 1.8 7.33 1.8 10s.009 2.987.058 4.041a5.494 5.494 0 0 0 .347 1.859 3.1 3.1 0 0 0 .747 1.149A3.106 3.106 0 0 0 4.1 17.8a5.525 5.525 0 0 0 1.857.345c1.054.048 1.37.058 4.041.058s2.986-.009 4.04-.058A5.527 5.527 0 0 0 15.9 17.8a3.3 3.3 0 0 0 1.9-1.9 5.531 5.531 0 0 0 .345-1.857c.049-1.054.058-1.371.058-4.041s-.009-2.986-.058-4.04a5.523 5.523 0 0 0-.35-1.862 3.1 3.1 0 0 0-.747-1.15A3.134 3.134 0 0 0 15.9 2.2a5.546 5.546 0 0 0-1.858-.343C12.986 1.812 12.671 1.8 10 1.8s-2.986.012-4.041.06zM4.865 10A5.135 5.135 0 1 1 10 15.134 5.135 5.135 0 0 1 4.865 10zm1.8 0A3.333 3.333 0 1 0 10 6.667 3.333 3.333 0 0 0 6.667 10zm7.47-5.339a1.2 1.2 0 1 1 1.2 1.2 1.2 1.2 0 0 1-1.197-1.2z" transform="translate(10 10)" style="fill:#fff"/>
</svg>
