<svg id="ETC_Award1" xmlns="http://www.w3.org/2000/svg" width="44" height="44" viewBox="0 0 44 44">
  <path id="패스_46708" data-name="패스 46708" d="M32.792,8.778a32.775,32.775,0,0,0-.143-5.842,1.375,1.375,0,1,0-2.723.379c.017.124,1.63,12.541-5.443,19.511a8.261,8.261,0,0,0-2.459,5.844,17.327,17.327,0,0,0,2.906,7.914H15.465a15.37,15.37,0,0,0,2.766-7.914,8.261,8.261,0,0,0-2.459-5.844,15.577,15.577,0,0,1-1.879-2.245c-3.9-5.649-3.856-13.2-3.67-16.08H22.48a1.375,1.375,0,0,0,0-2.75H8.968A1.375,1.375,0,0,0,7.606,2.936,32.557,32.557,0,0,0,7.465,8.8a5.068,5.068,0,0,0-3.906,1,3.908,3.908,0,0,0-1.308,3.082A9.637,9.637,0,0,0,6.1,19.615a14.8,14.8,0,0,0,5.843,2.934,18.277,18.277,0,0,0,1.9,2.235,5.5,5.5,0,0,1,1.639,3.885c0,4.056-3.74,8.335-3.778,8.377a1.376,1.376,0,0,0,1.029,2.287H27.5a1.375,1.375,0,0,0,1.1-2.194c-1.065-1.436-3.83-5.758-3.83-8.47a5.5,5.5,0,0,1,1.639-3.885,18.175,18.175,0,0,0,1.9-2.237,14.763,14.763,0,0,0,5.854-2.955A9.671,9.671,0,0,0,38,12.844,3.9,3.9,0,0,0,36.7,9.776a5.068,5.068,0,0,0-3.9-1ZM5,12.856a1.156,1.156,0,0,1,.365-.986,2.934,2.934,0,0,1,2.387-.258,27.209,27.209,0,0,0,2,7.146,10.681,10.681,0,0,1-1.884-1.245A7.024,7.024,0,0,1,5,12.856ZM32.383,17.5a10.693,10.693,0,0,1-1.88,1.251,27.159,27.159,0,0,0,2.005-7.157,2.928,2.928,0,0,1,2.381.259,1.15,1.15,0,0,1,.363.977,7.058,7.058,0,0,1-2.869,4.67Z" transform="translate(1.873 1.458)" fill="#040000"/>
  <path id="패스_46709" data-name="패스 46709" d="M12.666,11.47l1.417,2.871L15.5,11.47l3.166-.46L16.375,8.777l.541-3.155L14.083,7.113,11.251,5.622l.541,3.155L9.5,11.01Z" transform="translate(7.917 4.685)" fill="#040000"/>
  <rect id="사각형_13215" data-name="사각형 13215" width="44" height="44" fill="none"/>
</svg>
