<svg xmlns="http://www.w3.org/2000/svg" width="44" height="44" viewBox="0 0 44 44">
  <g id="ETC_Testresult" transform="translate(0.217 0.217)">
    <path id="패스_46693" data-name="패스 46693" d="M8.866,16.78a2.316,2.316,0,0,0,.272-1.2v-.816a2.573,2.573,0,0,0-.2-1.086,1.559,1.559,0,0,0-.567-.66,2.347,2.347,0,0,0-.9-.326A7.513,7.513,0,0,0,6.26,12.6H2.838v8.175h2V17.713H6.119L7.47,20.775H9.6L8.037,17.45a1.62,1.62,0,0,0,.829-.671ZM7.122,15.336a1.413,1.413,0,0,1-.071.491.577.577,0,0,1-.229.287,1.023,1.023,0,0,1-.42.142,4.376,4.376,0,0,1-.643.039H4.833V14.007H5.9a1.7,1.7,0,0,1,.938.2.779.779,0,0,1,.283.687Z" transform="translate(2.3 10.272)" fill="#040000"/>
    <path id="패스_46694" data-name="패스 46694" d="M7.121,15.207a3.223,3.223,0,0,0-.229,1.281v.763a2.576,2.576,0,0,0,.785,2.094A3.608,3.608,0,0,0,10.032,20c.167,0,.345-.009.534-.023s.376-.035.562-.066.359-.062.523-.1a1.938,1.938,0,0,0,.42-.147V18.374a4.42,4.42,0,0,1-.922.218,6.6,6.6,0,0,1-.866.066,2.439,2.439,0,0,1-1.128-.208.862.862,0,0,1-.388-.839v-.121h3.8v-.85a4.143,4.143,0,0,0-.207-1.405,2.281,2.281,0,0,0-.578-.91,2.112,2.112,0,0,0-.893-.486A4.442,4.442,0,0,0,9.737,13.7a3.879,3.879,0,0,0-1.1.153,2.318,2.318,0,0,0-1.52,1.357Zm1.646.944a1.166,1.166,0,0,1,.256-.807.959.959,0,0,1,.747-.284.932.932,0,0,1,.758.284,1.2,1.2,0,0,1,.234.784v.229h-2Z" transform="translate(5.603 11.169)" fill="#040000"/>
    <path id="패스_46695" data-name="패스 46695" d="M12.753,19.992a4.016,4.016,0,0,0,1.177-.147,2.053,2.053,0,0,0,.774-.408,1.469,1.469,0,0,0,.42-.616,2.288,2.288,0,0,0,.125-.768,3.263,3.263,0,0,0-.066-.7,1.2,1.2,0,0,0-.245-.518,1.506,1.506,0,0,0-.491-.376,4.094,4.094,0,0,0-.8-.289l-.7-.186c-.174-.043-.314-.082-.42-.114a1.473,1.473,0,0,1-.25-.1.244.244,0,0,1-.121-.121.553.553,0,0,1-.027-.19.448.448,0,0,1,.038-.192.3.3,0,0,1,.147-.137.921.921,0,0,1,.3-.076,4.5,4.5,0,0,1,.484-.021c.124,0,.262.005.414.016s.307.027.464.05.307.046.452.076.273.059.382.087V13.931a7.455,7.455,0,0,0-1.865-.229,3.245,3.245,0,0,0-1.913.442,1.592,1.592,0,0,0-.594,1.368,2.723,2.723,0,0,0,.076.671,1.366,1.366,0,0,0,.267.534,1.742,1.742,0,0,0,.5.41,3.276,3.276,0,0,0,.79.293l.676.165c.167.043.3.08.4.108a.756.756,0,0,1,.234.1.311.311,0,0,1,.109.137.612.612,0,0,1,.027.2.366.366,0,0,1-.2.36,2.071,2.071,0,0,1-.784.1,8.732,8.732,0,0,1-.884-.06,6.339,6.339,0,0,1-1.253-.279v1.386a6.841,6.841,0,0,0,1.172.266,8.3,8.3,0,0,0,1.172.092Z" transform="translate(8.484 11.164)" fill="#040000"/>
    <path id="패스_46696" data-name="패스 46696" d="M13.922,19.413a1.476,1.476,0,0,0,.584.387,2.575,2.575,0,0,0,.921.142,3.958,3.958,0,0,0,1.009-.147,2.9,2.9,0,0,0,1.008-.5l.142.513h1.439V13.781h-1.94v4.285a2.119,2.119,0,0,1-.534.261,1.729,1.729,0,0,1-.546.1c-.225,0-.37-.062-.436-.186a1.249,1.249,0,0,1-.1-.566V13.781H13.53v4.3a3.049,3.049,0,0,0,.087.747,1.386,1.386,0,0,0,.305.589Z" transform="translate(11.032 11.238)" fill="#040000"/>
    <path id="패스_46697" data-name="패스 46697" d="M17.226,20.893h1.938V12.456l-1.938.327Z" transform="translate(14.051 10.155)" fill="#040000"/>
    <path id="패스_46698" data-name="패스 46698" d="M21.578,12.888l-1.94.371v1.253H18.69v1.352h.948v3.13a1.642,1.642,0,0,0,.43,1.253,1.988,1.988,0,0,0,1.39.4,4.919,4.919,0,0,0,.927-.087,2.691,2.691,0,0,0,.8-.271V19.014a1.671,1.671,0,0,1-.475.153,3.155,3.155,0,0,1-.518.043.6.6,0,0,1-.491-.153.983.983,0,0,1-.12-.577V15.863h1.6V14.511h-1.6Z" transform="translate(15.247 10.508)" fill="#040000"/>
    <path id="패스_46699" data-name="패스 46699" d="M7.5,10.241H8.937v3.813h1.175V10.241h1.439v-1H7.5Z" transform="translate(6.107 7.529)" fill="#040000"/>
    <path id="패스_46700" data-name="패스 46700" d="M13.332,10.157V9.24h-3.3v4.814h3.4v-.917H11.2V12.06h1.918v-.912H11.2v-.99Z" transform="translate(8.171 7.529)" fill="#040000"/>
    <path id="패스_46701" data-name="패스 46701" d="M15.258,13.753a1.112,1.112,0,0,0,.328-.462,1.763,1.763,0,0,0,.1-.621,2.06,2.06,0,0,0-.068-.558,1.091,1.091,0,0,0-.208-.407,1.13,1.13,0,0,0-.356-.282,2.472,2.472,0,0,0-.511-.19l-.481-.123c-.124-.029-.233-.058-.325-.086a.978.978,0,0,1-.231-.1.44.44,0,0,1-.141-.136.38.38,0,0,1-.048-.2.47.47,0,0,1,.042-.209.331.331,0,0,1,.144-.144.921.921,0,0,1,.276-.088,2.826,2.826,0,0,1,.443-.029c.184,0,.385.013.6.033a4.163,4.163,0,0,1,.581.1v-.88a2.045,2.045,0,0,0-.277-.067c-.107-.019-.224-.035-.349-.052s-.258-.025-.395-.031-.272-.008-.4-.008a3.333,3.333,0,0,0-.835.09,1.447,1.447,0,0,0-.568.27,1.066,1.066,0,0,0-.327.449,1.675,1.675,0,0,0-.107.623,1.391,1.391,0,0,0,.292.936,1.472,1.472,0,0,0,.787.462l.474.121a4.227,4.227,0,0,1,.407.123.983.983,0,0,1,.244.119.326.326,0,0,1,.119.14.524.524,0,0,1,.031.19.377.377,0,0,1-.211.372,1.617,1.617,0,0,1-.668.1,4.851,4.851,0,0,1-.668-.054,4.563,4.563,0,0,1-.8-.2v.938a3.917,3.917,0,0,0,.847.2,6.785,6.785,0,0,0,.8.054,3.277,3.277,0,0,0,.872-.1,1.571,1.571,0,0,0,.584-.293Z" transform="translate(9.898 7.5)" fill="#040000"/>
    <path id="패스_46702" data-name="패스 46702" d="M14.27,10.241h1.439v3.813h1.175V10.241h1.437v-1H14.27Z" transform="translate(11.637 7.529)" fill="#040000"/>
    <path id="패스_46703" data-name="패스 46703" d="M23.147,18.25a1.363,1.363,0,0,0-1.363,1.363v2.725L16.7,18.523a1.363,1.363,0,0,0-1.636,0L9.975,22.338V19.613a1.363,1.363,0,1,0-2.725,0v5.45a1.363,1.363,0,0,0,2.18,1.09l6.449-4.837,6.449,4.837a1.363,1.363,0,0,0,2.18-1.09v-5.45A1.363,1.363,0,0,0,23.147,18.25Z" transform="translate(5.903 14.887)" fill="#040000"/>
    <path id="패스_46704" data-name="패스 46704" d="M15.427,4.25A8.651,8.651,0,0,0,7.99,8.56a1.363,1.363,0,0,0,2.356,1.371,5.844,5.844,0,0,1,10.161,0A1.363,1.363,0,1,0,22.863,8.56a8.651,8.651,0,0,0-7.436-4.31Z" transform="translate(6.356 3.453)" fill="#040000"/>
    <path id="패스_46705" data-name="패스 46705" d="M31.807,19.354a14.073,14.073,0,1,0-26.966,0,1.363,1.363,0,0,0,2.612-.779,11.361,11.361,0,1,1,21.743,0,1.363,1.363,0,1,0,2.612.779Z" transform="translate(3.453 1.002)" fill="#040000"/>
    <rect id="사각형_13213" data-name="사각형 13213" width="44" height="44" transform="translate(-0.217 -0.217)" fill="none"/>
  </g>
</svg>
