<svg xmlns="http://www.w3.org/2000/svg" xmlns:xlink="http://www.w3.org/1999/xlink" width="372" height="28" viewBox="0 0 372 28">
  <defs>
    <clipPath id="clip-path">
      <rect id="矩形_1" data-name="矩形 1" width="372" height="28" transform="translate(946 -272)" fill="#fff" stroke="#707070" stroke-width="1"/>
    </clipPath>
    <clipPath id="clip-path-2">
      <rect id="사각형_13575" data-name="사각형 13575" width="372" height="21" transform="translate(0 0.01)" fill="#fff"/>
    </clipPath>
  </defs>
  <g id="蒙版组_1" data-name="蒙版组 1" transform="translate(-946 272)" clip-path="url(#clip-path)">
    <g id="그룹_12881" data-name="그룹 12881" transform="translate(946 -267.168)">
      <g id="그룹_12880" data-name="그룹 12880" transform="translate(0 0.158)" clip-path="url(#clip-path-2)">
        <path id="패스_56016" data-name="패스 56016" d="M20.284,7.874l-8.2,10.878L7.946,7.874H0L4.321,19.222h0a6.458,6.458,0,0,0,6.471,4.285h5.652L28.232,7.874Z" transform="translate(0 -2.589)" fill="#fff" fill-rule="evenodd"/>
        <path id="패스_56017" data-name="패스 56017" d="M56.336,6.286H48.405c-8.534,0-9.673,5.2-9.673,5.2l-1.006,4.039c-1.463,5.9,6.627,6.325,6.627,6.325l1.919-.009H61.317l.844-3.352H48.08c-3.352,0-2.9-2.459-2.9-2.459l.176-.712H62.963l.655-2.634c1.649-6.642-7.285-6.4-7.285-6.4m-.893,5.784H46.192C46.837,9.485,49.72,9.46,49.72,9.46h3.336c3.542,0,2.381,2.614,2.381,2.614m93-2.671h11.706l.793-3.121H146.869c-7.433,0-8.424,4.527-8.424,4.527l-.218.868h.007c-.212,2.22,1.457,3.421,3.881,3.421h9.23c.986,0,1.458.591,1.072,1.336-.521,1-2.167,1.342-3.345,1.342H137.1l-1.027,4.064h15.248c7.427,0,8.421-4.528,8.421-4.528l.214-.859a3.709,3.709,0,0,0-3.7-4.5h-9.418c-.76,0-1.533-.4-.963-1.329a3.57,3.57,0,0,1,2.563-1.212M129.069,6.288l-2.5,9.995h0l-.548,2.2h-4.7c-2.035,0-3.377-1.095-2.987-2.425l2.479-9.777H104.031l.91-3.55H96.513L92.951,16.839c-.8,2.742,2.117,4.994,6.474,4.994h5.151l.846-3.352h-.933c-2.028,0-3.376-1.093-2.987-2.422l1.711-6.6h8.422l-1.861,7.384c-.793,2.742,2.117,4.994,6.477,4.994h16.857l3.925-15.553ZM82.24,16.152l-6.2-9.867H68.093l-3.95,15.637h7.946l2.49-9.864,6.209,9.864h7.945L92.676,6.286H84.732Z" transform="translate(-11.606 -1.001)" fill="#fff" fill-rule="evenodd"/>
        <path id="패스_56018" data-name="패스 56018" d="M284.233.254c-1.466,1.935-3.223,1.985-7.725,2.132l-.793,3.4h5.828l-3.808,15.291h9.426l5.1-20.818Z" transform="translate(-85.226 -0.235)" fill="#fff"/>
        <path id="패스_56019" data-name="패스 56019" d="M257.606,5.7l.875-3.764C256.761.648,253.3,0,248.064,0c-8.971,0-14.1,1.676-15.407,5.079a2.358,2.358,0,0,0-.131,1.1,2.654,2.654,0,0,0,1.2,1.9,19.623,19.623,0,0,0,5.517,2.531q3.363,1.076,6.7,2.162c1.7.591,1.835,1.278,1.947,2.057a1.652,1.652,0,0,1-.088.69c-.509,1.626-1.892,2.448-5.689,2.448-2.933,0-4.477-.661-4.635-1.97a3.285,3.285,0,0,1,.19-1.393h-6.636l-1.6,4.172c1.745,1.582,5.586,2.387,11.541,2.387,4.619,0,8.791-.226,11.857-1.294,3.042-1.059,4.531-2.879,5.115-4.82a3.246,3.246,0,0,0,.152-1.58q-.284-1.492-2.862-2.767a75.944,75.944,0,0,0-9.514-3.242,23.737,23.737,0,0,1-2.764-.98c-.838-.345-1.284-.753-1.354-1.228a.882.882,0,0,1,.11-.581q.664-1.852,5.4-1.848,3.931,0,4.219,1.676a5.37,5.37,0,0,1,.088,1.2Z" transform="translate(-70.919 -0.156)" fill="#fff"/>
        <path id="패스_56020" data-name="패스 56020" d="M353.808,12.278l-6.559,8.7-3.313-8.7H337.58l3.455,9.079h0a5.16,5.16,0,0,0,5.175,3.432h4.525l9.436-12.506Z" transform="translate(-104.35 -3.951)" fill="#fff" fill-rule="evenodd"/>
        <path id="패스_56021" data-name="패스 56021" d="M321.481,12.278h-6.35c-6.825,0-7.738,4.159-7.738,4.159l-.8,3.232c-1.172,4.721,5.3,5.061,5.3,5.061l1.537-.008H325.47l.68-2.68H314.885c-2.681,0-2.32-1.968-2.32-1.968l.145-.569H326.8l.524-2.11c1.323-5.311-5.831-5.115-5.831-5.115m-.713,4.626h-7.4a2.98,2.98,0,0,1,2.822-2.091h2.67c2.834,0,1.909,2.091,1.909,2.091" transform="translate(-94.726 -3.951)" fill="#fff" fill-rule="evenodd"/>
        <path id="패스_56022" data-name="패스 56022" d="M382.823,12.278h-6.748c-6.827,0-7.772,4.159-7.772,4.159l-1.066,4.132s-1.2,4.161,5.629,4.161h6.748c6.828,0,7.772-4.161,7.772-4.161l1.066-4.132s1.2-4.159-5.629-4.159m-.576,4.624-.824,3.2a3.009,3.009,0,0,1-2.838,2.09H375.21s-2.293-.022-1.764-2.09l.825-3.2a3,3,0,0,1,2.838-2.091h3.374s2.293.021,1.764,2.091" transform="translate(-113.491 -3.951)" fill="#fff" fill-rule="evenodd"/>
        <path id="패스_56023" data-name="패스 56023" d="M439,16.776h-4.731c-2.584,0-6.031.029-8.159.082,1.46-.978,4.289-2.879,6.324-4.365l9.5-6.993,3.487-2.85h-22.54c-5.166,0-4.87,3.38-4.87,3.38h3.32c2.584,0,9.426-.026,11.552-.084-1.458.979-4.286,2.882-6.322,4.364l-9.5,7-5.521,3.887h31.937c-.918-4.257-4.474-4.418-4.474-4.418" transform="translate(-127.209 -0.974)" fill="#fff"/>
        <path id="패스_56024" data-name="패스 56024" d="M518.187,13.121h10.142l.681-2.7H516.826c-6.438,0-7.3,3.922-7.3,3.922l-.188.754h0c-.182,1.923,1.263,2.962,3.364,2.962h8c.853,0,1.265.513.93,1.159-.451.868-1.879,1.16-2.9,1.16H508.361l-.89,3.52h13.206c6.438,0,7.3-3.922,7.3-3.922l.183-.745a3.213,3.213,0,0,0-3.2-3.9h-8.162c-.655,0-1.328-.353-.834-1.147a3.1,3.1,0,0,1,2.222-1.05" transform="translate(-156.863 -3.375)" fill="#fff"/>
        <path id="패스_56025" data-name="패스 56025" d="M491.426,10.415h-5.942L474.445,23.89h5.944l2.436-2.976h7.168l.638,2.976h5.309l-2.888-13.475Zm-6.759,8.254,3.841-4.691,1,4.691Z" transform="translate(-146.655 -3.375)" fill="#fff"/>
      </g>
    </g>
  </g>
</svg>
