<svg xmlns="http://www.w3.org/2000/svg" xmlns:xlink="http://www.w3.org/1999/xlink" width="372" height="28" viewBox="0 0 372 28">
  <defs>
    <clipPath id="clip-path">
      <rect id="사각형_13291" data-name="사각형 13291" width="372" height="28" transform="translate(320.442 855.18)" fill="none" stroke="#707070" stroke-width="1"/>
    </clipPath>
    <clipPath id="clip-path-2">
      <rect id="사각형_13577" data-name="사각형 13577" width="199.372" height="28" fill="none"/>
    </clipPath>
  </defs>
  <g id="BI_title" data-name="BI title" transform="translate(-320.442 -855.18)" clip-path="url(#clip-path)">
    <g id="그룹_11222" data-name="그룹 11222" transform="translate(-583.436 574.212)">
      <g id="그룹_12467" data-name="그룹 12467" transform="translate(903.878 280.968)" clip-path="url(#clip-path-2)">
        <path id="패스_55945" data-name="패스 55945" d="M265.072,30.121l-.845-4.182c-.154-.678-.25-1.164-.366-1.954-.384.711-.826,1.372-1.268,2.034l-2.69,4.1Zm2.479,4.681h-1.5l-.769-3.568h-6.092L256.865,34.8h-1.557l8.051-12.108h1.422Z" transform="translate(-80.55 -7.16)" fill="#fff"/>
        <path id="패스_55946" data-name="패스 55946" d="M279.207,34.886a12.779,12.779,0,0,1-4.3-.645l.288-1.2a12.648,12.648,0,0,0,4.244.727c2.613,0,4.039-.921,4.039-2.875,0-.775-.4-1.147-2.153-1.566l-1.921-.452c-1.729-.4-2.555-1.324-2.555-2.567,0-2.6,2.036-3.859,5.476-3.859a12.715,12.715,0,0,1,3.555.4l-.231,1.066a12.747,12.747,0,0,0-3.228-.372c-2.171,0-4.112.436-4.112,2.648,0,.791.519,1.275,1.806,1.583l1.864.452c2.286.548,3,1.292,3,2.422,0,2.745-1.921,4.23-5.764,4.23" transform="translate(-86.733 -7.083)" fill="#fff"/>
        <path id="패스_55947" data-name="패스 55947" d="M37.676,32.238c.026-.1,4.689-17.5,4.734-17.67H36.728c-.026.1-4.69,17.5-4.735,17.67Z" transform="translate(-10.094 -4.596)" fill="#fff"/>
        <path id="패스_55948" data-name="패스 55948" d="M68.19,16.187c-.821-1.075-2.379-1.619-4.623-1.619H50.478c-.027.1-4.69,17.5-4.735,17.67h5.681L55.16,18.292H60a2.942,2.942,0,0,1,2.475.86,2.194,2.194,0,0,1,.394,1.369,7.062,7.062,0,0,1-.282,1.754l-2.67,9.966H65.6c.026-.1,2.928-10.919,2.928-10.919a10.294,10.294,0,0,0,.4-2.629,3.987,3.987,0,0,0-.737-2.5" transform="translate(-14.432 -4.596)" fill="#fff"/>
        <path id="패스_55949" data-name="패스 55949" d="M88.018,21.762l.364-1.361a3.568,3.568,0,0,1,3.807-2.852h9.877c.025-.1.753-2.822.8-2.982H90.332c-3.854,0-6.58,1.922-7.48,5.271,0,0-3.276,12.229-3.321,12.4h18.6c.025-.094.757-2.823.8-2.983H86.013l1.126-4.214H98.413c.025-.1.835-3.117.878-3.277Z" transform="translate(-25.092 -4.596)" fill="#fff"/>
        <path id="패스_55950" data-name="패스 55950" d="M145.935,23.407a7.751,7.751,0,0,0-.274,2,6.173,6.173,0,0,0,1.262,3.814c1.493,1.945,4.1,3.017,7.339,3.017h9.5c.027-.1,2.765-10.32,2.806-10.473H157.5c-.025.094-.837,3.117-.88,3.278h3.385l-1.129,4.214h-2.216c-2.265,0-3.74-.487-4.51-1.492a3.4,3.4,0,0,1-.632-2.139,8.765,8.765,0,0,1,.337-2.225c1.087-4.046,3.524-5.849,7.9-5.849h7.11c.026-.1.758-2.823.8-2.982h-8.636c-6.119,0-11.75,3.8-13.1,8.838" transform="translate(-45.956 -4.598)" fill="#fff"/>
        <path id="패스_55951" data-name="패스 55951" d="M185.386,14.568h-5.421l4.529,11.573s-5.464,5.879-5.669,6.1l5.623.022s16.216-17.467,16.428-17.693h-5.622c-.041.043-6.933,7.455-6.933,7.455l-2.936-7.455" transform="translate(-56.42 -4.596)" fill="#fff"/>
        <path id="패스_55952" data-name="패스 55952" d="M126,14.568H115.363c-.027.1-4.689,17.5-4.734,17.67h5.681l4.013-14.979h2.555l.719,0c2.067-.013,3.852-.023,4.569.906a2.177,2.177,0,0,1,.181,1.965c-.744,2.77-3.577,2.748-6.317,2.726l-.748,0h-1.858c.109.2,5.163,9.324,5.2,9.393h6.281c-.116-.2-4.163-7.2-4.163-7.2h.118c3.682,0,6.281-1.816,7.128-4.982a6.215,6.215,0,0,0,.236-1.6,3.071,3.071,0,0,0-.6-1.935c-1.038-1.352-3.387-1.955-7.619-1.955" transform="translate(-34.904 -4.596)" fill="#fff"/>
        <path id="패스_55953" data-name="패스 55953" d="M23.839,14.561l-6.657-.012L8.819,20.516l1.6-5.955H4.733c-.027.1-4.688,17.5-4.733,17.67H5.681l1.674-6.25.084.093s5.512,6.124,5.512,6.16h7.393l-8.373-9.28s11.52-8.153,11.867-8.394" transform="translate(0 -4.59)" fill="#fff"/>
        <path id="패스_55954" data-name="패스 55954" d="M88.3,6.539l-.643,2.4h28.1l.644-2.4Z" transform="translate(-27.657 -2.063)" fill="#fff"/>
        <path id="패스_55955" data-name="패스 55955" d="M202.677,1.843,201.295,0a24.932,24.932,0,0,1-13.782,4.463l-14.732.005-.645,2.406H187.16a27.7,27.7,0,0,0,15.515-5.03" transform="translate(-54.309)" fill="#fff"/>
        <path id="패스_55956" data-name="패스 55956" d="M130.583,6.539l-.643,2.4h28.105l.642-2.4Z" transform="translate(-40.996 -2.063)" fill="#fff"/>
        <path id="패스_55957" data-name="패스 55957" d="M211.236,34.241l.537-2.327a14.447,14.447,0,0,0,4.132.629c1.863,0,2.862-.387,2.862-1.533,0-.616-.576-.775-2.113-1.194l-1.307-.356a2.953,2.953,0,0,1-2.5-2.806c0-2.875,2.19-4.2,6.264-4.2a17.173,17.173,0,0,1,4.093.4l-.519,2.212a17.449,17.449,0,0,0-3.362-.323c-2.21,0-2.96.452-2.96,1.437,0,.616.753.743,1.96,1.082l1.346.387c1.711.5,2.67,1.194,2.67,2.615,0,3.406-2.5,4.617-6.475,4.617a15.538,15.538,0,0,1-4.631-.645" transform="translate(-66.645 -7.083)" fill="#fff"/>
        <path id="패스_55958" data-name="패스 55958" d="M232.089,25.213l.576-2.519h11.759l-.576,2.519h-4.169l-2.19,9.589h-3.4l2.19-9.589Z" transform="translate(-73.225 -7.16)" fill="#fff"/>
        <path id="패스_55959" data-name="패스 55959" d="M265.072,30.121l-.845-4.182c-.154-.678-.25-1.164-.366-1.954-.384.711-.826,1.372-1.268,2.034l-2.69,4.1Zm2.479,4.681h-1.5l-.769-3.568h-6.092L256.865,34.8h-1.557l8.051-12.108h1.422Z" transform="translate(-80.55 -7.16)" fill="none"/>
        <path id="패스_55960" data-name="패스 55960" d="M279.207,34.886a12.779,12.779,0,0,1-4.3-.645l.288-1.2a12.648,12.648,0,0,0,4.244.727c2.613,0,4.039-.921,4.039-2.875,0-.775-.4-1.147-2.153-1.566l-1.921-.452c-1.729-.4-2.555-1.324-2.555-2.567,0-2.6,2.036-3.859,5.476-3.859a12.715,12.715,0,0,1,3.555.4l-.231,1.066a12.747,12.747,0,0,0-3.228-.372c-2.171,0-4.112.436-4.112,2.648,0,.791.519,1.275,1.806,1.583l1.864.452c2.286.548,3,1.292,3,2.422C284.971,33.4,283.046,34.886,279.207,34.886Z" transform="translate(-86.733 -7.083)" fill="none"/>
      </g>
    </g>
  </g>
</svg>
