<svg id="icon_ev-tire" xmlns="http://www.w3.org/2000/svg" width="32" height="32" viewBox="0 0 32 32">
  <g id="그룹_12880" data-name="그룹 12880" transform="translate(2 5)">
    <path id="패스_62137" data-name="패스 62137" d="M13.282,29.662h-2.1A1.187,1.187,0,0,1,10,28.475v-.262a1.186,1.186,0,0,1,1.334-1.177l2.1.262a1.187,1.187,0,0,1-.147,2.364Z" transform="translate(-6.966 -13.731)" fill="none" stroke="#fff" stroke-linecap="round" stroke-linejoin="round" stroke-width="1.16"/>
    <path id="패스_62138" data-name="패스 62138" d="M33.287,29.708h2.1a1.187,1.187,0,0,0,1.186-1.186v-.262a1.186,1.186,0,0,0-1.334-1.177l-2.1.262a1.187,1.187,0,0,0,.147,2.364Z" transform="translate(-12.3 -13.741)" fill="none" stroke="#fff" stroke-linecap="round" stroke-linejoin="round" stroke-width="1.16"/>
    <line id="선_365" data-name="선 365" x2="6.069" transform="translate(10.621 14.414)" fill="none" stroke="#fff" stroke-linecap="round" stroke-linejoin="round" stroke-width="1.16"/>
    <path id="패스_62139" data-name="패스 62139" d="M16.621,9.5h-1a3.793,3.793,0,0,0-3.156,1.689L7.517,19.362l-.88,1.32A3.793,3.793,0,0,0,6,22.786v1.755q0,2.406.2,4.8l.035.416A1.9,1.9,0,0,0,8.127,31.5H9.185a1.9,1.9,0,0,0,1.9-1.9V28.466" transform="translate(-6 -9.5)" fill="none" stroke="#fff" stroke-linecap="round" stroke-linejoin="round" stroke-width="1.16"/>
    <line id="선_366" data-name="선 366" x2="21.241" transform="translate(3.035 18.966)" fill="none" stroke="#fff" stroke-linecap="round" stroke-linejoin="round" stroke-width="1.16"/>
    <path id="패스_62140" data-name="패스 62140" d="M23.552,13.293h3.034l-4.552,6.828V16.328H19L23.552,9.5h3.28a3.792,3.792,0,0,1,3.156,1.689l4.943,8.173.88,1.32a3.793,3.793,0,0,1,.637,2.1v1.755q0,2.406-.2,4.8l-.036.417A1.9,1.9,0,0,1,34.323,31.5H33.254a1.9,1.9,0,0,1-1.9-1.9V28.466" transform="translate(-9.138 -9.5)" fill="none" stroke="#fff" stroke-linecap="round" stroke-linejoin="round" stroke-width="1.16"/>
    <path id="패스_62141" data-name="패스 62141" d="M9.2,20.516s2.124,1.793,6.676,2.263" transform="translate(-6.772 -12.159)" fill="none" stroke="#fff" stroke-linecap="round" stroke-linejoin="round" stroke-width="1.16"/>
    <path id="패스_62142" data-name="패스 62142" d="M36.676,20.516S34.552,22.309,30,22.779" transform="translate(-11.793 -12.159)" fill="none" stroke="#fff" stroke-linecap="round" stroke-linejoin="round" stroke-width="1.16"/>
    <line id="선_367" data-name="선 367" x2="2.428" transform="translate(0 8.357)" fill="none" stroke="#fff" stroke-linecap="round" stroke-linejoin="round" stroke-width="1.16"/>
    <line id="선_368" data-name="선 368" x1="2.428" transform="translate(24.883 8.357)" fill="none" stroke="#fff" stroke-linecap="round" stroke-linejoin="round" stroke-width="1.16"/>
  </g>
  <rect id="사각형_13286" data-name="사각형 13286" width="32" height="32" fill="none"/>
</svg>
