<svg xmlns="http://www.w3.org/2000/svg" width="24" height="24" viewBox="0 0 24 24">
  <g id="icon_truck" transform="translate(0)">
    <rect id="사각형_13288" data-name="사각형 13288" width="24" height="24" transform="translate(0)" fill="none"/>
    <g id="Cartype_Truck1" transform="translate(0 2.313)">
      <path id="패스_55811" data-name="패스 55811" d="M3.25,24.454a.439.439,0,0,0,.433.433H5.612a2.163,2.163,0,0,0,2.122,1.735H26.816a.434.434,0,0,0,0-.868H24.5a2.128,2.128,0,0,0,.4-.868h1.914a.439.439,0,0,0,.433-.433V18.093a.439.439,0,0,0-.433-.433H22.623v-1.88a.434.434,0,1,0-.868,0v2.313a.439.439,0,0,0,.433.433h4.192v2.6h-.721a.434.434,0,0,0,0,.868h.723v2.025h-1.5a2.163,2.163,0,0,0-4.245,0H14.477a2.163,2.163,0,0,0-4.245,0H9.851a2.163,2.163,0,0,0-4.245,0H4.118V20.84h14.6a.439.439,0,0,0,.433-.433V13.9h3.712a.717.717,0,0,1,.514.214l1.972,1.972a.433.433,0,0,0,.613-.613L23.993,13.5a1.585,1.585,0,0,0-1.125-.469H18.72a.439.439,0,0,0-.433.433v6.506H16.84V15.779a.439.439,0,0,0-.433-.433H15.1V11.154a.439.439,0,0,0-.433-.433h-1.3V7.683a.439.439,0,0,0-.433-.433H8.312a.439.439,0,0,0-.433.433v3.036h-1.3a.439.439,0,0,0-.433.433v4.192H4.84a.439.439,0,0,0-.433.433v2.313a.434.434,0,1,0,.868,0V16.212h4.913v3.759h-6.5a.439.439,0,0,0-.433.433Zm6.6.433h.382a2.128,2.128,0,0,0,.4.868H9.467a2.128,2.128,0,0,0,.388-.868Zm4.627,0h6.165a2.128,2.128,0,0,0,.4.868H14.093a2.128,2.128,0,0,0,.387-.868Zm8.287-1.735a1.3,1.3,0,1,1-1.3,1.3,1.3,1.3,0,0,1,1.3-1.3Zm-10.41,0a1.3,1.3,0,1,1-1.3,1.3,1.3,1.3,0,0,1,1.3-1.3Zm-4.627,0a1.3,1.3,0,1,1-1.3,1.3,1.3,1.3,0,0,1,1.3-1.3Zm6.505-7.807H9.9V11.587h4.337ZM8.744,8.118H12.5v2.6H8.744ZM7.009,11.587H9.034v3.759H7.009Zm4.05,4.627h4.915v3.759H11.057Z" transform="translate(-3.25 -7.25)" fill="#040000"/>
      <path id="패스_55812" data-name="패스 55812" d="M3.683,40.118H4.84a.434.434,0,1,0,0-.868H3.683a.434.434,0,1,0,0,.868Z" transform="translate(-3.249 -20.744)" fill="#040000"/>
    </g>
  </g>
</svg>
