<svg id="icon_pcr" xmlns="http://www.w3.org/2000/svg" width="24" height="24" viewBox="0 0 24 24">
  <rect id="사각형_12508" data-name="사각형 12508" width="24" height="24" fill="none"/>
  <g id="그룹_8228" data-name="그룹 8228" transform="translate(0 5.426)">
    <path id="패스_45929" data-name="패스 45929" d="M458.578,148.517h-6.684a.418.418,0,1,1,0-.836h6.684a.418.418,0,0,1,0,.836" transform="translate(-442.564 -137.655)"/>
    <path id="패스_45930" data-name="패스 45930" d="M454.564,145.517h-1.671a.418.418,0,1,1,0-.836h1.671a.418.418,0,0,1,0,.836" transform="translate(-442.449 -137.997)"/>
    <path id="패스_45931" data-name="패스 45931" d="M446.122,145.017h-2.228a.418.418,0,1,1,0-.836h2.228a.418.418,0,1,1,0,.836" transform="translate(-443.476 -138.054)"/>
    <path id="패스_45932" data-name="패스 45932" d="M460.122,150.972a2.646,2.646,0,1,1,2.646-2.646,2.646,2.646,0,0,1-2.646,2.646m0-4.456a1.81,1.81,0,1,0,1.81,1.81,1.81,1.81,0,0,0-1.81-1.81" transform="translate(-441.879 -137.882)"/>
    <path id="패스_45933" data-name="패스 45933" d="M448.122,150.972a2.646,2.646,0,1,1,2.645-2.646,2.646,2.646,0,0,1-2.645,2.646m0-4.456a1.81,1.81,0,1,0,1.81,1.81,1.81,1.81,0,0,0-1.81-1.81" transform="translate(-443.248 -137.882)"/>
    <path id="패스_45934" data-name="패스 45934" d="M452.894,143.8a.418.418,0,0,1-.418-.418V140.6a.418.418,0,0,1,.836,0v2.785a.418.418,0,0,1-.418.418" transform="translate(-442.449 -138.51)"/>
    <path id="패스_45935" data-name="패스 45935" d="M465.6,149.368h-2.23a.418.418,0,0,1,0-.836h1.81v-1.547a1.806,1.806,0,0,0-1-1.62l-2.99-1.5a.69.69,0,0,0-.311-.072H448.891a.418.418,0,0,1-.389-.573l1.114-2.785a.421.421,0,0,1,.389-.263h5.57a.418.418,0,1,1,0,.836h-5.287l-.78,1.951h11.374a1.525,1.525,0,0,1,.685.164l2.989,1.492a2.634,2.634,0,0,1,1.463,2.367v1.964a.418.418,0,0,1-.418.418" transform="translate(-442.905 -138.509)"/>
    <path id="패스_45936" data-name="패스 45936" d="M446.122,149.578a2.648,2.648,0,0,1-2.646-2.646v-2.817a.976.976,0,0,1,.975-.975h1.412l2.109-4.229a.418.418,0,0,1,.374-.23H456.8a1.517,1.517,0,0,1,1.084.448l1.914,1.915a.418.418,0,0,1-.59.59l-1.915-1.915a.7.7,0,0,0-.491-.2h-8.192l-2.112,4.225a.417.417,0,0,1-.374.232h-1.671a.139.139,0,0,0-.139.139v2.817a1.813,1.813,0,0,0,1.81,1.81.418.418,0,1,1,0,.836" transform="translate(-443.476 -138.681)"/>
    <path id="패스_45937" data-name="패스 45937" d="M464.011,146.517H462.9a.418.418,0,0,1,0-.836h1.114a.418.418,0,0,1,0,.836" transform="translate(-441.31 -137.883)"/>
    <path id="패스_45938" data-name="패스 45938" d="M445.011,150.517H443.9a.418.418,0,1,1,0-.836h1.114a.418.418,0,1,1,0,.836" transform="translate(-443.477 -137.427)"/>
    <path id="패스_45939" data-name="패스 45939" d="M465.719,150.517H447.893a.418.418,0,1,1,0-.836h17.825a.418.418,0,1,1,0,.836" transform="translate(-443.019 -137.427)"/>
  </g>
</svg>
