<svg xmlns="http://www.w3.org/2000/svg" width="32" height="31.999" viewBox="0 0 32 31.999">
  <g id="icon_light-truck" transform="translate(0)">
    <g id="그룹_12431" data-name="그룹 12431" transform="translate(0 8)">
      <path id="패스_55110" data-name="패스 55110" d="M33.129,19.419H23.683V16.913a.578.578,0,1,0-1.157,0V20a.578.578,0,0,0,.578.578H33.129a.965.965,0,0,1,.964.964V22.5h-.964a.578.578,0,0,0,0,1.157h.964v2.7H32.107a2.891,2.891,0,0,0-5.666,0H12.059a2.891,2.891,0,0,0-5.666,0H4.407V20.6H18.479a.578.578,0,0,0,.578-.578V14.407H24.78a.969.969,0,0,1,.681.282l2.632,2.633a.578.578,0,1,0,.818-.818l-2.632-2.633a2.106,2.106,0,0,0-1.5-.621h-6.3a.578.578,0,0,0-.578.578v5.614H3.828a.578.578,0,0,0-.578.578v6.916a.578.578,0,0,0,.578.578H6.393a2.9,2.9,0,0,0,2.833,2.313H34.671a.578.578,0,1,0,0-1.157h-3.1a2.866,2.866,0,0,0,.535-1.157H34.67a.578.578,0,0,0,.578-.578v-5.4a2.123,2.123,0,0,0-2.12-2.12Zm-21.07,8.1H26.441a2.866,2.866,0,0,0,.535,1.157H11.524a2.865,2.865,0,0,0,.535-1.157Zm-4.568-.578a1.735,1.735,0,1,1,1.735,1.735,1.735,1.735,0,0,1-1.735-1.735Zm20.048,0a1.735,1.735,0,1,1,1.735,1.735A1.735,1.735,0,0,1,27.539,26.941Z" transform="translate(-3.249 -13.25)" fill="#fff"/>
      <path id="패스_55111" data-name="패스 55111" d="M5.37,33.25H3.828a.578.578,0,0,0,0,1.157H5.37a.578.578,0,1,0,0-1.157Z" transform="translate(-3.249 -17.829)" fill="#fff"/>
    </g>
    <rect id="사각형_13287" data-name="사각형 13287" width="32" height="31.999" transform="translate(0)" fill="none"/>
  </g>
</svg>
