<svg id="icon_ev-tire" xmlns="http://www.w3.org/2000/svg" width="24" height="24" viewBox="0 0 24 24">
  <g id="그룹_12880" data-name="그룹 12880" transform="translate(-2 -1.75)">
    <path id="패스_62137" data-name="패스 62137" d="M12.644,29.149H10.956A.956.956,0,0,1,10,28.193v-.211a.956.956,0,0,1,1.074-.948l1.688.211a.956.956,0,0,1-.119,1.9Z" transform="translate(-4.556 -11.567)" fill="none" stroke="#040000" stroke-linecap="round" stroke-linejoin="round" stroke-width="0.87"/>
    <path id="패스_62138" data-name="패스 62138" d="M33.057,29.2h1.688a.956.956,0,0,0,.956-.956v-.211a.956.956,0,0,0-1.074-.948l-1.688.211a.956.956,0,0,0,.119,1.9Z" transform="translate(-13.15 -11.584)" fill="none" stroke="#040000" stroke-linecap="round" stroke-linejoin="round" stroke-width="0.87"/>
    <line id="선_365" data-name="선 365" x2="4.889" transform="translate(11.555 16.361)" fill="none" stroke="#040000" stroke-linecap="round" stroke-linejoin="round" stroke-width="0.87"/>
    <path id="패스_62139" data-name="패스 62139" d="M14.555,9.5h-.809A3.055,3.055,0,0,0,11.2,10.861L7.222,17.444l-.709,1.063A3.056,3.056,0,0,0,6,20.2v1.414q0,1.938.163,3.869l.028.335a1.528,1.528,0,0,0,1.523,1.4h.852a1.529,1.529,0,0,0,1.528-1.528v-.916" transform="translate(-3 -4.75)" fill="none" stroke="#040000" stroke-linecap="round" stroke-linejoin="round" stroke-width="0.87"/>
    <line id="선_366" data-name="선 366" x2="17.111" transform="translate(5.445 20.027)" fill="none" stroke="#040000" stroke-linecap="round" stroke-linejoin="round" stroke-width="0.87"/>
    <path id="패스_62140" data-name="패스 62140" d="M22.667,12.555h2.444l-3.667,5.5V15H19l3.667-5.5h2.642a3.054,3.054,0,0,1,2.542,1.36l3.982,6.584.709,1.063a3.056,3.056,0,0,1,.513,1.7v1.414q0,1.938-.162,3.869l-.029.336a1.526,1.526,0,0,1-1.521,1.4h-.861a1.528,1.528,0,0,1-1.528-1.528v-.917" transform="translate(-8.056 -4.75)" fill="none" stroke="#040000" stroke-linecap="round" stroke-linejoin="round" stroke-width="0.87"/>
    <path id="패스_62141" data-name="패스 62141" d="M9.2,20.516a10.415,10.415,0,0,0,5.378,1.823" transform="translate(-4.244 -9.034)" fill="none" stroke="#040000" stroke-linecap="round" stroke-linejoin="round" stroke-width="0.87"/>
    <path id="패스_62142" data-name="패스 62142" d="M35.378,20.516A10.415,10.415,0,0,1,30,22.339" transform="translate(-12.334 -9.034)" fill="none" stroke="#040000" stroke-linecap="round" stroke-linejoin="round" stroke-width="0.87"/>
    <line id="선_367" data-name="선 367" x2="1.956" transform="translate(3 11.482)" fill="none" stroke="#040000" stroke-linecap="round" stroke-linejoin="round" stroke-width="0.87"/>
    <line id="선_368" data-name="선 368" x1="1.956" transform="translate(23.044 11.482)" fill="none" stroke="#040000" stroke-linecap="round" stroke-linejoin="round" stroke-width="0.87"/>
  </g>
  <rect id="사각형_13286" data-name="사각형 13286" width="24" height="24" fill="none"/>
</svg>
