<svg xmlns="http://www.w3.org/2000/svg" width="24" height="24" viewBox="0 0 24 24">
  <g id="icon_suv-cuv" transform="translate(0)">
    <rect id="사각형_12508" data-name="사각형 12508" width="24" height="24" transform="translate(0)" fill="none"/>
    <g id="Cartype_SUV_CUV" transform="translate(0 4.624)">
      <path id="패스_55070" data-name="패스 55070" d="M25.683,24.118h1.735a.434.434,0,1,0,0-.868H25.683a.434.434,0,0,0,0,.868Z" transform="translate(-12.527 -16.307)" fill="#040000"/>
      <path id="패스_55071" data-name="패스 55071" d="M26.816,23.682a.433.433,0,0,0,.433-.433V17.466a1.592,1.592,0,0,0-1.59-1.59H14.527V12.117H17.5a.721.721,0,0,1,.566.273L19.605,14.3a.434.434,0,0,0,.675-.545l-1.543-1.908a1.583,1.583,0,0,0-1.241-.6H5.419a.434.434,0,1,0,0,.868H6.527l-1.41,3.759H4.262A1.013,1.013,0,0,0,3.25,16.887v3.469a1.013,1.013,0,0,0,1.012,1.012h.723v.457a2.543,2.543,0,0,0,.6,1.63A2.742,2.742,0,0,0,8.312,26h18.5a.434.434,0,0,0,0-.868H24.182a2.73,2.73,0,0,0,.71-1.446Zm-1.156-6.94a.724.724,0,0,1,.723.723v1.879h-1.3a.434.434,0,1,0,0,.868h1.3v2.6H24.892a2.735,2.735,0,0,0-5.41.036H14.527V16.743ZM8.312,20.5a2.74,2.74,0,0,0-2.443,1.51,1.684,1.684,0,0,1-.018-.187V16.743h7.807v6.109h-.723a.434.434,0,0,0,0,.868h6.551a2.731,2.731,0,0,0,.706,1.41H10.3A2.739,2.739,0,0,0,8.312,20.5Zm5.35-4.627H9.9V13.418a.434.434,0,0,0-.868,0v2.458H6.044l1.409-3.759h6.205ZM4.262,20.5a.145.145,0,0,1-.145-.145V16.887a.145.145,0,0,1,.145-.145h.723V20.5Zm2.168,2.747a1.879,1.879,0,1,1,.551,1.33A1.879,1.879,0,0,1,6.431,23.249Zm13.881,0a1.879,1.879,0,1,1,1.875,1.879,1.879,1.879,0,0,1-1.875-1.879Z" transform="translate(-3.25 -11.246)" fill="#040000"/>
      <path id="패스_55072" data-name="패스 55072" d="M4.84,35.25H3.683a.434.434,0,1,0,0,.868H4.84a.434.434,0,1,0,0-.868Z" transform="translate(-3.249 -21.368)" fill="#040000"/>
    </g>
  </g>
</svg>
