<svg id="icon_menu_competition-tire" xmlns="http://www.w3.org/2000/svg" width="24" height="24" viewBox="0 0 24 24">
  <g id="그룹_12330" data-name="그룹 12330" transform="translate(-1.625 -1.124)">
    <path id="패스_55108" data-name="패스 55108" d="M27.024,23.194c-.038-.022-.954-.52-2.282-1.148a2.732,2.732,0,0,0-3.648-1.516,14.843,14.843,0,0,0-3.493-.852.427.427,0,0,0-.347.132l-.815.85a.728.728,0,0,1-.52.223H14.57a.716.716,0,0,1-.51-.21L13.4,20a.726.726,0,0,1,.705-.587h1.144a.434.434,0,1,0,0-.867H14.1a1.6,1.6,0,0,0-1.6,1.6v0c0,.012.006.022.007.034a.347.347,0,0,0,.1.24c.008.01.011.022.02.031l.82.828a1.58,1.58,0,0,0,1.128.466h1.34a1.6,1.6,0,0,0,1.148-.489l.669-.694a13.4,13.4,0,0,1,2.476.584,2.7,2.7,0,0,0-.576,2.882h-7.61a2.743,2.743,0,1,0-5.238-1.567l-2.666-.891V17.117h.855v3.036a.434.434,0,0,0,.434.434H6.649a.434.434,0,0,0,.313-.134l2.132-2.23a1.3,1.3,0,0,1,.652-.37l2.757-.627v.613a.434.434,0,0,0,.867,0V16.684a.434.434,0,0,0-.53-.423l-3.287.748a2.169,2.169,0,0,0-1.087.616l-2,2.1H5.84V16.684a.434.434,0,0,0-.434-.434H3.684a.434.434,0,0,0-.434.434v5.2a.434.434,0,0,0,.3.412l3.209,1.069A2.726,2.726,0,0,0,11.484,24.9h8.692a2.717,2.717,0,0,0,4.027,0h2.614a.434.434,0,0,0,.434-.434v-.893a.434.434,0,0,0-.226-.38ZM9.467,24.929a1.88,1.88,0,1,1,1.88-1.88,1.88,1.88,0,0,1-1.88,1.88Zm12.723,0a1.88,1.88,0,1,1,1.88-1.88,1.88,1.88,0,0,1-1.88,1.88Zm4.192-.893H24.745a2.724,2.724,0,0,0,.186-.934c.659.32,1.174.588,1.451.735Z" transform="translate(-1.625 -8.125)" fill="#040000"/>
    <path id="패스_55109" data-name="패스 55109" d="M4.84,29.707H3.684a.434.434,0,1,0,0,.867H4.84a.434.434,0,1,0,0-.867Z" transform="translate(-1.625 -13.8)" fill="#040000"/>
  </g>
  <rect id="사각형_13286" data-name="사각형 13286" width="24" height="24" fill="none"/>
</svg>
