<svg xmlns="http://www.w3.org/2000/svg" width="24" height="24" viewBox="0 0 24 24">
  <g id="icon_light-truck" transform="translate(0)">
    <path id="패스_55110" data-name="패스 55110" d="M25.659,17.877H18.575V16a.434.434,0,1,0-.868,0v2.315a.433.433,0,0,0,.433.433h7.519a.724.724,0,0,1,.723.723v.718h-.723a.434.434,0,0,0,0,.868h.723V23.08H24.892a2.168,2.168,0,0,0-4.249,0H9.857a2.168,2.168,0,0,0-4.249,0H4.118V18.762H14.672a.433.433,0,0,0,.433-.433V14.118H19.4a.727.727,0,0,1,.511.211L21.882,16.3a.434.434,0,1,0,.613-.613l-1.974-1.975A1.579,1.579,0,0,0,19.4,13.25H14.672a.433.433,0,0,0-.433.433v4.21H3.683a.433.433,0,0,0-.433.433v5.187a.433.433,0,0,0,.433.433H5.607a2.175,2.175,0,0,0,2.125,1.735H26.815a.434.434,0,1,0,0-.868H24.49a2.149,2.149,0,0,0,.4-.868h1.923a.433.433,0,0,0,.433-.433v-4.05a1.592,1.592,0,0,0-1.59-1.59Zm-15.8,6.075H20.643a2.149,2.149,0,0,0,.4.868H9.455a2.149,2.149,0,0,0,.4-.868Zm-3.426-.433a1.3,1.3,0,1,1,1.3,1.3,1.3,1.3,0,0,1-1.3-1.3Zm15.036,0a1.3,1.3,0,1,1,1.3,1.3A1.3,1.3,0,0,1,21.466,23.518Z" transform="translate(-3.249 -7.467)" fill="#040000"/>
    <path id="패스_55111" data-name="패스 55111" d="M4.84,33.25H3.683a.434.434,0,0,0,0,.868H4.84a.434.434,0,1,0,0-.868Z" transform="translate(-3.249 -15.901)" fill="#040000"/>
    <rect id="사각형_13287" data-name="사각형 13287" width="24" height="24" transform="translate(0)" fill="none"/>
  </g>
</svg>
