<svg xmlns="http://www.w3.org/2000/svg" width="32" height="31.999" viewBox="0 0 32 31.999">
  <g id="icon_truck" transform="translate(0)">
    <rect id="사각형_13288" data-name="사각형 13288" width="31.999" height="31.999" transform="translate(0)" fill="none"/>
    <g id="Cartype_Truck1" transform="translate(0 3)">
      <path id="패스_55811" data-name="패스 55811" d="M3.25,30.189a.586.586,0,0,0,.578.578H6.4A2.884,2.884,0,0,0,9.23,33.08H34.671a.578.578,0,1,0,0-1.157H31.586a2.838,2.838,0,0,0,.532-1.157H34.67a.586.586,0,0,0,.578-.578V21.708a.586.586,0,0,0-.578-.578H29.08V18.623a.578.578,0,1,0-1.157,0v3.084a.586.586,0,0,0,.578.578h5.59v3.47h-.962a.578.578,0,0,0,0,1.157h.964v2.7H32.1a2.884,2.884,0,0,0-5.66,0H18.22a2.884,2.884,0,0,0-5.66,0h-.509a2.884,2.884,0,0,0-5.66,0H4.407V25.369H23.876a.586.586,0,0,0,.578-.578V16.117H29.4a.956.956,0,0,1,.686.285l2.629,2.629a.578.578,0,0,0,.817-.817l-2.629-2.629a2.113,2.113,0,0,0-1.5-.625H23.876a.586.586,0,0,0-.578.578v8.675H21.369v-5.59a.586.586,0,0,0-.578-.578H19.057v-5.59a.586.586,0,0,0-.578-.578H16.744V7.828a.586.586,0,0,0-.578-.578H10a.586.586,0,0,0-.578.578v4.048H7.684a.586.586,0,0,0-.578.578v5.59H5.37a.586.586,0,0,0-.578.578v3.084a.578.578,0,1,0,1.157,0V19.2H12.5v5.012H3.828a.586.586,0,0,0-.578.578Zm8.806.578h.509a2.838,2.838,0,0,0,.532,1.157H11.539a2.838,2.838,0,0,0,.517-1.157Zm6.169,0h8.22a2.838,2.838,0,0,0,.532,1.157H17.708a2.838,2.838,0,0,0,.516-1.157Zm11.05-2.313a1.735,1.735,0,1,1-1.735,1.735,1.735,1.735,0,0,1,1.735-1.735Zm-13.88,0a1.735,1.735,0,1,1-1.735,1.735A1.735,1.735,0,0,1,15.395,28.454Zm-6.169,0a1.735,1.735,0,1,1-1.735,1.735,1.735,1.735,0,0,1,1.735-1.735ZM17.9,18.045H12.117V13.033H17.9ZM10.575,8.407h5.012v3.47H10.575ZM8.262,13.033h2.7v5.012h-2.7Zm5.4,6.169h6.554v5.012H13.66Z" transform="translate(-3.249 -7.25)" fill="#fff"/>
      <path id="패스_55812" data-name="패스 55812" d="M3.828,40.407H5.37a.578.578,0,1,0,0-1.157H3.828a.578.578,0,1,0,0,1.157Z" transform="translate(-3.249 -14.576)" fill="#fff"/>
    </g>
  </g>
</svg>
