<svg xmlns="http://www.w3.org/2000/svg" width="32.002" height="32" viewBox="0 0 32.002 32">
  <g id="icon_competitiontire" transform="translate(0.001)">
    <rect id="사각형_13286" data-name="사각형 13286" width="32" height="32" transform="translate(0)" fill="none"/>
    <path id="합치기_9" data-name="합치기 9" d="M4312.168,13949.547a3.634,3.634,0,0,1-2.493-3.056l-4.282-1.426a.576.576,0,0,1-.4-.549v-6.939a.578.578,0,0,1,.581-.577h2.3a.578.578,0,0,1,.578.577v4.047h.83l2.671-2.793a2.889,2.889,0,0,1,1.449-.819l4.383-1a.588.588,0,0,1,.49.112.58.58,0,0,1,.217.451v1.544a.579.579,0,0,1-1.159,0v-.819l-3.673.837a1.73,1.73,0,0,0-.872.494l-2.843,2.972a.57.57,0,0,1-.417.179h-1.656a.576.576,0,0,1-.578-.578v-4.05h-1.141v5.944l3.554,1.187a3.657,3.657,0,1,1,6.984,2.091h10.146a3.592,3.592,0,0,1,.771-3.841,17.837,17.837,0,0,0-3.3-.781l-.893.928a2.132,2.132,0,0,1-1.53.651H4320.1a2.107,2.107,0,0,1-1.505-.619l-1.092-1.106c-.011-.015-.018-.028-.028-.042a.452.452,0,0,1-.13-.318c0-.018-.01-.032-.01-.046v-.007a2.138,2.138,0,0,1,2.136-2.129h1.523a.578.578,0,1,1,0,1.155h-1.523a.967.967,0,0,0-.942.784l.882.893a.975.975,0,0,0,.683.28h1.8a.988.988,0,0,0,.693-.3l1.085-1.134a.569.569,0,0,1,.466-.175,19.721,19.721,0,0,1,4.656,1.134,3.642,3.642,0,0,1,4.863,2.023c1.771.834,2.994,1.5,3.046,1.53a.57.57,0,0,1,.3.5v1.19a.579.579,0,0,1-.578.578h-3.487a3.619,3.619,0,0,1-5.367,0h-11.592a3.626,3.626,0,0,1-3.809,1.015Zm15.579-3.479a2.5,2.5,0,0,0,2.5,2.5v0a2.5,2.5,0,1,0-2.5-2.5Zm-16.965,0a2.505,2.505,0,0,0,2.506,2.5v0a2.5,2.5,0,1,0-2.506-2.5Zm22.879,1.316h2.181v-.27c-.368-.193-1.058-.554-1.936-.978A3.655,3.655,0,0,1,4333.661,13947.384Zm-28.162,1.313a.5.5,0,1,1,0-1h1.334a.5.5,0,1,1,0,1Z" transform="translate(-4305 -13927)" fill="#fff"/>
  </g>
</svg>
