<svg id="icon_pcr" xmlns="http://www.w3.org/2000/svg" width="32" height="31.996" viewBox="0 0 32 31.996">
  <rect id="사각형_12508" data-name="사각형 12508" width="31.996" height="31.996" fill="none"/>
  <g id="그룹_8228" data-name="그룹 8228" transform="translate(0 6.939)">
    <path id="패스_45929" data-name="패스 45929" d="M461.306,148.838h-9.252a.578.578,0,0,1,0-1.157h9.252a.578.578,0,0,1,0,1.157" transform="translate(-439.14 -133.803)" fill="#fff"/>
    <path id="패스_45930" data-name="패스 45930" d="M455.367,145.838h-2.313a.578.578,0,0,1,0-1.157h2.313a.578.578,0,0,1,0,1.157" transform="translate(-438.598 -135.43)" fill="#fff"/>
    <path id="패스_45931" data-name="패스 45931" d="M447.139,145.338h-3.084a.578.578,0,0,1,0-1.157h3.084a.578.578,0,0,1,0,1.157" transform="translate(-443.476 -135.701)" fill="#fff"/>
    <path id="패스_45932" data-name="패스 45932" d="M461.139,153.005a3.663,3.663,0,1,1,3.663-3.663,3.663,3.663,0,0,1-3.663,3.663m0-6.168a2.506,2.506,0,1,0,2.506,2.506,2.506,2.506,0,0,0-2.506-2.506" transform="translate(-435.888 -134.887)" fill="#fff"/>
    <path id="패스_45933" data-name="패스 45933" d="M449.139,153.005a3.663,3.663,0,1,1,3.662-3.662,3.663,3.663,0,0,1-3.662,3.662m0-6.168a2.506,2.506,0,1,0,2.506,2.506,2.506,2.506,0,0,0-2.506-2.506" transform="translate(-442.392 -134.887)" fill="#fff"/>
    <path id="패스_45934" data-name="패스 45934" d="M453.054,145.192a.578.578,0,0,1-.578-.578V140.76a.578.578,0,0,1,1.157,0v3.855a.579.579,0,0,1-.578.578" transform="translate(-438.597 -137.868)" fill="#fff"/>
    <path id="패스_45935" data-name="패스 45935" d="M472.184,152.9H469.1a.578.578,0,0,1,0-1.157H471.6V149.6a2.5,2.5,0,0,0-1.385-2.242l-4.139-2.07a.955.955,0,0,0-.43-.1h-16.6a.578.578,0,0,1-.538-.793l1.542-3.855a.583.583,0,0,1,.538-.364h7.71a.578.578,0,1,1,0,1.157h-7.318l-1.08,2.7h15.743a2.111,2.111,0,0,1,.948.227l4.138,2.066a3.647,3.647,0,0,1,2.025,3.277v2.719a.579.579,0,0,1-.578.578" transform="translate(-440.767 -137.868)" fill="#fff"/>
    <path id="패스_45936" data-name="패스 45936" d="M447.139,153.764a3.666,3.666,0,0,1-3.663-3.663v-3.9a1.351,1.351,0,0,1,1.349-1.349h1.955L449.7,139a.578.578,0,0,1,.518-.319h11.7a2.1,2.1,0,0,1,1.5.62l2.649,2.651a.578.578,0,0,1-.817.817l-2.651-2.651a.968.968,0,0,0-.68-.281H450.578l-2.924,5.847a.577.577,0,0,1-.517.321h-2.313a.192.192,0,0,0-.193.193v3.9a2.509,2.509,0,0,0,2.506,2.506.578.578,0,0,1,0,1.157" transform="translate(-443.476 -138.681)" fill="#fff"/>
    <path id="패스_45937" data-name="패스 45937" d="M464.6,146.838h-1.542a.578.578,0,0,1,0-1.157H464.6a.578.578,0,1,1,0,1.157" transform="translate(-433.178 -134.887)" fill="#fff"/>
    <path id="패스_45938" data-name="패스 45938" d="M445.6,150.838h-1.542a.578.578,0,0,1,0-1.157H445.6a.578.578,0,1,1,0,1.157" transform="translate(-443.476 -132.72)" fill="#fff"/>
    <path id="패스_45939" data-name="패스 45939" d="M472.726,150.838H448.054a.578.578,0,0,1,0-1.157h24.671a.578.578,0,0,1,0,1.157" transform="translate(-441.308 -132.72)" fill="#fff"/>
  </g>
</svg>
