<svg xmlns="http://www.w3.org/2000/svg" width="22" height="22" viewBox="0 0 22 22">
    <g data-name="타원 63" style="stroke:#fff;stroke-miterlimit:10;fill:none">
        <circle cx="11" cy="11" r="11" style="stroke:none"/>
        <circle cx="11" cy="11" r="10.5" style="fill:none"/>
    </g>
    <g data-name="그룹 7446">
        <path data-name="패스 45443" d="M41.7 10.48a.833.833 0 0 0-.193.819.788.788 0 0 1-.192.615V11.5h-.2a1.155 1.155 0 0 1-.193-.718 1.027 1.027 0 0 0-.192-.717l-.288-.2h-.576a1.059 1.059 0 0 1-.193.615c0 .41-.383.511-.767.615-.288 0-.576.2-.767-.308 0 0-.383 0-.479-.2l-.383-.308v.616a1 1 0 0 0 .96.511h.672s-.193 0 0 .308c0 .307 0 .41-.288.615l-.481.511-.575.511a1.331 1.331 0 0 0-.193 1.022h.96v1.022a.666.666 0 0 1-.481.308c-.288.307-.575.307-.767 0l-.288-.41c-.288.615-.479 1.022-1.249 1.229-.288 0-.576 0-.576.41-.383 0-.672-.511-.767-1.022v-.31a.632.632 0 0 1-.288-.615c0-.41 0-.82-.383-1.022l-.481-.82v-.615c-.288-.2-.481-.307-.767-.2a4.407 4.407 0 0 1-1.917-.308s0-.2-.288-.307v-1.64a.986.986 0 0 1 .576-1.022.437.437 0 0 1 .463-.41h.018s.288 0 .383-.206V7.1c.576 0 .767 0 .96-.308l-.383-.409h-.576c0-.41.481-.82.96-1.022.288.307.288 1.022.96 1.022v-.308a1.809 1.809 0 0 0 .288-1.229c0-.511.481-1.022.96-.717h.481l.479-.308c.193 0 .288 0 .288.206v.307c.383.2.672.41 1.15.2.193 0 .288-.2.481-.307-.383-.717-.767-1.022-1.249-1.022a7.23 7.23 0 0 0-5.472 0l-.96.717v.718c0 .2-.193.307 0 .409 0 .206.192.41 0 .615h-.288v.718c-.288 0-.383 0-.481.2 0 .615 0 .615-.672.615h-.193a.191.191 0 0 0-.192.192v.013c0 .206-.288.308-.481.41-.576 0-.96.206-.96.615a5.059 5.059 0 0 1-.288 2.045V11.5c0 .2.193.307.383.307.383 0 .479 0 .479.41 0 .2.481.717.672.819h.767a.861.861 0 0 1 .673 1.015v1.541c-.193 0-.193 0-.193.2v.511c.193 0 .193 0 .193.2h.288a7.251 7.251 0 0 0 8.929 0 4.7 4.7 0 0 0 .96-1.022c0-.41 0-.41.192-.511a1 1 0 0 0 .96-1.022v-.41l.288-.41c.193 0 .193-.2.288-.409v-.206a2.633 2.633 0 0 0 .481-2.045" transform="translate(-23.044 .63)" style="fill:#fff"/>
        <path data-name="패스 45603" d="M32.916 6.709h-.3l-.5.2a.958.958 0 0 1 .7.2c.2 0 .4 0 .5.2.3.6.7.6 1.209.5.5-.4.6 0 1.007 0v.1c.2 0 .4.2.5 0 .2 0 .3-.2.3-.4 0 0 0-.3-.2-.4l-.5-.2-1.612-.3h-.2l-.6-.4h-.6zM36.341 4.9a2.312 2.312 0 0 1 1.411-.2 1.338 1.338 0 0 0-.806-.3.639.639 0 0 0-.6.5m-3.223.4a1.211 1.211 0 0 0 .806-.2c.2 0 .2-.3 0-.4l-.4-.4a1.18 1.18 0 0 1-.4 1.007" transform="translate(-21.558 1.048)" style="fill:#fff"/>
    </g>
</svg>
