<svg xmlns="http://www.w3.org/2000/svg" xmlns:xlink="http://www.w3.org/1999/xlink" width="372" height="28" viewBox="0 0 372 28">
  <defs>
    <clipPath id="clip-path">
      <rect id="사각형_13299" data-name="사각형 13299" width="372" height="28" transform="translate(320.442 855.18)" fill="none" stroke="#707070" stroke-width="1"/>
    </clipPath>
  </defs>
  <g id="bi_IH01A" transform="translate(-320.442 -855.18)" clip-path="url(#clip-path)">
    <g id="组_6" data-name="组 6" transform="translate(-323.661 665.784)">
      <path id="路径_47" data-name="路径 47" d="M694.307,193.654h-1.453a2.374,2.374,0,0,0-2.588,1.7l-3.422,11.875a.489.489,0,0,1-.4.349.441.441,0,0,1-.461-.216l-6.746-11.921c-.659-1.191-.988-1.788-2.7-1.788h-3.277a3.178,3.178,0,0,0-3.4,2.564l-4.508,15.188a1.265,1.265,0,0,0,.063,1.123,1.8,1.8,0,0,0,1.491.472h1.459a2.349,2.349,0,0,0,2.552-1.7l3.531-11.867a.5.5,0,0,1,.4-.345.427.427,0,0,1,.069-.006.438.438,0,0,1,.387.224l6.816,12.088a2.538,2.538,0,0,0,2.576,1.655h3.372a3.157,3.157,0,0,0,3.366-2.564l4.391-15.236a1.267,1.267,0,0,0-.081-1.125,1.752,1.752,0,0,0-1.449-.47" transform="translate(19.861 3.209)" fill="#fff"/>
      <path id="路径_48" data-name="路径 48" d="M649.188,213.051h-2.507a1.574,1.574,0,0,1-1.515-2.011l4.674-16.244a1.571,1.571,0,0,1,1.514-1.141h2.507a1.575,1.575,0,0,1,1.514,2.009L650.7,211.91a1.575,1.575,0,0,1-1.512,1.141" transform="translate(0 3.21)" fill="#fff"/>
      <path id="路径_49" data-name="路径 49" d="M654.1,196.861h-2.185a1.815,1.815,0,0,1-1.745-2.316l.861-3.007a1.575,1.575,0,0,1,1.514-1.141h2.5a1.575,1.575,0,0,1,1.514,2.009l-.951,3.315a1.571,1.571,0,0,1-1.513,1.141" transform="translate(4.918 0)" fill="#fff"/>
      <path id="路径_50" data-name="路径 50" d="M676.708,205.071c-1.6,5.587-6.979,8.483-14.98,8.483s-11.717-2.9-10.115-8.483l.889-3.1c1.594-5.56,7.2-8.483,14.98-8.483s11.711,2.924,10.115,8.483Zm-5-2.87c1.09-3.8-.719-5.353-5.188-5.353s-7.169,1.552-8.261,5.353l-.756,2.638c-1.1,3.827.719,5.353,5.19,5.353s7.161-1.526,8.259-5.353Z" transform="translate(6.051 3.042)" fill="#fff"/>
      <path id="路径_51" data-name="路径 51" d="M730.975,195.12h-2.942l-12.09,16.49h3.2l3.259-4.569h7.807l.756,4.567h3.388L731,195.221Zm-1.189,9.634h-5.758l4.754-6.774Z" transform="translate(69.767 4.652)" fill="#fff"/>
      <path id="路径_52" data-name="路径 52" d="M741.612,195.557a20.692,20.692,0,0,0-5.385-.546c-4.859,0-7.413,1.411-8.287,4.575a3.421,3.421,0,0,0,.151,2.765c.538.881,1.659,1.457,3.636,1.87l2.338.5c1.546.343,2.324.685,2.6,1.141a1.774,1.774,0,0,1-.012,1.387c-.341,1.245-1.173,2.4-4.907,2.4a21.844,21.844,0,0,1-6.165-.838l-.2-.058.534,2.636.079.018a23.169,23.169,0,0,0,5.3.526c4.851,0,7.642-1.562,8.529-4.77a3.384,3.384,0,0,0-.032-2.721c-.534-.879-1.848-1.5-4.263-2.023l-2.312-.5c-1.25-.264-1.894-.556-2.148-.975a1.6,1.6,0,0,1-.026-1.292c.452-1.643,1.31-2.376,5.2-2.376a24.557,24.557,0,0,1,4.785.425l.117.028.59-2.136Z" transform="translate(79.061 4.545)" fill="#fff"/>
      <path id="路径_53" data-name="路径 53" d="M696.4,194.943h0c-5.613,0-9.468,2.759-10.853,7.769l-.5,1.824c-.661,2.386-.532,4.136.391,5.351,1.121,1.475,3.479,2.191,7.2,2.191h0a22.658,22.658,0,0,0,6.163-.83l.066-.022.754-2.721-.216.058a24.207,24.207,0,0,1-5.911.7h0c-2.38,0-3.843-.4-4.474-1.231-.48-.633-.524-1.536-.139-2.93l.155-.554,13.586,0,.4-1.445c.766-2.769.643-4.766-.375-6.1-1.052-1.383-3.1-2.056-6.246-2.056m3,6.915-.032.111-9.623,0,.012-.044c.439-1.58,1.8-4.23,5.982-4.23,1.665,0,2.808.391,3.4,1.167a3.344,3.344,0,0,1,.262,2.993" transform="translate(38.921 4.478)" fill="#fff"/>
      <path id="路径_54" data-name="路径 54" d="M709.752,195.119l-6.723,10.057c-.3.443-.589.893-.9,1.372-.375.578-.762,1.173-1.219,1.858-.078-.661-.131-1.241-.185-1.8-.046-.478-.087-.927-.139-1.372l-1.151-10-.012-.111H695.1l2.56,16.381.018.107h4.569l11.7-16.49Z" transform="translate(49.235 4.651)" fill="#fff"/>
      <path id="路径_55" data-name="路径 55" d="M721.773,197.246c-1.147-1.509-3.384-2.306-6.469-2.306h0c-5.74,0-9.789,2.737-11.109,7.507l-.57,2.058c-.609,2.2-.415,3.972.574,5.272,1.145,1.5,3.368,2.3,6.431,2.3h0c5.764,0,9.827-2.735,11.147-7.5l.57-2.058c.607-2.2.415-3.968-.574-5.266m-3.481,5.2-.57,2.058c-.887,3.2-2.975,4.76-6.383,4.76h0c-1.687,0-2.842-.395-3.436-1.173s-.657-1.949-.224-3.517l.57-2.058c.887-3.2,2.963-4.76,6.348-4.76,1.735,0,2.872.385,3.475,1.179.582.764.655,1.945.222,3.511" transform="translate(57.292 4.475)" fill="#fff"/>
      <path id="路径_56" data-name="路径 56" d="M782.816,195.121h-39.7a2,2,0,0,0-1.919,1.445l-3.6,12.5a2,2,0,0,0,1.919,2.541h39.707a1.994,1.994,0,0,0,1.919-1.443l3.594-12.507a1.988,1.988,0,0,0-1.925-2.537M754.784,200.5a7.515,7.515,0,0,0-1.072-.189,11.625,11.625,0,0,0-1.179-.062,5.161,5.161,0,0,0-1.215.111,1.265,1.265,0,0,0-1.032,1,.7.7,0,0,0,.1.74,2.449,2.449,0,0,0,1.006.433l.943.266a3.349,3.349,0,0,1,1.256.572,1.328,1.328,0,0,1,.474.867,3.394,3.394,0,0,1-.163,1.322,3.721,3.721,0,0,1-1.435,2.1,5.022,5.022,0,0,1-2.95.74,8.494,8.494,0,0,1-3.059-.5l.461-1.6a7.982,7.982,0,0,0,2.817.506,3.206,3.206,0,0,0,1.5-.272,1.348,1.348,0,0,0,.669-.861,1.077,1.077,0,0,0,.042-.568.639.639,0,0,0-.347-.377,4.113,4.113,0,0,0-.913-.341l-.951-.256a2.1,2.1,0,0,1-1.368-.919,2.283,2.283,0,0,1-.04-1.776,3.514,3.514,0,0,1,1.417-2.062,5.107,5.107,0,0,1,2.834-.673,13.414,13.414,0,0,1,1.514.081,4.657,4.657,0,0,1,1.119.23Zm9.452,4.277a4.914,4.914,0,0,1-1.771,2.771,5.4,5.4,0,0,1-3.235.883,3.472,3.472,0,0,1-2.763-.871,3.015,3.015,0,0,1-.173-2.783L758,198.807h1.955l-1.586,5.538a3.624,3.624,0,0,0-.191,1.387.878.878,0,0,0,.445.711,2.4,2.4,0,0,0,1.113.208,3.194,3.194,0,0,0,1.24-.208,1.887,1.887,0,0,0,.816-.7,4.828,4.828,0,0,0,.6-1.393l1.588-5.538h1.965Zm6.417,3.491h-2.185l-.693-9.458h1.836l.486,7.616,4.758-7.616h1.81Z" transform="translate(91.021 4.653)" fill="#fff"/>
    </g>
  </g>
</svg>
