<svg id="IK01-2new" xmlns="http://www.w3.org/2000/svg" width="560" height="28.002" viewBox="0 0 560 28.002">
  <rect id="사각형_12435" data-name="사각형 12435" width="560" height="28" fill="#fff" opacity="0"/>
  <g id="그룹_12966" data-name="그룹 12966" transform="translate(-200.206 -258.29)">
    <g id="그룹_12966-2" data-name="그룹 12966" transform="translate(281.712 267.928)">
      <path id="패스_56446" data-name="패스 56446" d="M286.459,276.371H271.7l-.194.7c-.788,2.844-.226,4.7,5.145,4.7A26.25,26.25,0,0,0,283.11,281l-.734,2.653a24.52,24.52,0,0,1-6.654.895c-7.242,0-9.673-2.428-8.126-8.02l.549-1.982c1.628-5.88,6.247-8.34,11.659-8.341,5.888,0,8.886,2.108,7.064,8.692Zm-3.319-2.525.062-.223c.724-2.62-.093-4.7-4.112-4.7-3.819,0-5.906,2.078-6.632,4.7l-.062.223Z" transform="translate(-267.149 -266.205)" fill="#fff"/>
      <path id="패스_56447" data-name="패스 56447" d="M293.256,284.163h-4.775l-2.757-17.64h4.416l1.25,10.865c.128,1.119.207,2.268.388,3.771h.04c1.012-1.5,1.729-2.652,2.475-3.772l7.265-10.865h4.218Z" transform="translate(-263.108 -266.137)" fill="#fff"/>
      <path id="패스_56448" data-name="패스 56448" d="M320.021,276.5c-1.425,5.145-5.771,8.053-11.978,8.054-6.167,0-8.9-2.907-7.479-8.053l.62-2.237c1.423-5.145,5.77-8.054,11.937-8.054,6.207,0,8.944,2.906,7.52,8.052Zm-3.52-2.238c1.053-3.8-.649-5.272-4.151-5.272-3.461,0-5.977,1.471-7.03,5.273l-.62,2.237c-1.053,3.8.649,5.273,4.11,5.273,3.5,0,6.017-1.471,7.07-5.274Z" transform="translate(-259.961 -266.206)" fill="#fff"/>
    </g>
    <g id="그룹_12967" data-name="그룹 12967" transform="translate(200.206 258.29)">
      <path id="패스_56449" data-name="패스 56449" d="M266.375,263.967h-1.552a2.538,2.538,0,0,0-2.766,1.818L258.4,278.478a.528.528,0,0,1-.424.374.475.475,0,0,1-.492-.233l-7.21-12.74c-.7-1.272-1.058-1.911-2.881-1.911h-3.5a3.392,3.392,0,0,0-3.628,2.741l-4.82,16.233a1.355,1.355,0,0,0,.071,1.2,1.923,1.923,0,0,0,1.591.5h1.558a2.512,2.512,0,0,0,2.729-1.818l3.776-12.683a.515.515,0,0,1,.5-.375.472.472,0,0,1,.414.239l7.283,12.919c.61,1.026,1.051,1.769,2.753,1.769h3.605a3.373,3.373,0,0,0,3.6-2.742l4.692-16.282a1.359,1.359,0,0,0-.085-1.2,1.874,1.874,0,0,0-1.557-.5Z" transform="translate(-192.562 -257.055)" fill="#fff"/>
      <path id="패스_56450" data-name="패스 56450" d="M204.57,284.7h-2.679a1.685,1.685,0,0,1-1.619-2.149l5-17.361a1.685,1.685,0,0,1,1.619-1.22h2.679a1.684,1.684,0,0,1,1.619,2.148l-5,17.362a1.686,1.686,0,0,1-1.619,1.22Z" transform="translate(-200.206 -257.055)" fill="#fff"/>
      <path id="패스_56451" data-name="패스 56451" d="M213.183,265.2h-2.334a1.941,1.941,0,0,1-1.866-2.475l.922-3.214a1.684,1.684,0,0,1,1.618-1.22H214.2a1.684,1.684,0,0,1,1.618,2.147l-1.015,3.544A1.682,1.682,0,0,1,213.183,265.2Z" transform="translate(-198.313 -258.29)" fill="#fff"/>
      <path id="패스_56452" data-name="패스 56452" d="M238.122,276.055c-1.712,5.97-7.459,9.066-16.009,9.066s-12.524-3.1-10.811-9.066l.951-3.318c1.7-5.942,7.7-9.066,16.009-9.066s12.515,3.124,10.811,9.066Zm-5.344-3.068c1.165-4.063-.768-5.722-5.546-5.722s-7.662,1.659-8.827,5.722l-.8,2.813c-1.174,4.091.768,5.722,5.546,5.722s7.655-1.631,8.827-5.722Z" transform="translate(-197.877 -257.119)" fill="#fff"/>
    </g>
  </g>
</svg>
