<svg xmlns="http://www.w3.org/2000/svg" width="40" height="40" viewBox="0 0 40 40">
    <g data-name="그룹 7668">
        <path data-name="Path 45470" d="M19.905 9.069v20.8" transform="translate(-2.705 -1.068)" style="fill:none;stroke:#fff;stroke-linecap:round;stroke-linejoin:round;stroke-width:1.5px"/>
        <path data-name="Path 45470-2" d="M15.9 9.069v20.8" transform="translate(-1.905 -1.068)" style="fill:none;stroke:#fff;stroke-linecap:round;stroke-linejoin:round;stroke-width:1.5px"/>
        <path data-name="패스 45576" d="M31.781 30.943a5.179 5.179 0 1 1 1.393-2.523" transform="translate(-3.313 -3.675)" style="fill:none;stroke:#fff;stroke-linecap:round;stroke-linejoin:round;stroke-width:1.5px"/>
        <path data-name="선 26" transform="translate(28.466 27.268)" style="fill:none;stroke:#fff;stroke-linecap:round;stroke-linejoin:round;stroke-width:1.5px" d="m0 0 3.532 3.532"/>
        <path data-name="Rectangle 12242" d="M22.1 28.578v.622a3.936 3.936 0 0 1-4 3.871h-3.2a3.936 3.936 0 0 1-4-3.871V12.94a3.936 3.936 0 0 1 4-3.871h3.2a3.936 3.936 0 0 1 4 3.871v4.78" transform="translate(-.905 -1.068)" style="fill:none;stroke:#fff;stroke-linecap:round;stroke-linejoin:round;stroke-width:1.5px"/>
    </g>
</svg>
