<svg xmlns="http://www.w3.org/2000/svg" xmlns:xlink="http://www.w3.org/1999/xlink" width="372" height="28" viewBox="0 0 372 28">
  <defs>
    <clipPath id="clip-path">
      <rect id="사각형_13299" data-name="사각형 13299" width="372" height="28" transform="translate(320.442 855.18)" fill="none"/>
    </clipPath>
    <clipPath id="clip-path-2">
      <rect id="사각형_13340" data-name="사각형 13340" width="372" height="27.806" fill="none"/>
    </clipPath>
  </defs>
  <g id="bi_DynaproHPX" transform="translate(-320.442 -855.18)" clip-path="url(#clip-path)">
    <g id="DynaproHPX" transform="translate(320.442 855.374)">
      <g id="그룹_11488" data-name="그룹 11488" clip-path="url(#clip-path-2)">
        <path id="패스_55674" data-name="패스 55674" d="M309.913,11.638l2.305-7.548h5.652c2.191,0,2.325.687,1.871,2.177l-.785,2.542c-.618,2.029-.909,2.829-4.03,2.829ZM326.538.1H299.808l-7.4,24.2h13.607l2.678-8.669h13.1c4.864,0,8.87-.837,10.146-5.01l1.674-5.479C334.921.861,331.258.1,326.538.1" transform="translate(-5.567 -0.002)" fill="#fff"/>
        <path id="패스_55675" data-name="패스 55675" d="M369.519,0,359.281,6.416,355.371,0h-16.99l9.206,13.064L329.763,24.205h9.374L350.124,17l4.591,7.205h16.514l-9.469-13.9L378.278,0Z" transform="translate(-6.278)" fill="#fff"/>
        <path id="패스_55676" data-name="패스 55676" d="M228.966,11.382l-1.471,6.211a3.508,3.508,0,0,1-3.516,2.178h-.542c-1.814,0-2.74-1.1-2.55-1.968l1.729-7.3c.832-1.471,1.831-1.471,3.391-1.471h.712c2.024,0,2.562,1.093,2.256,2.354m2.93-7.336L221.21,4.04C217.875,4.04,213,6,212.284,8.828L209.9,18.421c-.5,2.444,1.913,6.122,6.42,6.122h12.192c3.924,0,8.388-2.688,9.184-5.83l2.284-9.229c.507-2.657-3.329-5.442-8.089-5.442" transform="translate(-3.995 -0.077)" fill="#fff"/>
        <path id="패스_55677" data-name="패스 55677" d="M86.223,4.083H76.159l-5.129,20.5H81.653L85.541,9A1.937,1.937,0,0,1,87.78,7.337h1.932c1.893,0,1.962.729,1.609,2.132L87.515,24.6h10.7l3.662-14.813c.894-3.526-.751-5.69-5.134-5.69Z" transform="translate(-1.352 -0.078)" fill="#fff"/>
        <path id="패스_55678" data-name="패스 55678" d="M122.237,21.338h-4.022c-1.894,0-2.213-.732-1.846-2.2l.68-2.1c.378-1.5,1.589-2.2,3.531-2.2H123.9Zm2.459-9.712h-11.53c-2.994,0-5.591,1.254-6.272,3.945l-.9,4.265c-.928,3.664,1.117,4.749,5.207,4.749h20.815l3.91-15.619c.745-2.932-1.2-4.885-4.732-4.921l-18.344.036-.825,3.245h11.537c1.1,0,2.217.068,1.932,1.187Z" transform="translate(-2.014 -0.077)" fill="#fff"/>
        <path id="패스_55679" data-name="패스 55679" d="M160.4,10.115l-1.1,4.328c-.5,1.953-.732,2.722-3.433,2.722h-4.239l2.314-9.146h4.8c1.9,0,2.027.665,1.661,2.1m4.552-5.934H143.8l-6.05,23.609h11.137L150.65,21h10.042c4.212,0,7.661-.8,8.678-4.815l1.812-7.161c1.044-4.12-2.138-4.85-6.231-4.85" transform="translate(-2.623 -0.08)" fill="#fff"/>
        <path id="패스_55680" data-name="패스 55680" d="M53.788,21.292l-.22.874C53.176,23.7,52.8,24.5,50.7,24.5H36.421l-.859,3.382H53.43c5.467-.107,9.356-.133,10.727-5.549l.224-1.043,4.358-17.21H58.145L55.258,15.494c-.344,1.192-.607,2.55-2.5,2.55H51.285c-2.442,0-2.527-.83-2.06-2.687L52.079,4.082H41.452l-2.6,10.3c-1.177,4.643-.026,6.91,5.88,6.91Z" transform="translate(-0.677 -0.078)" fill="#fff"/>
        <path id="패스_55681" data-name="패스 55681" d="M22.422,7.54,19.8,17.853c-.48,1.881-.872,2.763-3.485,2.763H12.3L16.314,4.768h4.022c2.611,0,2.561.888,2.085,2.771M28.138.869H5.994L0,24.526H22.149c5.354,0,8.044-2.845,9.041-6.775L33.745,7.641C34.752,3.67,33.361.872,28.136.872" transform="translate(0 -0.017)" fill="#fff"/>
        <path id="패스_55682" data-name="패스 55682" d="M188.5,7.878h4.8c1.9,0,2.027.665,1.66,2.1l-.372,1.226c-.5,1.953-.732,2.722-3.433,2.722h-4.242ZM200.095,4.04H178.357L173.03,24.548h11.14l1.766-6.788h4.179l2.525,6.788h11.14l-2.723-7.3a5.636,5.636,0,0,0,4.179-4.294l1.088-4.056c1.044-4.12-2.138-4.85-6.231-4.85" transform="translate(-3.294 -0.077)" fill="#fff"/>
      </g>
      <path id="패스_55673" data-name="패스 55673" d="M278.513.1l-2.968,9.836H267.3L270.316.1H256.783l-7.4,24.2h13.531l3.162-10.343h8.231L271.11,24.3h13.558l7.4-24.2Z" transform="translate(-4.748 -0.002)" fill="#fff"/>
    </g>
  </g>
</svg>
