<svg xmlns="http://www.w3.org/2000/svg" xmlns:xlink="http://www.w3.org/1999/xlink" width="74" height="46" viewBox="0 0 74 46">
  <defs>
    <clipPath id="clip-path">
      <rect id="사각형_9" data-name="사각형 9" width="74" height="46" transform="translate(0 -3)" fill="none"/>
    </clipPath>
  </defs>
  <g id="sponsor-mlb_1201" transform="translate(-345.534 -939.237)">
    <g id="그룹_15" data-name="그룹 15" transform="translate(345.534 942.237)">
      <g id="그룹_14" data-name="그룹 14" transform="translate(0 0)" clip-path="url(#clip-path)">
        <path id="패스_34" data-name="패스 34" d="M67.734,0h0L6.16,0A6.207,6.207,0,0,0,1.794,1.774,6.14,6.14,0,0,0,0,6.17V33.647a6.087,6.087,0,0,0,1.787,4.375A6.164,6.164,0,0,0,6.16,39.831l61.574,0a6.173,6.173,0,0,0,6.148-6.187V6.166A6.121,6.121,0,0,0,67.734,0" transform="translate(0 0)" fill="#fff"/>
        <path id="패스_35" data-name="패스 35" d="M53.576,5.389a3.956,3.956,0,0,0-3.985-4H32.38l9.872,16.5.913.115.551.752v.7l.623.13.57.785v.679l.648.112.649.71v1.554a10.656,10.656,0,0,0,2.629,1.765c.874.337.966,1.721,1.492,2.472.655,1.083,1.559,1.515,1.365,2.124-.44,1.623-2.1,4.353-3.645,4.484H41.934v2.621H49.59a4,4,0,0,0,3.985-4.024Z" transform="translate(18.144 0.777)" fill="#c90f33"/>
        <path id="패스_36" data-name="패스 36" d="M28.841,34.3H25.878c-.027-7.391,2.5-11.482,5.494-12.294.41-.075.212-2.1-.307-2.709,0,0-1.453.022-1.757-.02-.381-.1-.117-.521-.117-.521l1.4-3-.19-.819H25.251l4.257-2.974c.2-7.85,8.246-8.462,13.1-5.216,2.88,1.908,3.105,5.691,2.88,8.306-.037.17-.749.058-.749.058s-.488,2.866.791,2.866h5.662a8.554,8.554,0,0,1,4.533,1.468l.545-1.979L43.869,1.388H5.383A4.054,4.054,0,0,0,2.532,2.544,3.991,3.991,0,0,0,1.387,5.392V32.871a3.942,3.942,0,0,0,1.145,2.837A4.033,4.033,0,0,0,5.383,36.89H30.366c-.61-1.053-1.311-2.245-1.524-2.593" transform="translate(0.777 0.778)" fill="#001d41"/>
        <path id="패스_37" data-name="패스 37" d="M4.938,19.725A2.735,2.735,0,1,1,7.65,22.46a2.7,2.7,0,0,1-2.712-2.735" transform="translate(2.767 9.519)" fill="#fff"/>
        <path id="패스_38" data-name="패스 38" d="M47.376,25.884c0-.307-.184-.353-.448-.353h-.565v1.15h.245v-.457h.2l.265.457h.271l-.275-.457a.3.3,0,0,0,.309-.34m-.445.133h-.323v-.281h.267c.115,0,.261,0,.261.128s-.069.153-.2.153" transform="translate(25.979 14.306)" fill="#fff"/>
        <path id="패스_39" data-name="패스 39" d="M47.056,25.191a1.11,1.11,0,1,0,1.108,1.116,1.1,1.1,0,0,0-1.108-1.116m0,1.979a.868.868,0,0,1,0-1.735.868.868,0,1,1,0,1.735" transform="translate(25.751 14.115)" fill="#fff"/>
      </g>
    </g>
  </g>
</svg>
