<svg xmlns="http://www.w3.org/2000/svg" xmlns:xlink="http://www.w3.org/1999/xlink" width="104" height="46" viewBox="0 0 104 46">
  <defs>
    <clipPath id="clip-path">
      <rect id="사각형_13583" data-name="사각형 13583" width="104" height="46" transform="translate(0 -1)" fill="none"/>
    </clipPath>
    <clipPath id="clip-path-2">
      <path id="패스_55997" data-name="패스 55997" d="M18.438,43.113c-1.284-.577,1.892-6.975,5.747-7.544.514,4.076-3.67,7.613-5.389,7.613a.879.879,0,0,1-.358-.069m6.135-9.425c-.536.047-.826.488-1.381.534-3.549.311-6.638,3.945-7.141,7.46a2.842,2.842,0,0,0,3.006,3.43c3.341.03,7.034-4.372,7.514-7.8.306-2.168-.6-3.633-1.846-3.633a.946.946,0,0,0-.151.008M32.63,34c2.126-.743,4.237-1.138,4.121-.161-.13,1.106-3.465,2.955-6.451,4.707.962-1.913,1.638-3.328,2.33-4.546m3.53-2.656a11.838,11.838,0,0,0-6.911,2.039c-1.454.972-1.419,2.082-.154,1.712.392-.115.576-.23.952-.346a70.036,70.036,0,0,0-3.61,7.747c-.714,1.92.547,3.352,1.248,1.758.5-1.135,1.135-2.442,1.7-3.695a30.737,30.737,0,0,0,7.831,4.374c1.688.488,2.642-.542,1.483-1.069a32.445,32.445,0,0,1-6.592-4.259c2.776-1.315,7.023-3.854,7.293-5.928.119-.915-.485-2.334-3.218-2.334Zm33.081.993c-1.2,1.5-6.563,8.252-6.99,10.949-.266,1.673.967,2.649,2.928,2.1s3.916-1.693,6.771-1.941c.872-.075,1.528-1.065.5-1.312a13.83,13.83,0,0,0-7.069,1.038c.685-2.542,3.193-7.045,5.982-10.89.6-.835.428-1.243-.069-1.243a3.135,3.135,0,0,0-2.055,1.294m-17.82-1.07a24.778,24.778,0,0,0-7.292,7.16c1.117-5.171,1.655-5.483,1.74-6.5.07-.883-.6-1.519-2.143-.327a23.861,23.861,0,0,0-5.612,7.878c-.853,1.806.2,3.337.915,1.874a50.234,50.234,0,0,1,4.364-6.881A33.1,33.1,0,0,0,41.746,41.8c-.114,1.436,1.185,2.115,2.017.569,1.69-3.132,6.907-8.6,7.084-8.435.053.048-3.41,5.85-4.016,9.984-.309,2.1,1.127,3.067,1.581,1.516a47.366,47.366,0,0,1,5.906-13.026c.676-1.125.144-1.8-.878-1.8a4.014,4.014,0,0,0-2.018.658m28.61-.645c-3.019,1.342-8.114,5.915-9.978,8.564-1.142,1.629.626,1.7,1.884.47,2.523-2.472,6.436-6.063,6.642-5.912A39.047,39.047,0,0,0,76.3,40.637a5.353,5.353,0,0,0-.917-1.731c-.567-.749-1.91-.628-1.246.55a8.915,8.915,0,0,1,.95,2.774c.236,1.3.236,2.118.385,2.725.406,1.659,2.067,1.449,2.274-.159a36.567,36.567,0,0,1,4.306-13.01c.381-.829-.284-1.358-1.128-1.358a2.225,2.225,0,0,0-.9.193M11.005,32.059c-1.9.568-3.009,2.955.185,2.123C9.336,37.612,6.942,42.334,6.5,44.7c-.223,1.2.785,1.674,1.3.872.172-.271,2.085-3.9,2.987-5.552.484-.886.515-.88,1.413-1.157,1.622-.5,2.259-.654,3.846-1.087.558-.153,1.136-.26,1.157-.835.019-.443-.241-.7-1.271-.679a22.325,22.325,0,0,0-3.624.529c.677-1.082,1.123-1.972,1.941-3.183a43.556,43.556,0,0,1,10.016-1.672c1.544-.059,1.788-1.384-.159-1.589a19.32,19.32,0,0,0-2.064-.1,41.457,41.457,0,0,0-11.037,1.82m53.869-1.138c-6.744,11.285-9.521,13.1-10.1,12.481-.344-.37.315-2.055,1.777-5.072,1.269-2.619,3.117-5.2,2.182-5.885-.9-.66-2.139.861-3.078,2.15-1.877,2.584-5.2,9.43-2.171,10.7,2.494,1.049,5.769-2.271,7.885-5.368,3.049-4.458,5.477-9.288,4.769-9.674a.779.779,0,0,0-.3-.065c-.312,0-.644.207-.959.731m17.3,11.435a7.989,7.989,0,0,0,8.4,8.2c5.925,0,12.206-4.289,14.965-7.873.743-.967.6-2.61-1.135-1.281-5.054,3.871-9.728,4.81-12.474,4.831-4.4.034-7.842-4.168-3.454-9.289,4.693-5.471,16.06-9.089,16.438-8.634.441.539-7.217,9.967-14.386,9.973-1.641,0-2.111,1.67-.369,1.986,7.939,1.441,18.282-8.151,18.757-12.57a1.771,1.771,0,0,0-1.584-1.97,6.1,6.1,0,0,0-1.136-.091c-6.372,0-24.022,6.425-24.022,16.719" transform="translate(-6.473 -25.637)" fill="none"/>
    </clipPath>
  </defs>
  <g id="sponsor-formula_e_1201_w" transform="translate(0 1)">
    <g id="white" clip-path="url(#clip-path)">
      <g id="그룹_12862" data-name="그룹 12862" transform="translate(0.874 9.499)" clip-path="url(#clip-path-2)">
        <rect id="사각형_13582" data-name="사각형 13582" width="105.603" height="43.834" transform="matrix(0.982, -0.188, 0.188, 0.982, -4.803, 0.885)" fill="#fff"/>
      </g>
    </g>
  </g>
</svg>
