<svg xmlns="http://www.w3.org/2000/svg" xmlns:xlink="http://www.w3.org/1999/xlink" width="72" height="46" viewBox="0 0 72 46">
  <defs>
    <clipPath id="clip-path">
      <rect id="사각형_10" data-name="사각형 10" width="70.069" height="45.251" fill="none"/>
    </clipPath>
  </defs>
  <g id="sponsor-uel_lc_1201_w" transform="translate(-304.386 -935.792)">
    <rect id="사각형_13570" data-name="사각형 13570" width="72" height="46" transform="translate(304.386 935.792)" fill="none"/>
    <g id="그룹_17" data-name="그룹 17" transform="translate(304.989 936)">
      <g id="그룹_16" data-name="그룹 16" clip-path="url(#clip-path)">
        <path id="패스_40" data-name="패스 40" d="M1.324,34.735H3.791V33.543H1.324V32.459H4.005V31.268H0v5.793H4.072V35.869H1.324ZM18.39,37.189a2.717,2.717,0,0,0,2.8-3.027,2.718,2.718,0,0,0-2.8-3.028,2.718,2.718,0,0,0-2.8,3.028,2.717,2.717,0,0,0,2.8,3.027m0-4.863c.827,0,1.481.6,1.481,1.836S19.217,36,18.39,36s-1.48-.6-1.48-1.836.653-1.836,1.48-1.836m3.591,4.735h1.325V35.108h.943a1.926,1.926,0,1,0,0-3.84H21.981Zm1.325-4.6h.878c.587,0,.819.306.819.728s-.232.728-.819.728h-.878ZM9.73,31.268H8.405V34.71c0,.778-.4,1.258-1.125,1.258s-1.126-.48-1.126-1.258V31.268H4.829v3.517A2.251,2.251,0,0,0,7.28,37.161a2.254,2.254,0,0,0,2.45-2.376ZM7.389,38.426H6.615v3.387H9v-.7H7.389ZM23.4,40.454h1.441v-.7H23.4v-.634h1.567v-.7H22.622v3.387H25v-.7H23.4Zm-1.987-.015c0,.455-.232.737-.658.737s-.657-.282-.657-.737V38.427H19.32v2.056a1.315,1.315,0,0,0,1.432,1.389,1.318,1.318,0,0,0,1.433-1.389V38.427H21.41Zm-4.217.162h1.046v.241a1.035,1.035,0,0,1-.774.334,1.059,1.059,0,0,1-.087-2.111.764.764,0,0,1,.8.58l.741-.217a1.433,1.433,0,0,0-1.535-1.061,1.752,1.752,0,0,0,.009,3.5,1.864,1.864,0,0,0,1.564-.745V40H17.193Zm12.323-9.334H28.109l-2.351,5.793h1.5l.423-1.1h2.267l.422,1.1h1.5Zm-1.382,3.5.678-1.78.679,1.78ZM13.472,38.426,12.1,41.813h.876l.247-.643h1.326l.247.643h.876l-1.374-3.387Zm.015,2.048.4-1.041.4,1.041Zm-3.353-.02h1.441v-.7H10.134v-.633H11.7v-.7H9.36v3.387h2.381v-.7H10.134Zm3.629-3.393h1.489l-1.292-2.326a1.791,1.791,0,0,0,1-1.614,1.905,1.905,0,0,0-2.095-1.853h-2.3v5.793h1.324V34.976H12.6Zm-1.872-4.6h.994c.546,0,.754.282.754.662s-.208.663-.754.663h-.994ZM11.25,27.71a.581.581,0,0,1-.419.144c-.171-.02-.276-.09-.446-.3L9.4,26.346l-.53.43,1.069,1.316a1.135,1.135,0,0,0,.793.456c.036,0,.071,0,.107,0a1.408,1.408,0,0,0,1.334-1.177,1.128,1.128,0,0,0-.284-.869l-1.07-1.316-.529.431.981,1.208a.626.626,0,0,1,.2.5.585.585,0,0,1-.228.383m4.683.26a5.943,5.943,0,0,1,4.574,2.113l.352-.434a6.576,6.576,0,0,0-9.853,0l.352.434a5.946,5.946,0,0,1,4.575-2.113M8.9,25.81a10.87,10.87,0,0,1,14.058,0q.3.259.575.538L23.9,25.9q-.271-.271-.563-.524a11.445,11.445,0,0,0-14.807,0q-.293.253-.563.524l.363.448q.274-.279.575-.538m13.233.484a.3.3,0,0,0-.109-.37l-.1-.08a.3.3,0,0,0-.385-.01L19.1,27.413l.638.361,1.556-1.007-.269.9-.236-.177-.408.292.507.378-.117.407.558.511Zm-7.266-2.385-1.714.347a.275.275,0,0,0-.179.114.27.27,0,0,0-.034.209l.341,1.683a.848.848,0,0,0,.365.587.828.828,0,0,0,.442.114,1.423,1.423,0,0,0,.277-.03l1.072-.218-.129-.635-1.043.213c-.213.043-.283.02-.331-.221l-.037-.18,1.206-.245-.128-.629-1.206.245-.092-.452L15,24.544Zm3.334.918,1.027.267.163-.626-1.057-.275a.813.813,0,0,0-1.117.61l-.431,1.666a.257.257,0,0,0,.2.332l.392.1.279-1.077,1.188.308.161-.62-1.189-.308.046-.178c.061-.236.132-.255.342-.2" transform="translate(0 3.377)" fill="#fff"/>
        <path id="패스_41" data-name="패스 41" d="M22.439,36.542h.311v.85h.175v-.85h.311v-.16h-.8Zm1.724-.16-.308.807-.308-.807h-.19v1.01h.178v-.606l.232.606h.175l.232-.606v.606h.177v-1.01Z" transform="translate(3.344 5.422)" fill="#fff"/>
        <path id="패스_42" data-name="패스 42" d="M6.627,12.649A8.593,8.593,0,0,1,10.16,5.7L9.591,3.772a10.519,10.519,0,0,0,.525,18.068l.656-1.834a8.609,8.609,0,0,1-4.146-7.357M20.869,3.772,20.3,5.7a8.6,8.6,0,0,1-.614,14.3l.656,1.834a10.518,10.518,0,0,0,.525-18.068" transform="translate(0.703 0.562)" fill="#eb6819"/>
        <path id="패스_43" data-name="패스 43" d="M11.324,20.813h1.328l1.544-6.93V0L9.518,2l3.85,13.1Zm6.383,0L15.663,15.1,19.512,2,14.835,0V13.884l1.544,6.93Zm-6.725.956-.7,1.971h8.476l-.7-1.971Zm4.776-.956-1.243-5.576-1.242,5.576Z" transform="translate(1.418 0)" fill="#fff"/>
        <path id="패스_44" data-name="패스 44" d="M45.764,19.21,45.1,21.029H52.45l-.664-1.819Zm1.826-6c-.329-2.059-.993-4.466-.993-4.466a21.843,21.843,0,0,1-.565,9.584h5.484A40.619,40.619,0,0,1,50.986.2,11.533,11.533,0,0,0,49.122,0,53.213,53.213,0,0,0,50.506,13.21H49.92A60.508,60.508,0,0,1,48.555,0,10.817,10.817,0,0,0,46.7.176L49.334,13.21h-.583L46.138.292a8.68,8.68,0,0,0-1.922.685c2.807,5.117,3.955,12.234,3.955,12.234Zm3.146-2.644a31.594,31.594,0,0,1,2.6-9.59A9.2,9.2,0,0,0,51.48.309a40.888,40.888,0,0,0-.745,10.257" transform="translate(6.589 0)" fill="#fff"/>
        <path id="패스_45" data-name="패스 45" d="M41.5,10.909A7.935,7.935,0,0,1,44.762,4.5l-.524-1.783a9.706,9.706,0,0,0,.485,16.675l.6-1.691a7.944,7.944,0,0,1-3.826-6.79M54.646,2.715,54.122,4.5a7.934,7.934,0,0,1-.566,13.2l.606,1.691a9.707,9.707,0,0,0,.485-16.675" transform="translate(5.922 0.405)" fill="#34ac37"/>
        <path id="패스_46" data-name="패스 46" d="M36.608,31.292h2.276v-1.1H36.608v-1h2.475v-1.1h-3.7v5.348h3.758v-1.1H36.608Zm15.751,2.265a2.508,2.508,0,0,0,2.588-2.793,2.6,2.6,0,1,0-5.176,0,2.509,2.509,0,0,0,2.589,2.793m0-4.488c.763,0,1.366.549,1.366,1.695s-.6,1.695-1.366,1.695-1.367-.55-1.367-1.695.6-1.695,1.367-1.695m3.314,4.37h1.223v-1.8h.87a1.778,1.778,0,1,0,0-3.545H55.672Zm1.223-4.247h.81c.541,0,.756.283.756.672s-.215.672-.756.672h-.81Zm-12.53-1.1H43.143v3.178c0,.718-.367,1.162-1.039,1.162s-1.04-.444-1.04-1.162V28.09H39.843v3.247a2.262,2.262,0,0,0,4.521,0ZM42.2,39.066H41.49v3.125h2.2v-.643H42.2Zm14.773,1.871h1.331v-.642H56.977v-.585h1.447v-.643H56.263v3.125h2.2v-.643H56.977Zm-1.833-.013c0,.419-.215.678-.607.678s-.608-.259-.608-.678V39.066h-.715v1.9a1.323,1.323,0,0,0,2.644,0v-1.9h-.715Zm-3.892.148h.965v.223a.954.954,0,0,1-.715.309.978.978,0,0,1-.08-1.949.7.7,0,0,1,.741.537l.684-.2a1.32,1.32,0,0,0-1.416-.979,1.618,1.618,0,0,0,.008,3.236,1.723,1.723,0,0,0,1.443-.688V40.514h-1.63ZM62.625,28.09h-1.3l-2.169,5.348h1.383l.39-1.016h2.092l.39,1.016H64.8Zm-1.275,3.232.626-1.643.627,1.643ZM47.819,39.066l-1.267,3.125h.808l.227-.594H48.81l.228.594h.809l-1.269-3.125Zm.014,1.889.367-.961.365.961Zm-3.094-.018h1.331v-.642H44.738v-.586h1.447v-.642H44.023v3.125h2.2v-.643H44.738Zm3.348-7.5h1.375L48.27,31.292a1.653,1.653,0,0,0,.924-1.489,1.759,1.759,0,0,0-1.933-1.712H45.138v5.348H46.36V31.513h.657ZM46.36,29.191h.917c.5,0,.7.26.7.611s-.191.611-.7.611H46.36Zm-.592-4.384a.534.534,0,0,1-.388.132c-.157-.017-.254-.083-.411-.276l-.905-1.115-.488.4.986,1.215a1.047,1.047,0,0,0,.732.421.947.947,0,0,0,.1,0A1.3,1.3,0,0,0,46.624,24.5a1.047,1.047,0,0,0-.263-.8l-.987-1.213-.488.4L45.792,24a.577.577,0,0,1,.186.461.536.536,0,0,1-.209.352m4.321.24A5.485,5.485,0,0,1,54.312,27l.325-.4a6.067,6.067,0,0,0-9.093,0l.325.4a5.483,5.483,0,0,1,4.222-1.95M43.6,23.053a10.037,10.037,0,0,1,12.975,0c.185.16.361.326.531.5l.334-.412c-.167-.167-.339-.327-.519-.484a10.566,10.566,0,0,0-13.666,0c-.18.156-.353.317-.519.484l.336.412c.169-.17.345-.337.53-.5m12.213.448a.278.278,0,0,0-.1-.341l-.1-.075a.278.278,0,0,0-.356-.01l-2.252,1.458.588.333,1.436-.928-.248.834-.217-.163-.377.269.468.349-.109.375.516.472ZM49.11,21.3l-1.583.322a.248.248,0,0,0-.164.1.251.251,0,0,0-.032.193l.315,1.553a.786.786,0,0,0,.337.541.767.767,0,0,0,.408.106,1.3,1.3,0,0,0,.257-.028l.989-.2-.119-.587-.963.2c-.2.04-.261.018-.306-.2l-.033-.168,1.113-.225-.118-.58-1.113.226-.084-.417,1.216-.246Zm3.077.848.948.246.151-.578-.976-.253a.749.749,0,0,0-1.031.563l-.4,1.537a.241.241,0,0,0,.022.193.247.247,0,0,0,.159.114l.362.094.256-.994,1.1.284.149-.572-1.1-.284.043-.164c.056-.218.122-.237.316-.186" transform="translate(5.273 3.003)" fill="#fff"/>
        <path id="패스_47" data-name="패스 47" d="M56.1,36.759h.287v.786h.162v-.786h.286v-.146H56.1Zm1.59-.147-.284.746-.285-.746h-.174v.933h.163v-.56l.214.56h.162l.214-.56v.56h.164v-.933Z" transform="translate(8.359 5.456)" fill="#fff"/>
        <path id="패스_48" data-name="패스 48" d="M58.13,34.781l-1.21-1.973h-.772v3.125h.7V33.961l1.21,1.973h.772V32.808h-.7Zm5.2-.1h1.331v-.643H63.332v-.584h1.447v-.643h-2.16v3.124h2.2V35.29H63.332ZM47.186,33.452v-.643h-2.16v3.124h.715V34.679H47.07v-.643H45.741v-.584Zm13.632-.063a.626.626,0,0,1,.643.54l.722-.144a1.271,1.271,0,0,0-1.36-1.048A1.637,1.637,0,0,0,60.805,36a1.332,1.332,0,0,0,1.378-1.116l-.7-.138a.68.68,0,0,1-.673.6c-.45,0-.789-.353-.789-.981s.356-.981.8-.981m-10.871,1.9H48.465v-.611H49.8v-.643H48.465v-.584h1.447v-.643h-2.16v3.124h2.2ZM39.9,32.737A1.638,1.638,0,1,0,41.41,34.37,1.466,1.466,0,0,0,39.9,32.737m0,2.623c-.447,0-.8-.322-.8-.99s.352-.99.8-.99.8.322.8.99-.352.99-.8.99m4.623-2.552h-.7v1.973l-1.209-1.973h-.772v3.125h.7V33.961l1.209,1.973h.772ZM55.676,35.29H54.194v-.611h1.331v-.643H54.194v-.584h1.447v-.643H53.48v3.124h2.2Zm-18.893-1.9a.625.625,0,0,1,.642.54l.723-.144a1.271,1.271,0,0,0-1.36-1.048A1.637,1.637,0,0,0,36.77,36a1.332,1.332,0,0,0,1.378-1.116l-.7-.138a.681.681,0,0,1-.673.6c-.45,0-.789-.353-.789-.981s.356-.981.8-.981m16.127.419a1.028,1.028,0,0,0-1.129-1H50.539v3.124h.715V34.809h.384l.625,1.124h.8l-.7-1.254a.967.967,0,0,0,.54-.871m-1.12.357h-.535v-.714h.535c.3,0,.407.152.407.356s-.111.357-.407.357" transform="translate(5.254 4.879)" fill="#fff"/>
      </g>
    </g>
  </g>
</svg>
