<svg xmlns="http://www.w3.org/2000/svg" width="28" height="28">
    <defs>
        <style>
            .cls-3{fill:#000}
        </style>
    </defs>
    <g id="Button_-_Globe" data-name="Button - Globe" transform="translate(-1932 -53)">
        <g id="Icon_1" data-name="Icon 1" transform="translate(515 -2)">
            <g id="타원_63" data-name="타원 63" transform="translate(1421 59)" style="stroke:#000;stroke-miterlimit:10;fill:none">
                <circle cx="10" cy="10" r="10" style="stroke:none"/>
                <circle cx="10" cy="10" r="9.5" style="fill:none"/>
            </g>
            <g id="그룹_7446" data-name="그룹 7446" transform="translate(1424 62)">
                <path id="패스_45443" data-name="패스 45443" class="cls-3" d="M40.308 9.77a.757.757 0 0 0-.175.745.716.716 0 0 1-.174.559V10.7h-.179a1.05 1.05 0 0 1-.175-.653.933.933 0 0 0-.174-.652l-.261-.186h-.524a.963.963 0 0 1-.175.559c0 .373-.349.465-.7.559-.261 0-.524.186-.7-.28 0 0-.349 0-.436-.186l-.349-.28v.56a.914.914 0 0 0 .873.465h.611s-.175 0 0 .28c0 .279 0 .373-.261.559l-.437.465-.523.465a1.21 1.21 0 0 0-.175.929h.873v.929a.606.606 0 0 1-.437.28c-.261.279-.523.279-.7 0l-.261-.373c-.261.559-.436.929-1.135 1.118-.261 0-.524 0-.524.373-.349 0-.611-.465-.7-.929v-.279a.574.574 0 0 1-.261-.559c0-.373 0-.746-.349-.929l-.437-.746v-.559c-.261-.186-.437-.279-.7-.186a4.006 4.006 0 0 1-1.743-.28s0-.186-.261-.279V9.4a.9.9 0 0 1 .524-.929.4.4 0 0 1 .421-.373h.016s.261 0 .349-.187V6.7c.524 0 .7 0 .873-.28l-.349-.372h-.524c0-.373.437-.746.873-.929.261.279.261.929.872.929v-.28a1.645 1.645 0 0 0 .261-1.118c0-.465.437-.929.873-.652h.437l.436-.28c.175 0 .261 0 .261.187v.279c.349.186.611.373 1.046.186.175 0 .261-.186.437-.279-.349-.652-.7-.929-1.135-.929a6.573 6.573 0 0 0-4.975 0l-.873.652v.653c0 .186-.175.279 0 .372 0 .187.174.373 0 .559h-.261v.653c-.261 0-.349 0-.437.186 0 .559 0 .559-.611.559h-.175a.174.174 0 0 0-.174.174v.012c0 .187-.261.28-.437.373-.524 0-.873.187-.873.559a4.6 4.6 0 0 1-.261 1.859v.927c0 .186.175.279.349.279.349 0 .436 0 .436.373 0 .186.437.652.611.745h.7a.782.782 0 0 1 .612.922v1.4c-.175 0-.175 0-.175.186v.465c.175 0 .175 0 .175.186h.261a6.592 6.592 0 0 0 8.118 0 4.276 4.276 0 0 0 .873-.929c0-.373 0-.373.174-.465a.906.906 0 0 0 .872-.929v-.373l.261-.373c.175 0 .175-.186.261-.372v-.187a2.393 2.393 0 0 0 .437-1.859" transform="translate(-26.344 -2.67)"/>
                <path id="패스_45603" data-name="패스 45603" class="cls-3" d="M32.843 6.49h-.274l-.457.184a.871.871 0 0 1 .64.183c.183 0 .367 0 .459.183.274.55.64.55 1.1.457.457-.366.549 0 .916 0v.093c.183 0 .366.183.457 0 .183 0 .274-.184.274-.367 0 0 0-.274-.183-.366l-.457-.183L33.85 6.4h-.183l-.549-.366h-.55zm3.113-1.648a2.1 2.1 0 0 1 1.283-.183 1.217 1.217 0 0 0-.733-.276.581.581 0 0 0-.55.458m-2.93.366a1.1 1.1 0 0 0 .733-.183c.183 0 .183-.274 0-.366l-.366-.367a1.073 1.073 0 0 1-.367.916" transform="translate(-25.517 -2.438)"/>
            </g>
        </g>
    </g>
</svg>
